CooperHewittInterpol1-BookItalic.ufo
<glyph name="dollar" format="1">
  <advance width="596"/>
  <unicode hex="0024"/>
  <outline>
    <contour>
      <point x="166" y="553" type="line" smooth="yes"/>
      <point x="222" y="636" type="line" smooth="yes"/>
      <point x="336" y="665" type="line" smooth="yes"/>
      <point x="340" y="665" type="line" smooth="yes"/>
      <point x="356" y="664" type="line" smooth="yes"/>
      <point x="369" y="663" type="line" smooth="yes"/>
      <point x="283" y="431" type="line" smooth="yes"/>
      <point x="186" y="471" type="line" smooth="yes"/>
      <point x="165" y="545" type="line" smooth="yes"/>
    </contour>
    <contour>
      <point x="271" y="115" type="line" smooth="yes"/>
      <point x="249" y="116" type="line" smooth="yes"/>
      <point x="229" y="119" type="line" smooth="yes"/>
      <point x="319" y="362" type="line" smooth="yes"/>
      <point x="419" y="323" type="line" smooth="yes"/>
      <point x="447" y="242" type="line" smooth="yes"/>
      <point x="446" y="234" type="line" smooth="yes"/>
      <point x="392" y="146" type="line" smooth="yes"/>
      <point x="277" y="115" type="line" smooth="yes"/>
    </contour>
    <contour>
      <point x="496" y="840" type="line" smooth="yes"/>
      <point x="434" y="840" type="line" smooth="yes"/>
      <point x="391" y="724" type="line" smooth="yes"/>
      <point x="369" y="726" type="line" smooth="yes"/>
      <point x="346" y="727" type="line" smooth="yes"/>
      <point x="175" y="684" type="line" smooth="yes"/>
      <point x="95" y="553" type="line" smooth="yes"/>
      <point x="94" y="545" type="line" smooth="yes"/>
      <point x="122" y="434" type="line" smooth="yes"/>
      <point x="261" y="372" type="line" smooth="yes"/>
      <point x="174" y="136" type="line" smooth="yes"/>
      <point x="123" y="189" type="line" smooth="yes"/>
      <point x="119" y="274" type="line" smooth="yes"/>
      <point x="50" y="274" type="line" smooth="yes"/>
      <point x="48" y="261" type="line" smooth="yes"/>
      <point x="65" y="149" type="line" smooth="yes"/>
      <point x="151" y="73" type="line" smooth="yes"/>
      <point x="102" y="-60" type="line" smooth="yes"/>
      <point x="163" y="-60" type="line" smooth="yes"/>
      <point x="206" y="57" type="line" smooth="yes"/>
      <point x="235" y="54" type="line" smooth="yes"/>
      <point x="274" y="53" type="line" smooth="yes"/>
      <point x="441" y="100" type="line" smooth="yes"/>
      <point x="518" y="233" type="line" smooth="yes"/>
      <point x="519" y="241" type="line" smooth="yes"/>
      <point x="483" y="362" type="line" smooth="yes"/>
      <point x="341" y="422" type="line" smooth="yes"/>
      <point x="426" y="650" type="line" smooth="yes"/>
      <point x="472" y="594" type="line" smooth="yes"/>
      <point x="476" y="496" type="line" smooth="yes"/>
      <point x="546" y="496" type="line" smooth="yes"/>
      <point x="548" y="509" type="line" smooth="yes"/>
      <point x="534" y="634" type="line" smooth="yes"/>
      <point x="448" y="711" type="line" smooth="yes"/>
    </contour>
  </outline>
</glyph>
<glyph name="percent" format="1">
  <advance width="919"/>
  <unicode hex="0025"/>
  <outline>
    <contour>
      <point x="249" y="791" type="line" smooth="yes"/>
      <point x="125" y="744" type="line" smooth="yes"/>
      <point x="69" y="621" type="line" smooth="yes"/>
      <point x="68" y="612" type="line" smooth="yes"/>
      <point x="104" y="484" type="line" smooth="yes"/>
      <point x="226" y="438" type="line" smooth="yes"/>
      <point x="350" y="485" type="line" smooth="yes"/>
      <point x="406" y="608" type="line" smooth="yes"/>
      <point x="407" y="617" type="line" smooth="yes"/>
      <point x="407" y="664" type="line" smooth="yes"/>
      <point x="396" y="699" type="line" smooth="yes"/>
      <point x="438" y="692" type="line" smooth="yes"/>
      <point x="490" y="688" type="line" smooth="yes"/>
      <point x="565" y="695" type="line" smooth="yes"/>
      <point x="601" y="703" type="line" smooth="yes"/>
      <point x="216" y="0" type="line" smooth="yes"/>
      <point x="284" y="0" type="line" smooth="yes"/>
      <point x="684" y="732" type="line" smooth="yes"/>
      <point x="691" y="781" type="line" smooth="yes"/>
      <point x="611" y="761" type="line" smooth="yes"/>
      <point x="497" y="749" type="line" smooth="yes"/>
      <point x="409" y="755" type="line" smooth="yes"/>
      <point x="325" y="777" type="line" smooth="yes"/>
      <point x="293" y="787" type="line" smooth="yes"/>
    </contour>
    <contour>
      <point x="129" y="619" type="line" smooth="yes"/>
      <point x="164" y="702" type="line" smooth="yes"/>
      <point x="245" y="732" type="line" smooth="yes"/>
      <point x="253" y="732" type="line" smooth="yes"/>
      <point x="329" y="701" type="line" smooth="yes"/>
      <point x="347" y="619" type="line" smooth="yes"/>
      <point x="346" y="610" type="line" smooth="yes"/>
      <point x="311" y="527" type="line" smooth="yes"/>
      <point x="230" y="497" type="line" smooth="yes"/>
      <point x="222" y="497" type="line" smooth="yes"/>
      <point x="146" y="528" type="line" smooth="yes"/>
      <point x="128" y="610" type="line" smooth="yes"/>
    </contour>
    <contour>
      <point x="519" y="163" type="line" smooth="yes"/>
      <point x="555" y="35" type="line" smooth="yes"/>
      <point x="677" y="-11" type="line" smooth="yes"/>
      <point x="801" y="36" type="line" smooth="yes"/>
      <point x="857" y="159" type="line" smooth="yes"/>
      <point x="858" y="168" type="line" smooth="yes"/>
      <point x="823" y="296" type="line" smooth="yes"/>
      <point x="700" y="342" type="line" smooth="yes"/>
      <point x="576" y="295" type="line" smooth="yes"/>
      <point x="520" y="172" type="line" smooth="yes"/>
    </contour>
    <contour>
      <point x="580" y="170" type="line" smooth="yes"/>
      <point x="615" y="253" type="line" smooth="yes"/>
      <point x="696" y="283" type="line" smooth="yes"/>
      <point x="704" y="283" type="line" smooth="yes"/>
      <point x="780" y="252" type="line" smooth="yes"/>
      <point x="798" y="170" type="line" smooth="yes"/>
      <point x="797" y="161" type="line" smooth="yes"/>
      <point x="762" y="78" type="line" smooth="yes"/>
      <point x="681" y="48" type="line" smooth="yes"/>
      <point x="673" y="48" type="line" smooth="yes"/>
      <point x="597" y="79" type="line" smooth="yes"/>
      <point x="579" y="161" type="line" smooth="yes"/>
    </contour>
  </outline>
</glyph>
<glyph name="ampersand" format="1">
  <advance width="661"/>
  <unicode hex="0026"/>
  <outline>
    <contour>
      <point x="174" y="631" type="line" smooth="yes"/>
      <point x="206" y="699" type="line" smooth="yes"/>
      <point x="292" y="727" type="line" smooth="yes"/>
      <point x="300" y="727" type="line" smooth="yes"/>
      <point x="380" y="699" type="line" smooth="yes"/>
      <point x="401" y="630" type="line" smooth="yes"/>
      <point x="399" y="615" type="line" smooth="yes"/>
      <point x="344" y="530" type="line" smooth="yes"/>
      <point x="238" y="462" type="line" smooth="yes"/>
      <point x="186" y="539" type="line" smooth="yes"/>
      <point x="172" y="616" type="line" smooth="yes"/>
    </contour>
    <contour>
      <point x="227" y="54" type="line" smooth="yes"/>
      <point x="115" y="94" type="line" smooth="yes"/>
      <point x="92" y="201" type="line" smooth="yes"/>
      <point x="94" y="216" type="line" smooth="yes"/>
      <point x="137" y="310" type="line" smooth="yes"/>
      <point x="217" y="372" type="line" smooth="yes"/>
      <point x="408" y="129" type="line" smooth="yes"/>
      <point x="324" y="71" type="line" smooth="yes"/>
      <point x="235" y="54" type="line" smooth="yes"/>
    </contour>
    <contour>
      <point x="231" y="-11" type="line" smooth="yes"/>
      <point x="347" y="9" type="line" smooth="yes"/>
      <point x="449" y="75" type="line" smooth="yes"/>
      <point x="510" y="0" type="line" smooth="yes"/>
      <point x="601" y="0" type="line" smooth="yes"/>
      <point x="499" y="129" type="line" smooth="yes"/>
      <point x="564" y="244" type="line" smooth="yes"/>
      <point x="601" y="395" type="line" smooth="yes"/>
      <point x="527" y="395" type="line" smooth="yes"/>
      <point x="526" y="386" type="line" smooth="yes"/>
      <point x="499" y="271" type="line" smooth="yes"/>
      <point x="456" y="186" type="line" smooth="yes"/>
      <point x="278" y="410" type="line" smooth="yes"/>
      <point x="405" y="495" type="line" smooth="yes"/>
      <point x="472" y="613" type="line" smooth="yes"/>
      <point x="474" y="628" type="line" smooth="yes"/>
      <point x="437" y="744" type="line" smooth="yes"/>
      <point x="296" y="791" type="line" smooth="yes"/>
      <point x="157" y="746" type="line" smooth="yes"/>
      <point x="101" y="633" type="line" smooth="yes"/>
      <point x="99" y="618" type="line" smooth="yes"/>
      <point x="114" y="522" type="line" smooth="yes"/>
      <point x="177" y="424" type="line" smooth="yes"/>
      <point x="75" y="343" type="line" smooth="yes"/>
      <point x="21" y="218" type="line" smooth="yes"/>
      <point x="19" y="203" type="line" smooth="yes"/>
      <point x="65" y="45" type="line" smooth="yes"/>
    </contour>
  </outline>
</glyph>
<glyph name="parenleft" format="1">
  <advance width="317"/>
  <unicode hex="0028"/>
  <outline>
    <contour>
      <point x="47" y="348" type="line" smooth="yes"/>
      <point x="63" y="84" type="line" smooth="yes"/>
      <point x="145" y="-120" type="line" smooth="yes"/>
      <point x="220" y="-120" type="line" smooth="yes"/>
      <point x="135" y="92" type="line" smooth="yes"/>
      <point x="119" y="348" type="line" smooth="yes"/>
      <point x="122" y="372" type="line" smooth="yes"/>
      <point x="203" y="645" type="line" smooth="yes"/>
      <point x="346" y="840" type="line" smooth="yes"/>
      <point x="271" y="840" type="line" smooth="yes"/>
      <point x="132" y="653" type="line" smooth="yes"/>
      <point x="50" y="372" type="line" smooth="yes"/>
    </contour>
  </outline>
</glyph>
<glyph name="parenright" format="1">
  <advance width="311"/>
  <unicode hex="0029"/>
  <outline>
    <contour>
      <point x="266" y="372" type="line" smooth="yes"/>
      <point x="250" y="636" type="line" smooth="yes"/>
      <point x="168" y="840" type="line" smooth="yes"/>
      <point x="93" y="840" type="line" smooth="yes"/>
      <point x="178" y="629" type="line" smooth="yes"/>
      <point x="194" y="372" type="line" smooth="yes"/>
      <point x="191" y="348" type="line" smooth="yes"/>
      <point x="111" y="75" type="line" smooth="yes"/>
      <point x="-33" y="-120" type="line" smooth="yes"/>
      <point x="42" y="-120" type="line" smooth="yes"/>
      <point x="181" y="67" type="line" smooth="yes"/>
      <point x="263" y="348" type="line" smooth="yes"/>
    </contour>
  </outline>
</glyph>
<glyph name="plus" format="1">
  <advance width="600"/>
  <unicode hex="002B"/>
  <outline>
    <contour>
      <point x="301" y="642" type="line" smooth="yes"/>
      <point x="272" y="423" type="line" smooth="yes"/>
      <point x="53" y="423" type="line" smooth="yes"/>
      <point x="44" y="357" type="line" smooth="yes"/>
      <point x="263" y="357" type="line" smooth="yes"/>
      <point x="234" y="138" type="line" smooth="yes"/>
      <point x="301" y="138" type="line" smooth="yes"/>
      <point x="330" y="357" type="line" smooth="yes"/>
      <point x="549" y="357" type="line" smooth="yes"/>
      <point x="558" y="423" type="line" smooth="yes"/>
      <point x="339" y="423" type="line" smooth="yes"/>
      <point x="368" y="642" type="line" smooth="yes"/>
    </contour>
  </outline>
</glyph>
<glyph name="one" format="1">
  <advance width="600"/>
  <unicode hex="0031"/>
  <outline>
    <contour>
      <point x="500" y="0" type="line" smooth="yes"/>
      <point x="509" y="66" type="line" smooth="yes"/>
      <point x="305" y="66" type="line" smooth="yes"/>
      <point x="399" y="784" type="line" smooth="yes"/>
      <point x="354" y="784" type="line" smooth="yes"/>
      <point x="87" y="618" type="line" smooth="yes"/>
      <point x="116" y="563" type="line" smooth="yes"/>
      <point x="315" y="687" type="line" smooth="yes"/>
      <point x="234" y="66" type="line" smooth="yes"/>
      <point x="30" y="66" type="line" smooth="yes"/>
      <point x="22" y="0" type="line" smooth="yes"/>
    </contour>
  </outline>
</glyph>
<glyph name="two" format="1">
  <advance width="598"/>
  <unicode hex="0032"/>
  <outline>
    <contour>
      <point x="201" y="66" type="line" smooth="yes"/>
      <point x="125" y="65" type="line" smooth="yes"/>
      <point x="455" y="369" type="line" smooth="yes"/>
      <point x="537" y="462" type="line" smooth="yes"/>
      <point x="570" y="569" type="line" smooth="yes"/>
      <point x="571" y="577" type="line" smooth="yes"/>
      <point x="521" y="730" type="line" smooth="yes"/>
      <point x="342" y="791" type="line" smooth="yes"/>
      <point x="155" y="725" type="line" smooth="yes"/>
      <point x="78" y="542" type="line" smooth="yes"/>
      <point x="75" y="520" type="line" smooth="yes"/>
      <point x="146" y="520" type="line" smooth="yes"/>
      <point x="206" y="678" type="line" smooth="yes"/>
      <point x="336" y="727" type="line" smooth="yes"/>
      <point x="343" y="727" type="line" smooth="yes"/>
      <point x="463" y="685" type="line" smooth="yes"/>
      <point x="498" y="570" type="line" smooth="yes"/>
      <point x="497" y="562" type="line" smooth="yes"/>
      <point x="467" y="481" type="line" smooth="yes"/>
      <point x="396" y="403" type="line" smooth="yes"/>
      <point x="13" y="49" type="line" smooth="yes"/>
      <point x="7" y="0" type="line" smooth="yes"/>
      <point x="495" y="0" type="line" smooth="yes"/>
      <point x="504" y="66" type="line" smooth="yes"/>
    </contour>
  </outline>
</glyph>
<glyph name="three" format="1">
  <advance width="598"/>
  <unicode hex="0033"/>
  <outline>
    <contour>
      <point x="105" y="250" type="line" smooth="yes"/>
      <point x="34" y="250" type="line" smooth="yes"/>
      <point x="32" y="236" type="line" smooth="yes"/>
      <point x="74" y="58" type="line" smooth="yes"/>
      <point x="266" y="-11" type="line" smooth="yes"/>
      <point x="443" y="49" type="line" smooth="yes"/>
      <point x="526" y="202" type="line" smooth="yes"/>
      <point x="527" y="210" type="line" smooth="yes"/>
      <point x="506" y="332" type="line" smooth="yes"/>
      <point x="418" y="397" type="line" smooth="yes"/>
      <point x="519" y="457" type="line" smooth="yes"/>
      <point x="570" y="571" type="line" smooth="yes"/>
      <point x="571" y="579" type="line" smooth="yes"/>
      <point x="522" y="731" type="line" smooth="yes"/>
      <point x="342" y="791" type="line" smooth="yes"/>
      <point x="155" y="725" type="line" smooth="yes"/>
      <point x="78" y="542" type="line" smooth="yes"/>
      <point x="75" y="520" type="line" smooth="yes"/>
      <point x="146" y="520" type="line" smooth="yes"/>
      <point x="205" y="678" type="line" smooth="yes"/>
      <point x="336" y="727" type="line" smooth="yes"/>
      <point x="343" y="727" type="line" smooth="yes"/>
      <point x="463" y="687" type="line" smooth="yes"/>
      <point x="498" y="577" type="line" smooth="yes"/>
      <point x="497" y="569" type="line" smooth="yes"/>
      <point x="438" y="462" type="line" smooth="yes"/>
      <point x="316" y="430" type="line" smooth="yes"/>
      <point x="207" y="430" type="line" smooth="yes"/>
      <point x="198" y="366" type="line" smooth="yes"/>
      <point x="312" y="366" type="line" smooth="yes"/>
      <point x="424" y="328" type="line" smooth="yes"/>
      <point x="454" y="214" type="line" smooth="yes"/>
      <point x="453" y="206" type="line" smooth="yes"/>
      <point x="389" y="91" type="line" smooth="yes"/>
      <point x="268" y="53" type="line" smooth="yes"/>
      <point x="262" y="53" type="line" smooth="yes"/>
      <point x="132" y="101" type="line" smooth="yes"/>
    </contour>
  </outline>
</glyph>
<glyph name="five" format="1">
  <advance width="600"/>
  <unicode hex="0035"/>
  <outline>
    <contour>
      <point x="34" y="250" type="line" smooth="yes"/>
      <point x="32" y="236" type="line" smooth="yes"/>
      <point x="74" y="58" type="line" smooth="yes"/>
      <point x="266" y="-11" type="line" smooth="yes"/>
      <point x="444" y="52" type="line" smooth="yes"/>
      <point x="531" y="234" type="line" smooth="yes"/>
      <point x="532" y="242" type="line" smooth="yes"/>
      <point x="482" y="428" type="line" smooth="yes"/>
      <point x="311" y="494" type="line" smooth="yes"/>
      <point x="205" y="476" type="line" smooth="yes"/>
      <point x="133" y="428" type="line" smooth="yes"/>
      <point x="183" y="714" type="line" smooth="yes"/>
      <point x="584" y="714" type="line" smooth="yes"/>
      <point x="592" y="780" type="line" smooth="yes"/>
      <point x="129" y="780" type="line" smooth="yes"/>
      <point x="53" y="347" type="line" smooth="yes"/>
      <point x="111" y="328" type="line" smooth="yes"/>
      <point x="190" y="406" type="line" smooth="yes"/>
      <point x="295" y="430" type="line" smooth="yes"/>
      <point x="304" y="430" type="line" smooth="yes"/>
      <point x="424" y="383" type="line" smooth="yes"/>
      <point x="460" y="242" type="line" smooth="yes"/>
      <point x="459" y="234" type="line" smooth="yes"/>
      <point x="393" y="96" type="line" smooth="yes"/>
      <point x="268" y="53" type="line" smooth="yes"/>
      <point x="262" y="53" type="line" smooth="yes"/>
      <point x="132" y="101" type="line" smooth="yes"/>
      <point x="105" y="250" type="line" smooth="yes"/>
    </contour>
  </outline>
</glyph>
<glyph name="six" format="1">
  <advance width="600"/>
  <unicode hex="0036"/>
  <outline>
    <contour>
      <point x="312" y="425" type="line" smooth="yes"/>
      <point x="431" y="377" type="line" smooth="yes"/>
      <point x="463" y="241" type="line" smooth="yes"/>
      <point x="462" y="233" type="line" smooth="yes"/>
      <point x="402" y="101" type="line" smooth="yes"/>
      <point x="273" y="55" type="line" smooth="yes"/>
      <point x="267" y="55" type="line" smooth="yes"/>
      <point x="146" y="105" type="line" smooth="yes"/>
      <point x="112" y="266" type="line" smooth="yes"/>
      <point x="118" y="305" type="line" smooth="yes"/>
      <point x="121" y="319" type="line" smooth="yes"/>
      <point x="199" y="396" type="line" smooth="yes"/>
      <point x="307" y="425" type="line" smooth="yes"/>
    </contour>
    <contour>
      <point x="572" y="791" type="line" smooth="yes"/>
      <point x="383" y="756" type="line" smooth="yes"/>
      <point x="202" y="640" type="line" smooth="yes"/>
      <point x="91" y="470" type="line" smooth="yes"/>
      <point x="43" y="289" type="line" smooth="yes"/>
      <point x="41" y="275" type="line" smooth="yes"/>
      <point x="87" y="65" type="line" smooth="yes"/>
      <point x="269" y="-11" type="line" smooth="yes"/>
      <point x="448" y="51" type="line" smooth="yes"/>
      <point x="535" y="235" type="line" smooth="yes"/>
      <point x="536" y="243" type="line" smooth="yes"/>
      <point x="490" y="428" type="line" smooth="yes"/>
      <point x="320" y="490" type="line" smooth="yes"/>
      <point x="218" y="466" type="line" smooth="yes"/>
      <point x="139" y="408" type="line" smooth="yes"/>
      <point x="181" y="505" type="line" smooth="yes"/>
      <point x="254" y="597" type="line" smooth="yes"/>
      <point x="407" y="692" type="line" smooth="yes"/>
      <point x="563" y="725" type="line" smooth="yes"/>
    </contour>
  </outline>
</glyph>
<glyph name="eight" format="1">
  <advance width="598"/>
  <unicode hex="0038"/>
  <outline>
    <contour>
      <point x="343" y="727" type="line" smooth="yes"/>
      <point x="462" y="687" type="line" smooth="yes"/>
      <point x="498" y="577" type="line" smooth="yes"/>
      <point x="497" y="569" type="line" smooth="yes"/>
      <point x="438" y="462" type="line" smooth="yes"/>
      <point x="316" y="430" type="line" smooth="yes"/>
      <point x="296" y="430" type="line" smooth="yes"/>
      <point x="187" y="467" type="line" smooth="yes"/>
      <point x="154" y="573" type="line" smooth="yes"/>
      <point x="155" y="581" type="line" smooth="yes"/>
      <point x="212" y="690" type="line" smooth="yes"/>
      <point x="336" y="727" type="line" smooth="yes"/>
    </contour>
    <contour>
      <point x="311" y="366" type="line" smooth="yes"/>
      <point x="423" y="328" type="line" smooth="yes"/>
      <point x="454" y="214" type="line" smooth="yes"/>
      <point x="453" y="206" type="line" smooth="yes"/>
      <point x="394" y="91" type="line" smooth="yes"/>
      <point x="268" y="53" type="line" smooth="yes"/>
      <point x="262" y="53" type="line" smooth="yes"/>
      <point x="142" y="91" type="line" smooth="yes"/>
      <point x="103" y="207" type="line" smooth="yes"/>
      <point x="104" y="215" type="line" smooth="yes"/>
      <point x="164" y="328" type="line" smooth="yes"/>
      <point x="289" y="366" type="line" smooth="yes"/>
    </contour>
    <contour>
      <point x="262" y="-11" type="line" smooth="yes"/>
      <point x="442" y="49" type="line" smooth="yes"/>
      <point x="526" y="202" type="line" smooth="yes"/>
      <point x="527" y="210" type="line" smooth="yes"/>
      <point x="506" y="332" type="line" smooth="yes"/>
      <point x="418" y="397" type="line" smooth="yes"/>
      <point x="519" y="457" type="line" smooth="yes"/>
      <point x="570" y="571" type="line" smooth="yes"/>
      <point x="571" y="579" type="line" smooth="yes"/>
      <point x="521" y="731" type="line" smooth="yes"/>
      <point x="340" y="791" type="line" smooth="yes"/>
      <point x="158" y="734" type="line" smooth="yes"/>
      <point x="83" y="585" type="line" smooth="yes"/>
      <point x="82" y="577" type="line" smooth="yes"/>
      <point x="107" y="460" type="line" smooth="yes"/>
      <point x="188" y="399" type="line" smooth="yes"/>
      <point x="87" y="339" type="line" smooth="yes"/>
      <point x="31" y="212" type="line" smooth="yes"/>
      <point x="30" y="204" type="line" smooth="yes"/>
      <point x="83" y="49" type="line" smooth="yes"/>
    </contour>
  </outline>
</glyph>
<glyph name="nine" format="1">
  <advance width="596"/>
  <unicode hex="0039"/>
  <outline>
    <contour>
      <point x="292" y="355" type="line" smooth="yes"/>
      <point x="173" y="404" type="line" smooth="yes"/>
      <point x="141" y="539" type="line" smooth="yes"/>
      <point x="142" y="547" type="line" smooth="yes"/>
      <point x="202" y="679" type="line" smooth="yes"/>
      <point x="331" y="725" type="line" smooth="yes"/>
      <point x="337" y="725" type="line" smooth="yes"/>
      <point x="458" y="675" type="line" smooth="yes"/>
      <point x="492" y="514" type="line" smooth="yes"/>
      <point x="486" y="476" type="line" smooth="yes"/>
      <point x="483" y="461" type="line" smooth="yes"/>
      <point x="405" y="384" type="line" smooth="yes"/>
      <point x="297" y="355" type="line" smooth="yes"/>
    </contour>
    <contour>
      <point x="32" y="-11" type="line" smooth="yes"/>
      <point x="221" y="24" type="line" smooth="yes"/>
      <point x="402" y="140" type="line" smooth="yes"/>
      <point x="513" y="310" type="line" smooth="yes"/>
      <point x="561" y="491" type="line" smooth="yes"/>
      <point x="563" y="505" type="line" smooth="yes"/>
      <point x="517" y="715" type="line" smooth="yes"/>
      <point x="335" y="791" type="line" smooth="yes"/>
      <point x="156" y="730" type="line" smooth="yes"/>
      <point x="69" y="545" type="line" smooth="yes"/>
      <point x="68" y="537" type="line" smooth="yes"/>
      <point x="115" y="352" type="line" smooth="yes"/>
      <point x="284" y="290" type="line" smooth="yes"/>
      <point x="386" y="314" type="line" smooth="yes"/>
      <point x="465" y="372" type="line" smooth="yes"/>
      <point x="423" y="275" type="line" smooth="yes"/>
      <point x="350" y="183" type="line" smooth="yes"/>
      <point x="197" y="88" type="line" smooth="yes"/>
      <point x="41" y="55" type="line" smooth="yes"/>
    </contour>
  </outline>
</glyph>
<glyph name="semicolon" format="1">
  <advance width="217"/>
  <unicode hex="003B"/>
  <outline>
    <contour>
      <point x="161" y="435" type="line" smooth="yes"/>
      <point x="71" y="435" type="line" smooth="yes"/>
      <point x="59" y="345" type="line" smooth="yes"/>
      <point x="149" y="345" type="line" smooth="yes"/>
    </contour>
    <contour>
      <point x="116" y="90" type="line" smooth="yes"/>
      <point x="26" y="90" type="line" smooth="yes"/>
      <point x="14" y="0" type="line" smooth="yes"/>
      <point x="59" y="0" type="line" smooth="yes"/>
      <point x="31" y="-59" type="line" smooth="yes"/>
      <point x="-18" y="-76" type="line" smooth="yes"/>
      <point x="-24" y="-119" type="line" smooth="yes"/>
      <point x="64" y="-85" type="line" smooth="yes"/>
      <point x="106" y="15" type="line" smooth="yes"/>
    </contour>
  </outline>
</glyph>
<glyph name="less" format="1">
  <advance width="600"/>
  <unicode hex="003C"/>
  <outline>
    <contour>
      <point x="53" y="425" type="line" smooth="yes"/>
      <point x="44" y="355" type="line" smooth="yes"/>
      <point x="518" y="120" type="line" smooth="yes"/>
      <point x="527" y="188" type="line" smooth="yes"/>
      <point x="122" y="387" type="line" smooth="yes"/>
      <point x="579" y="585" type="line" smooth="yes"/>
      <point x="589" y="660" type="line" smooth="yes"/>
    </contour>
  </outline>
</glyph>
<glyph name="question" format="1">
  <advance width="455"/>
  <unicode hex="003F"/>
  <outline>
    <contour>
      <point x="234" y="90" type="line" smooth="yes"/>
      <point x="144" y="90" type="line" smooth="yes"/>
      <point x="132" y="0" type="line" smooth="yes"/>
      <point x="222" y="0" type="line" smooth="yes"/>
    </contour>
    <contour>
      <point x="273" y="726" type="line" smooth="yes"/>
      <point x="358" y="697" type="line" smooth="yes"/>
      <point x="383" y="613" type="line" smooth="yes"/>
      <point x="287" y="413" type="line" smooth="yes"/>
      <point x="179" y="189" type="line" smooth="yes"/>
      <point x="226" y="189" type="line" smooth="yes"/>
      <point x="355" y="399" type="line" smooth="yes"/>
      <point x="457" y="618" type="line" smooth="yes"/>
      <point x="415" y="745" type="line" smooth="yes"/>
      <point x="275" y="791" type="line" smooth="yes"/>
      <point x="111" y="718" type="line" smooth="yes"/>
      <point x="45" y="518" type="line" smooth="yes"/>
      <point x="43" y="504" type="line" smooth="yes"/>
      <point x="114" y="504" type="line" smooth="yes"/>
      <point x="161" y="666" type="line" smooth="yes"/>
    </contour>
  </outline>
</glyph>
<glyph name="at" format="1">
  <advance width="956"/>
  <unicode hex="0040"/>
  <outline>
    <contour>
      <point x="601" y="401" type="line" smooth="yes"/>
      <point x="573" y="189" type="line" smooth="yes"/>
      <point x="515" y="136" type="line" smooth="yes"/>
      <point x="421" y="109" type="line" smooth="yes"/>
      <point x="326" y="160" type="line" smooth="yes"/>
      <point x="311" y="287" type="line" smooth="yes"/>
      <point x="314" y="309" type="line" smooth="yes"/>
      <point x="364" y="432" type="line" smooth="yes"/>
      <point x="473" y="481" type="line" smooth="yes"/>
      <point x="558" y="454" type="line" smooth="yes"/>
    </contour>
    <contour>
      <point x="435" y="-156" type="line" smooth="yes"/>
      <point x="152" y="-47" type="line" smooth="yes"/>
      <point x="76" y="270" type="line" smooth="yes"/>
      <point x="81" y="310" type="line" smooth="yes"/>
      <point x="233" y="624" type="line" smooth="yes"/>
      <point x="540" y="736" type="line" smooth="yes"/>
      <point x="550" y="736" type="line" smooth="yes"/>
      <point x="794" y="659" type="line" smooth="yes"/>
      <point x="872" y="394" type="line" smooth="yes"/>
      <point x="867" y="354" type="line" smooth="yes"/>
      <point x="785" y="158" type="line" smooth="yes"/>
      <point x="629" y="114" type="line" smooth="yes"/>
      <point x="664" y="380" type="line" smooth="yes"/>
      <point x="689" y="530" type="line" smooth="yes"/>
      <point x="635" y="530" type="line" smooth="yes"/>
      <point x="617" y="457" type="line" smooth="yes"/>
      <point x="566" y="516" type="line" smooth="yes"/>
      <point x="475" y="541" type="line" smooth="yes"/>
      <point x="313" y="470" type="line" smooth="yes"/>
      <point x="245" y="307" type="line" smooth="yes"/>
      <point x="242" y="285" type="line" smooth="yes"/>
      <point x="266" y="121" type="line" smooth="yes"/>
      <point x="412" y="49" type="line" smooth="yes"/>
      <point x="507" y="74" type="line" smooth="yes"/>
      <point x="572" y="132" type="line" smooth="yes"/>
      <point x="573" y="60" type="line" smooth="yes"/>
      <point x="619" y="60" type="line" smooth="yes"/>
      <point x="818" y="117" type="line" smooth="yes"/>
      <point x="924" y="354" type="line" smooth="yes"/>
      <point x="929" y="394" type="line" smooth="yes"/>
      <point x="838" y="695" type="line" smooth="yes"/>
      <point x="545" y="791" type="line" smooth="yes"/>
      <point x="196" y="664" type="line" smooth="yes"/>
      <point x="24" y="310" type="line" smooth="yes"/>
      <point x="19" y="270" type="line" smooth="yes"/>
      <point x="107" y="-84" type="line" smooth="yes"/>
      <point x="440" y="-211" type="line" smooth="yes"/>
      <point x="630" y="-184" type="line" smooth="yes"/>
      <point x="810" y="-93" type="line" smooth="yes"/>
      <point x="779" y="-50" type="line" smooth="yes"/>
      <point x="626" y="-127" type="line" smooth="yes"/>
      <point x="445" y="-156" type="line" smooth="yes"/>
    </contour>
  </outline>
</glyph>
<glyph name="K" format="1">
  <advance width="562"/>
  <unicode hex="004B"/>
  <outline>
    <contour>
      <point x="199" y="780" type="line" smooth="yes"/>
      <point x="127" y="780" type="line" smooth="yes"/>
      <point x="25" y="0" type="line" smooth="yes"/>
      <point x="97" y="0" type="line" smooth="yes"/>
      <point x="128" y="240" type="line" smooth="yes"/>
      <point x="252" y="387" type="line" smooth="yes"/>
      <point x="399" y="0" type="line" smooth="yes"/>
      <point x="479" y="0" type="line" smooth="yes"/>
      <point x="305" y="451" type="line" smooth="yes"/>
      <point x="581" y="780" type="line" smooth="yes"/>
      <point x="492" y="780" type="line" smooth="yes"/>
      <point x="143" y="357" type="line" smooth="yes"/>
    </contour>
  </outline>
</glyph>
<glyph name="L" format="1">
  <advance width="491"/>
  <unicode hex="004C"/>
  <outline>
    <contour>
      <point x="427" y="0" type="line" smooth="yes"/>
      <point x="435" y="65" type="line" smooth="yes"/>
      <point x="105" y="65" type="line" smooth="yes"/>
      <point x="199" y="780" type="line" smooth="yes"/>
      <point x="127" y="780" type="line" smooth="yes"/>
      <point x="25" y="0" type="line" smooth="yes"/>
    </contour>
  </outline>
</glyph>
<glyph name="P" format="1">
  <advance width="569"/>
  <unicode hex="0050"/>
  <outline>
    <contour>
      <point x="147" y="382" type="line" smooth="yes"/>
      <point x="190" y="715" type="line" smooth="yes"/>
      <point x="335" y="715" type="line" smooth="yes"/>
      <point x="439" y="684" type="line" smooth="yes"/>
      <point x="479" y="553" type="line" smooth="yes"/>
      <point x="477" y="538" type="line" smooth="yes"/>
      <point x="405" y="410" type="line" smooth="yes"/>
      <point x="296" y="382" type="line" smooth="yes"/>
    </contour>
    <contour>
      <point x="138" y="317" type="line" smooth="yes"/>
      <point x="285" y="317" type="line" smooth="yes"/>
      <point x="449" y="359" type="line" smooth="yes"/>
      <point x="550" y="534" type="line" smooth="yes"/>
      <point x="553" y="554" type="line" smooth="yes"/>
      <point x="499" y="735" type="line" smooth="yes"/>
      <point x="341" y="780" type="line" smooth="yes"/>
      <point x="127" y="780" type="line" smooth="yes"/>
      <point x="25" y="0" type="line" smooth="yes"/>
      <point x="97" y="0" type="line" smooth="yes"/>
    </contour>
  </outline>
</glyph>
<glyph name="Q" format="1">
  <advance width="641"/>
  <unicode hex="0051"/>
  <outline>
    <contour>
      <point x="278" y="54" type="line" smooth="yes"/>
      <point x="144" y="129" type="line" smooth="yes"/>
      <point x="130" y="370" type="line" smooth="yes"/>
      <point x="135" y="410" type="line" smooth="yes"/>
      <point x="212" y="651" type="line" smooth="yes"/>
      <point x="367" y="726" type="line" smooth="yes"/>
      <point x="374" y="726" type="line" smooth="yes"/>
      <point x="508" y="651" type="line" smooth="yes"/>
      <point x="522" y="410" type="line" smooth="yes"/>
      <point x="517" y="370" type="line" smooth="yes"/>
      <point x="466" y="172" type="line" smooth="yes"/>
      <point x="372" y="72" type="line" smooth="yes"/>
      <point x="333" y="226" type="line" smooth="yes"/>
      <point x="271" y="226" type="line" smooth="yes"/>
      <point x="312" y="55" type="line" smooth="yes"/>
      <point x="299" y="54" type="line" smooth="yes"/>
      <point x="285" y="54" type="line" smooth="yes"/>
    </contour>
    <contour>
      <point x="372" y="791" type="line" smooth="yes"/>
      <point x="163" y="702" type="line" smooth="yes"/>
      <point x="61" y="410" type="line" smooth="yes"/>
      <point x="56" y="370" type="line" smooth="yes"/>
      <point x="89" y="78" type="line" smooth="yes"/>
      <point x="280" y="-11" type="line" smooth="yes"/>
      <point x="304" y="-10" type="line" smooth="yes"/>
      <point x="328" y="-8" type="line" smooth="yes"/>
      <point x="350" y="-100" type="line" smooth="yes"/>
      <point x="416" y="-100" type="line" smooth="yes"/>
      <point x="388" y="6" type="line" smooth="yes"/>
      <point x="521" y="125" type="line" smooth="yes"/>
      <point x="591" y="370" type="line" smooth="yes"/>
      <point x="596" y="410" type="line" smooth="yes"/>
      <point x="564" y="702" type="line" smooth="yes"/>
    </contour>
  </outline>
</glyph>
<glyph name="b" format="1">
  <advance width="532"/>
  <unicode hex="0062"/>
  <outline>
    <contour>
      <point x="105" y="138" type="line" smooth="yes"/>
      <point x="140" y="401" type="line" smooth="yes"/>
      <point x="197" y="455" type="line" smooth="yes"/>
      <point x="282" y="478" type="line" smooth="yes"/>
      <point x="388" y="423" type="line" smooth="yes"/>
      <point x="406" y="273" type="line" smooth="yes"/>
      <point x="403" y="251" type="line" smooth="yes"/>
      <point x="348" y="105" type="line" smooth="yes"/>
      <point x="231" y="52" type="line" smooth="yes"/>
      <point x="148" y="81" type="line" smooth="yes"/>
    </contour>
    <contour>
      <point x="192" y="800" type="line" smooth="yes"/>
      <point x="122" y="800" type="line" smooth="yes"/>
      <point x="37" y="150" type="line" smooth="yes"/>
      <point x="12" y="0" type="line" smooth="yes"/>
      <point x="70" y="0" type="line" smooth="yes"/>
      <point x="89" y="77" type="line" smooth="yes"/>
      <point x="141" y="18" type="line" smooth="yes"/>
      <point x="240" y="-11" type="line" smooth="yes"/>
      <point x="403" y="63" type="line" smooth="yes"/>
      <point x="474" y="253" type="line" smooth="yes"/>
      <point x="477" y="275" type="line" smooth="yes"/>
      <point x="450" y="465" type="line" smooth="yes"/>
      <point x="299" y="541" type="line" smooth="yes"/>
      <point x="211" y="522" type="line" smooth="yes"/>
      <point x="149" y="474" type="line" smooth="yes"/>
    </contour>
  </outline>
</glyph>
<glyph name="d" format="1">
  <advance width="540"/>
  <unicode hex="0064"/>
  <outline>
    <contour>
      <point x="280" y="478" type="line" smooth="yes"/>
      <point x="363" y="449" type="line" smooth="yes"/>
      <point x="406" y="391" type="line" smooth="yes"/>
      <point x="372" y="128" type="line" smooth="yes"/>
      <point x="314" y="75" type="line" smooth="yes"/>
      <point x="229" y="52" type="line" smooth="yes"/>
      <point x="124" y="107" type="line" smooth="yes"/>
      <point x="105" y="257" type="line" smooth="yes"/>
      <point x="108" y="279" type="line" smooth="yes"/>
      <point x="163" y="425" type="line" smooth="yes"/>
    </contour>
    <contour>
      <point x="212" y="-11" type="line" smooth="yes"/>
      <point x="304" y="10" type="line" smooth="yes"/>
      <point x="371" y="67" type="line" smooth="yes"/>
      <point x="371" y="0" type="line" smooth="yes"/>
      <point x="431" y="0" type="line" smooth="yes"/>
      <point x="444" y="144" type="line" smooth="yes"/>
      <point x="530" y="800" type="line" smooth="yes"/>
      <point x="460" y="800" type="line" smooth="yes"/>
      <point x="416" y="465" type="line" smooth="yes"/>
      <point x="368" y="514" type="line" smooth="yes"/>
      <point x="271" y="541" type="line" smooth="yes"/>
      <point x="108" y="467" type="line" smooth="yes"/>
      <point x="37" y="277" type="line" smooth="yes"/>
      <point x="34" y="255" type="line" smooth="yes"/>
      <point x="61" y="65" type="line" smooth="yes"/>
    </contour>
  </outline>
</glyph>
<glyph name="f" format="1">
  <advance width="380"/>
  <unicode hex="0066"/>
  <outline>
    <contour>
      <point x="221" y="650" type="line" smooth="yes"/>
      <point x="257" y="728" type="line" smooth="yes"/>
      <point x="332" y="748" type="line" smooth="yes"/>
      <point x="367" y="745" type="line" smooth="yes"/>
      <point x="392" y="739" type="line" smooth="yes"/>
      <point x="400" y="799" type="line" smooth="yes"/>
      <point x="375" y="807" type="line" smooth="yes"/>
      <point x="328" y="811" type="line" smooth="yes"/>
      <point x="210" y="777" type="line" smooth="yes"/>
      <point x="153" y="664" type="line" smooth="yes"/>
      <point x="135" y="530" type="line" smooth="yes"/>
      <point x="51" y="530" type="line" smooth="yes"/>
      <point x="43" y="467" type="line" smooth="yes"/>
      <point x="127" y="467" type="line" smooth="yes"/>
      <point x="66" y="0" type="line" smooth="yes"/>
      <point x="136" y="0" type="line" smooth="yes"/>
      <point x="197" y="467" type="line" smooth="yes"/>
      <point x="345" y="467" type="line" smooth="yes"/>
      <point x="353" y="530" type="line" smooth="yes"/>
      <point x="205" y="530" type="line" smooth="yes"/>
    </contour>
  </outline>
</glyph>
<glyph name="h" format="1">
  <advance width="525"/>
  <unicode hex="0068"/>
  <outline>
    <contour>
      <point x="191" y="800" type="line" smooth="yes"/>
      <point x="121" y="800" type="line" smooth="yes"/>
      <point x="16" y="0" type="line" smooth="yes"/>
      <point x="86" y="0" type="line" smooth="yes"/>
      <point x="138" y="395" type="line" smooth="yes"/>
      <point x="194" y="449" type="line" smooth="yes"/>
      <point x="290" y="478" type="line" smooth="yes"/>
      <point x="374" y="450" type="line" smooth="yes"/>
      <point x="394" y="361" type="line" smooth="yes"/>
      <point x="346" y="0" type="line" smooth="yes"/>
      <point x="416" y="0" type="line" smooth="yes"/>
      <point x="465" y="371" type="line" smooth="yes"/>
      <point x="438" y="494" type="line" smooth="yes"/>
      <point x="314" y="541" type="line" smooth="yes"/>
      <point x="215" y="519" type="line" smooth="yes"/>
      <point x="147" y="465" type="line" smooth="yes"/>
    </contour>
  </outline>
</glyph>
<glyph name="m" format="1">
  <advance width="803"/>
  <unicode hex="006D"/>
  <outline>
    <contour>
      <point x="696" y="0" type="line" smooth="yes"/>
      <point x="746" y="384" type="line" smooth="yes"/>
      <point x="717" y="501" type="line" smooth="yes"/>
      <point x="607" y="541" type="line" smooth="yes"/>
      <point x="509" y="515" type="line" smooth="yes"/>
      <point x="438" y="453" type="line" smooth="yes"/>
      <point x="395" y="517" type="line" smooth="yes"/>
      <point x="302" y="541" type="line" smooth="yes"/>
      <point x="206" y="517" type="line" smooth="yes"/>
      <point x="140" y="459" type="line" smooth="yes"/>
      <point x="140" y="530" type="line" smooth="yes"/>
      <point x="80" y="530" type="line" smooth="yes"/>
      <point x="67" y="386" type="line" smooth="yes"/>
      <point x="16" y="0" type="line" smooth="yes"/>
      <point x="86" y="0" type="line" smooth="yes"/>
      <point x="138" y="398" type="line" smooth="yes"/>
      <point x="193" y="451" type="line" smooth="yes"/>
      <point x="278" y="478" type="line" smooth="yes"/>
      <point x="352" y="455" type="line" smooth="yes"/>
      <point x="370" y="374" type="line" smooth="yes"/>
      <point x="321" y="0" type="line" smooth="yes"/>
      <point x="391" y="0" type="line" smooth="yes"/>
      <point x="443" y="398" type="line" smooth="yes"/>
      <point x="498" y="451" type="line" smooth="yes"/>
      <point x="583" y="478" type="line" smooth="yes"/>
      <point x="657" y="455" type="line" smooth="yes"/>
      <point x="675" y="374" type="line" smooth="yes"/>
      <point x="626" y="0" type="line" smooth="yes"/>
    </contour>
  </outline>
</glyph>
<glyph name="n" format="1">
  <advance width="525"/>
  <unicode hex="006E"/>
  <outline>
    <contour>
      <point x="416" y="0" type="line" smooth="yes"/>
      <point x="465" y="371" type="line" smooth="yes"/>
      <point x="438" y="494" type="line" smooth="yes"/>
      <point x="314" y="541" type="line" smooth="yes"/>
      <point x="212" y="518" type="line" smooth="yes"/>
      <point x="140" y="456" type="line" smooth="yes"/>
      <point x="140" y="530" type="line" smooth="yes"/>
      <point x="80" y="530" type="line" smooth="yes"/>
      <point x="67" y="386" type="line" smooth="yes"/>
      <point x="16" y="0" type="line" smooth="yes"/>
      <point x="86" y="0" type="line" smooth="yes"/>
      <point x="138" y="395" type="line" smooth="yes"/>
      <point x="194" y="449" type="line" smooth="yes"/>
      <point x="290" y="478" type="line" smooth="yes"/>
      <point x="374" y="450" type="line" smooth="yes"/>
      <point x="394" y="361" type="line" smooth="yes"/>
      <point x="346" y="0" type="line" smooth="yes"/>
    </contour>
  </outline>
</glyph>
<glyph name="o" format="1">
  <advance width="540"/>
  <unicode hex="006F"/>
  <outline>
    <contour>
      <point x="232" y="-11" type="line" smooth="yes"/>
      <point x="404" y="64" type="line" smooth="yes"/>
      <point x="479" y="253" type="line" smooth="yes"/>
      <point x="482" y="275" type="line" smooth="yes"/>
      <point x="450" y="464" type="line" smooth="yes"/>
      <point x="283" y="541" type="line" smooth="yes"/>
      <point x="112" y="466" type="line" smooth="yes"/>
      <point x="37" y="277" type="line" smooth="yes"/>
      <point x="34" y="255" type="line" smooth="yes"/>
      <point x="66" y="66" type="line" smooth="yes"/>
    </contour>
    <contour>
      <point x="232" y="52" type="line" smooth="yes"/>
      <point x="123" y="107" type="line" smooth="yes"/>
      <point x="105" y="257" type="line" smooth="yes"/>
      <point x="108" y="279" type="line" smooth="yes"/>
      <point x="165" y="425" type="line" smooth="yes"/>
      <point x="283" y="478" type="line" smooth="yes"/>
      <point x="393" y="423" type="line" smooth="yes"/>
      <point x="411" y="273" type="line" smooth="yes"/>
      <point x="408" y="251" type="line" smooth="yes"/>
      <point x="351" y="105" type="line" smooth="yes"/>
    </contour>
  </outline>
</glyph>
<glyph name="q" format="1">
  <advance width="539"/>
  <unicode hex="0071"/>
  <outline>
    <contour>
      <point x="370" y="129" type="line" smooth="yes"/>
      <point x="313" y="75" type="line" smooth="yes"/>
      <point x="228" y="52" type="line" smooth="yes"/>
      <point x="122" y="107" type="line" smooth="yes"/>
      <point x="104" y="257" type="line" smooth="yes"/>
      <point x="107" y="279" type="line" smooth="yes"/>
      <point x="162" y="425" type="line" smooth="yes"/>
      <point x="279" y="478" type="line" smooth="yes"/>
      <point x="362" y="449" type="line" smooth="yes"/>
      <point x="405" y="392" type="line" smooth="yes"/>
    </contour>
    <contour>
      <point x="327" y="-200" type="line" smooth="yes"/>
      <point x="397" y="-200" type="line" smooth="yes"/>
      <point x="473" y="380" type="line" smooth="yes"/>
      <point x="498" y="530" type="line" smooth="yes"/>
      <point x="440" y="530" type="line" smooth="yes"/>
      <point x="421" y="453" type="line" smooth="yes"/>
      <point x="369" y="512" type="line" smooth="yes"/>
      <point x="270" y="541" type="line" smooth="yes"/>
      <point x="107" y="467" type="line" smooth="yes"/>
      <point x="36" y="277" type="line" smooth="yes"/>
      <point x="33" y="255" type="line" smooth="yes"/>
      <point x="60" y="65" type="line" smooth="yes"/>
      <point x="211" y="-11" type="line" smooth="yes"/>
      <point x="299" y="8" type="line" smooth="yes"/>
      <point x="361" y="56" type="line" smooth="yes"/>
    </contour>
  </outline>
</glyph>
<glyph name="s" format="1">
  <advance width="519"/>
  <unicode hex="0073"/>
  <outline>
    <contour>
      <point x="222" y="52" type="line" smooth="yes"/>
      <point x="118" y="82" type="line" smooth="yes"/>
      <point x="99" y="162" type="line" smooth="yes"/>
      <point x="30" y="162" type="line" smooth="yes"/>
      <point x="28" y="149" type="line" smooth="yes"/>
      <point x="61" y="37" type="line" smooth="yes"/>
      <point x="222" y="-11" type="line" smooth="yes"/>
      <point x="371" y="30" type="line" smooth="yes"/>
      <point x="432" y="135" type="line" smooth="yes"/>
      <point x="433" y="143" type="line" smooth="yes"/>
      <point x="399" y="251" type="line" smooth="yes"/>
      <point x="266" y="299" type="line" smooth="yes"/>
      <point x="164" y="325" type="line" smooth="yes"/>
      <point x="135" y="378" type="line" smooth="yes"/>
      <point x="171" y="455" type="line" smooth="yes"/>
      <point x="270" y="478" type="line" smooth="yes"/>
      <point x="370" y="447" type="line" smooth="yes"/>
      <point x="388" y="359" type="line" smooth="yes"/>
      <point x="456" y="359" type="line" smooth="yes"/>
      <point x="458" y="372" type="line" smooth="yes"/>
      <point x="426" y="493" type="line" smooth="yes"/>
      <point x="270" y="541" type="line" smooth="yes"/>
      <point x="127" y="504" type="line" smooth="yes"/>
      <point x="66" y="401" type="line" smooth="yes"/>
      <point x="65" y="393" type="line" smooth="yes"/>
      <point x="96" y="294" type="line" smooth="yes"/>
      <point x="234" y="243" type="line" smooth="yes"/>
      <point x="332" y="216" type="line" smooth="yes"/>
      <point x="363" y="158" type="line" smooth="yes"/>
      <point x="328" y="78" type="line" smooth="yes"/>
    </contour>
  </outline>
</glyph>
<glyph name="x" format="1">
  <advance width="485"/>
  <unicode hex="0078"/>
  <outline>
    <contour>
      <point x="43" y="530" type="line" smooth="yes"/>
      <point x="186" y="267" type="line" smooth="yes"/>
      <point x="-26" y="0" type="line" smooth="yes"/>
      <point x="59" y="0" type="line" smooth="yes"/>
      <point x="222" y="210" type="line" smooth="yes"/>
      <point x="332" y="0" type="line" smooth="yes"/>
      <point x="413" y="0" type="line" smooth="yes"/>
      <point x="269" y="264" type="line" smooth="yes"/>
      <point x="482" y="530" type="line" smooth="yes"/>
      <point x="397" y="530" type="line" smooth="yes"/>
      <point x="234" y="320" type="line" smooth="yes"/>
      <point x="124" y="530" type="line" smooth="yes"/>
    </contour>
  </outline>
</glyph>
<glyph name="braceleft" format="1">
  <advance width="317"/>
  <unicode hex="007B"/>
  <outline>
    <contour>
      <point x="336" y="840" type="line" smooth="yes"/>
      <point x="318" y="840" type="line" smooth="yes"/>
      <point x="213" y="812" type="line" smooth="yes"/>
      <point x="153" y="702" type="line" smooth="yes"/>
      <point x="124" y="481" type="line" smooth="yes"/>
      <point x="93" y="410" type="line" smooth="yes"/>
      <point x="26" y="393" type="line" smooth="yes"/>
      <point x="18" y="327" type="line" smooth="yes"/>
      <point x="81" y="310" type="line" smooth="yes"/>
      <point x="92" y="239" type="line" smooth="yes"/>
      <point x="64" y="24" type="line" smooth="yes"/>
      <point x="95" y="-89" type="line" smooth="yes"/>
      <point x="192" y="-120" type="line" smooth="yes"/>
      <point x="210" y="-120" type="line" smooth="yes"/>
      <point x="218" y="-55" type="line" smooth="yes"/>
      <point x="148" y="-35" type="line" smooth="yes"/>
      <point x="138" y="50" type="line" smooth="yes"/>
      <point x="165" y="257" type="line" smooth="yes"/>
      <point x="158" y="324" type="line" smooth="yes"/>
      <point x="116" y="360" type="line" smooth="yes"/>
      <point x="167" y="396" type="line" smooth="yes"/>
      <point x="192" y="462" type="line" smooth="yes"/>
      <point x="219" y="669" type="line" smooth="yes"/>
      <point x="253" y="754" type="line" smooth="yes"/>
      <point x="328" y="775" type="line" smooth="yes"/>
    </contour>
  </outline>
</glyph>
<glyph name="braceright" format="1">
  <advance width="317"/>
  <unicode hex="007D"/>
  <outline>
    <contour>
      <point x="-23" y="-120" type="line" smooth="yes"/>
      <point x="-5" y="-120" type="line" smooth="yes"/>
      <point x="100" y="-92" type="line" smooth="yes"/>
      <point x="160" y="18" type="line" smooth="yes"/>
      <point x="189" y="239" type="line" smooth="yes"/>
      <point x="220" y="310" type="line" smooth="yes"/>
      <point x="287" y="327" type="line" smooth="yes"/>
      <point x="295" y="393" type="line" smooth="yes"/>
      <point x="233" y="410" type="line" smooth="yes"/>
      <point x="221" y="481" type="line" smooth="yes"/>
      <point x="249" y="696" type="line" smooth="yes"/>
      <point x="218" y="809" type="line" smooth="yes"/>
      <point x="121" y="840" type="line" smooth="yes"/>
      <point x="103" y="840" type="line" smooth="yes"/>
      <point x="95" y="775" type="line" smooth="yes"/>
      <point x="165" y="755" type="line" smooth="yes"/>
      <point x="175" y="670" type="line" smooth="yes"/>
      <point x="148" y="463" type="line" smooth="yes"/>
      <point x="155" y="397" type="line" smooth="yes"/>
      <point x="197" y="360" type="line" smooth="yes"/>
      <point x="146" y="324" type="line" smooth="yes"/>
      <point x="121" y="258" type="line" smooth="yes"/>
      <point x="94" y="51" type="line" smooth="yes"/>
      <point x="60" y="-34" type="line" smooth="yes"/>
      <point x="-15" y="-55" type="line" smooth="yes"/>
    </contour>
  </outline>
</glyph>
<glyph name="asciitilde" format="1">
  <advance width="600"/>
  <unicode hex="007E"/>
  <outline>
    <contour>
      <point x="180" y="451" type="line" smooth="yes"/>
      <point x="92" y="427" type="line" smooth="yes"/>
      <point x="36" y="375" type="line" smooth="yes"/>
      <point x="74" y="335" type="line" smooth="yes"/>
      <point x="116" y="374" type="line" smooth="yes"/>
      <point x="180" y="391" type="line" smooth="yes"/>
      <point x="294" y="356" type="line" smooth="yes"/>
      <point x="422" y="320" type="line" smooth="yes"/>
      <point x="511" y="344" type="line" smooth="yes"/>
      <point x="566" y="396" type="line" smooth="yes"/>
      <point x="528" y="436" type="line" smooth="yes"/>
      <point x="486" y="398" type="line" smooth="yes"/>
      <point x="422" y="380" type="line" smooth="yes"/>
      <point x="308" y="416" type="line" smooth="yes"/>
    </contour>
  </outline>
</glyph>
<glyph name="sterling" format="1">
  <advance width="595"/>
  <unicode hex="00A3"/>
  <outline>
    <contour>
      <point x="366" y="726" type="line" smooth="yes"/>
      <point x="483" y="662" type="line" smooth="yes"/>
      <point x="494" y="500" type="line" smooth="yes"/>
      <point x="564" y="500" type="line" smooth="yes"/>
      <point x="568" y="529" type="line" smooth="yes"/>
      <point x="539" y="718" type="line" smooth="yes"/>
      <point x="366" y="791" type="line" smooth="yes"/>
      <point x="189" y="713" type="line" smooth="yes"/>
      <point x="137" y="517" type="line" smooth="yes"/>
      <point x="138" y="457" type="line" smooth="yes"/>
      <point x="141" y="416" type="line" smooth="yes"/>
      <point x="61" y="416" type="line" smooth="yes"/>
      <point x="52" y="351" type="line" smooth="yes"/>
      <point x="152" y="351" type="line" smooth="yes"/>
      <point x="173" y="213" type="line" smooth="yes"/>
      <point x="180" y="66" type="line" smooth="yes"/>
      <point x="15" y="66" type="line" smooth="yes"/>
      <point x="7" y="0" type="line" smooth="yes"/>
      <point x="495" y="0" type="line" smooth="yes"/>
      <point x="504" y="66" type="line" smooth="yes"/>
      <point x="244" y="66" type="line" smooth="yes"/>
      <point x="242" y="211" type="line" smooth="yes"/>
      <point x="226" y="351" type="line" smooth="yes"/>
      <point x="409" y="351" type="line" smooth="yes"/>
      <point x="418" y="416" type="line" smooth="yes"/>
      <point x="218" y="416" type="line" smooth="yes"/>
      <point x="213" y="465" type="line" smooth="yes"/>
      <point x="211" y="509" type="line" smooth="yes"/>
      <point x="246" y="667" type="line" smooth="yes"/>
    </contour>
  </outline>
</glyph>
<glyph name="section" format="1">
  <advance width="510"/>
  <unicode hex="00A7"/>
  <outline>
    <contour>
      <point x="345" y="259" type="line" smooth="yes"/>
      <point x="437" y="306" type="line" smooth="yes"/>
      <point x="472" y="383" type="line" smooth="yes"/>
      <point x="473" y="391" type="line" smooth="yes"/>
      <point x="440" y="500" type="line" smooth="yes"/>
      <point x="307" y="549" type="line" smooth="yes"/>
      <point x="205" y="575" type="line" smooth="yes"/>
      <point x="176" y="628" type="line" smooth="yes"/>
      <point x="211" y="705" type="line" smooth="yes"/>
      <point x="311" y="728" type="line" smooth="yes"/>
      <point x="411" y="697" type="line" smooth="yes"/>
      <point x="429" y="609" type="line" smooth="yes"/>
      <point x="497" y="609" type="line" smooth="yes"/>
      <point x="499" y="622" type="line" smooth="yes"/>
      <point x="467" y="743" type="line" smooth="yes"/>
      <point x="311" y="791" type="line" smooth="yes"/>
      <point x="166" y="754" type="line" smooth="yes"/>
      <point x="107" y="651" type="line" smooth="yes"/>
      <point x="106" y="643" type="line" smooth="yes"/>
      <point x="120" y="563" type="line" smooth="yes"/>
      <point x="172" y="521" type="line" smooth="yes"/>
      <point x="80" y="474" type="line" smooth="yes"/>
      <point x="45" y="397" type="line" smooth="yes"/>
      <point x="44" y="389" type="line" smooth="yes"/>
      <point x="78" y="280" type="line" smooth="yes"/>
      <point x="210" y="231" type="line" smooth="yes"/>
      <point x="312" y="205" type="line" smooth="yes"/>
      <point x="341" y="152" type="line" smooth="yes"/>
      <point x="306" y="75" type="line" smooth="yes"/>
      <point x="206" y="52" type="line" smooth="yes"/>
      <point x="106" y="83" type="line" smooth="yes"/>
      <point x="88" y="171" type="line" smooth="yes"/>
      <point x="20" y="171" type="line" smooth="yes"/>
      <point x="18" y="158" type="line" smooth="yes"/>
      <point x="50" y="37" type="line" smooth="yes"/>
      <point x="206" y="-11" type="line" smooth="yes"/>
      <point x="351" y="26" type="line" smooth="yes"/>
      <point x="410" y="129" type="line" smooth="yes"/>
      <point x="411" y="137" type="line" smooth="yes"/>
      <point x="397" y="217" type="line" smooth="yes"/>
    </contour>
    <contour>
      <point x="243" y="289" type="line" smooth="yes"/>
      <point x="151" y="308" type="line" smooth="yes"/>
      <point x="113" y="372" type="line" smooth="yes"/>
      <point x="152" y="457" type="line" smooth="yes"/>
      <point x="263" y="491" type="line" smooth="yes"/>
      <point x="274" y="491" type="line" smooth="yes"/>
      <point x="366" y="472" type="line" smooth="yes"/>
      <point x="404" y="408" type="line" smooth="yes"/>
      <point x="365" y="323" type="line" smooth="yes"/>
      <point x="254" y="289" type="line" smooth="yes"/>
    </contour>
  </outline>
</glyph>
<glyph name="ordfeminine" format="1">
  <advance width="387"/>
  <unicode hex="00AA"/>
  <outline>
    <contour>
      <point x="330" y="212" type="line" smooth="yes"/>
      <point x="338" y="269" type="line" smooth="yes"/>
      <point x="33" y="269" type="line" smooth="yes"/>
      <point x="25" y="212" type="line" smooth="yes"/>
    </contour>
    <contour>
      <point x="180" y="433" type="line" smooth="yes"/>
      <point x="127" y="448" type="line" smooth="yes"/>
      <point x="116" y="491" type="line" smooth="yes"/>
      <point x="118" y="504" type="line" smooth="yes"/>
      <point x="145" y="552" type="line" smooth="yes"/>
      <point x="204" y="575" type="line" smooth="yes"/>
      <point x="312" y="592" type="line" smooth="yes"/>
      <point x="299" y="488" type="line" smooth="yes"/>
      <point x="253" y="453" type="line" smooth="yes"/>
    </contour>
    <contour>
      <point x="300" y="388" type="line" smooth="yes"/>
      <point x="353" y="388" type="line" smooth="yes"/>
      <point x="363" y="499" type="line" smooth="yes"/>
      <point x="382" y="640" type="line" smooth="yes"/>
      <point x="363" y="749" type="line" smooth="yes"/>
      <point x="244" y="791" type="line" smooth="yes"/>
      <point x="130" y="751" type="line" smooth="yes"/>
      <point x="91" y="665" type="line" smooth="yes"/>
      <point x="89" y="652" type="line" smooth="yes"/>
      <point x="150" y="652" type="line" smooth="yes"/>
      <point x="174" y="713" type="line" smooth="yes"/>
      <point x="244" y="739" type="line" smooth="yes"/>
      <point x="310" y="715" type="line" smooth="yes"/>
      <point x="320" y="648" type="line" smooth="yes"/>
      <point x="318" y="635" type="line" smooth="yes"/>
      <point x="202" y="618" type="line" smooth="yes"/>
      <point x="103" y="586" type="line" smooth="yes"/>
      <point x="56" y="506" type="line" smooth="yes"/>
      <point x="54" y="493" type="line" smooth="yes"/>
      <point x="73" y="412" type="line" smooth="yes"/>
      <point x="163" y="379" type="line" smooth="yes"/>
      <point x="245" y="398" type="line" smooth="yes"/>
      <point x="300" y="441" type="line" smooth="yes"/>
    </contour>
  </outline>
</glyph>
<glyph name="registered" format="1">
  <advance width="330"/>
  <unicode hex="00AE"/>
  <outline>
    <contour>
      <point x="194" y="698" type="line" smooth="yes"/>
      <point x="194" y="695" type="line" smooth="yes"/>
      <point x="187" y="677" type="line" smooth="yes"/>
      <point x="166" y="671" type="line" smooth="yes"/>
      <point x="136" y="671" type="line" smooth="yes"/>
      <point x="136" y="721" type="line" smooth="yes"/>
      <point x="166" y="721" type="line" smooth="yes"/>
      <point x="187" y="716" type="line" smooth="yes"/>
    </contour>
    <contour>
      <point x="229" y="693" type="line" smooth="yes"/>
      <point x="229" y="700" type="line" smooth="yes"/>
      <point x="213" y="738" type="line" smooth="yes"/>
      <point x="173" y="751" type="line" smooth="yes"/>
      <point x="101" y="751" type="line" smooth="yes"/>
      <point x="101" y="579" type="line" smooth="yes"/>
      <point x="136" y="579" type="line" smooth="yes"/>
      <point x="136" y="642" type="line" smooth="yes"/>
      <point x="166" y="642" type="line" smooth="yes"/>
      <point x="193" y="579" type="line" smooth="yes"/>
      <point x="229" y="579" type="line" smooth="yes"/>
      <point x="199" y="646" type="line" smooth="yes"/>
      <point x="221" y="663" type="line" smooth="yes"/>
    </contour>
    <contour>
      <point x="43" y="665" type="line" smooth="yes"/>
      <point x="79" y="751" type="line" smooth="yes"/>
      <point x="165" y="787" type="line" smooth="yes"/>
      <point x="251" y="751" type="line" smooth="yes"/>
      <point x="287" y="665" type="line" smooth="yes"/>
      <point x="251" y="579" type="line" smooth="yes"/>
      <point x="165" y="543" type="line" smooth="yes"/>
      <point x="79" y="579" type="line" smooth="yes"/>
    </contour>
    <contour>
      <point x="19" y="665" type="line" smooth="yes"/>
      <point x="62" y="562" type="line" smooth="yes"/>
      <point x="165" y="519" type="line" smooth="yes"/>
      <point x="268" y="562" type="line" smooth="yes"/>
      <point x="311" y="665" type="line" smooth="yes"/>
      <point x="268" y="768" type="line" smooth="yes"/>
      <point x="165" y="811" type="line" smooth="yes"/>
      <point x="62" y="768" type="line" smooth="yes"/>
    </contour>
  </outline>
</glyph>
<glyph name="degree" format="1">
  <advance width="398"/>
  <unicode hex="00B0"/>
  <outline>
    <contour>
      <point x="244" y="791" type="line" smooth="yes"/>
      <point x="133" y="753" type="line" smooth="yes"/>
      <point x="81" y="643" type="line" smooth="yes"/>
      <point x="80" y="634" type="line" smooth="yes"/>
      <point x="113" y="523" type="line" smooth="yes"/>
      <point x="224" y="484" type="line" smooth="yes"/>
      <point x="335" y="522" type="line" smooth="yes"/>
      <point x="387" y="632" type="line" smooth="yes"/>
      <point x="388" y="641" type="line" smooth="yes"/>
      <point x="355" y="752" type="line" smooth="yes"/>
    </contour>
    <contour>
      <point x="220" y="538" type="line" smooth="yes"/>
      <point x="152" y="565" type="line" smooth="yes"/>
      <point x="134" y="634" type="line" smooth="yes"/>
      <point x="135" y="643" type="line" smooth="yes"/>
      <point x="169" y="715" type="line" smooth="yes"/>
      <point x="240" y="737" type="line" smooth="yes"/>
      <point x="248" y="737" type="line" smooth="yes"/>
      <point x="316" y="710" type="line" smooth="yes"/>
      <point x="334" y="641" type="line" smooth="yes"/>
      <point x="333" y="632" type="line" smooth="yes"/>
      <point x="299" y="560" type="line" smooth="yes"/>
      <point x="228" y="538" type="line" smooth="yes"/>
    </contour>
  </outline>
</glyph>
<glyph name="twosuperior" format="1">
  <advance width="300"/>
  <unicode hex="00B2"/>
  <outline>
    <contour>
      <point x="284" y="439" type="line" smooth="yes"/>
      <point x="111" y="439" type="line" smooth="yes"/>
      <point x="255" y="572" type="line" smooth="yes"/>
      <point x="294" y="615" type="line" smooth="yes"/>
      <point x="313" y="668" type="line" smooth="yes"/>
      <point x="314" y="676" type="line" smooth="yes"/>
      <point x="292" y="753" type="line" smooth="yes"/>
      <point x="197" y="786" type="line" smooth="yes"/>
      <point x="103" y="755" type="line" smooth="yes"/>
      <point x="64" y="672" type="line" smooth="yes"/>
      <point x="61" y="650" type="line" smooth="yes"/>
      <point x="117" y="650" type="line" smooth="yes"/>
      <point x="143" y="717" type="line" smooth="yes"/>
      <point x="194" y="736" type="line" smooth="yes"/>
      <point x="200" y="736" type="line" smooth="yes"/>
      <point x="245" y="721" type="line" smooth="yes"/>
      <point x="257" y="672" type="line" smooth="yes"/>
      <point x="256" y="664" type="line" smooth="yes"/>
      <point x="244" y="631" type="line" smooth="yes"/>
      <point x="214" y="598" type="line" smooth="yes"/>
      <point x="32" y="430" type="line" smooth="yes"/>
      <point x="27" y="390" type="line" smooth="yes"/>
      <point x="277" y="390" type="line" smooth="yes"/>
    </contour>
  </outline>
</glyph>
<glyph name="acute" format="1">
  <advance width="500"/>
  <unicode hex="00B4"/>
  <outline>
    <contour>
      <point x="357" y="780" type="line" smooth="yes"/>
      <point x="245" y="614" type="line" smooth="yes"/>
      <point x="317" y="614" type="line" smooth="yes"/>
      <point x="433" y="780" type="line" smooth="yes"/>
    </contour>
  </outline>
</glyph>
<glyph name="paragraph" format="1">
  <advance width="513"/>
  <unicode hex="00B6"/>
  <outline>
    <contour>
      <point x="133" y="559" type="line" smooth="yes"/>
      <point x="202" y="685" type="line" smooth="yes"/>
      <point x="306" y="715" type="line" smooth="yes"/>
      <point x="263" y="382" type="line" smooth="yes"/>
      <point x="164" y="416" type="line" smooth="yes"/>
      <point x="131" y="544" type="line" smooth="yes"/>
    </contour>
    <contour>
      <point x="57" y="543" type="line" smooth="yes"/>
      <point x="109" y="365" type="line" smooth="yes"/>
      <point x="254" y="317" type="line" smooth="yes"/>
      <point x="213" y="0" type="line" smooth="yes"/>
      <point x="285" y="0" type="line" smooth="yes"/>
      <point x="378" y="715" type="line" smooth="yes"/>
      <point x="419" y="715" type="line" smooth="yes"/>
      <point x="325" y="0" type="line" smooth="yes"/>
      <point x="397" y="0" type="line" smooth="yes"/>
      <point x="499" y="780" type="line" smooth="yes"/>
      <point x="325" y="780" type="line" smooth="yes"/>
      <point x="160" y="738" type="line" smooth="yes"/>
      <point x="60" y="563" type="line" smooth="yes"/>
    </contour>
  </outline>
</glyph>
<glyph name="cedilla" format="1">
  <advance width="602"/>
  <unicode hex="00B8"/>
  <outline>
    <contour>
      <point x="85" y="-184" type="line" smooth="yes"/>
      <point x="124" y="-203" type="line" smooth="yes"/>
      <point x="177" y="-211" type="line" smooth="yes"/>
      <point x="254" y="-191" type="line" smooth="yes"/>
      <point x="285" y="-127" type="line" smooth="yes"/>
      <point x="258" y="-73" type="line" smooth="yes"/>
      <point x="199" y="-58" type="line" smooth="yes"/>
      <point x="195" y="-58" type="line" smooth="yes"/>
      <point x="226" y="0" type="line" smooth="yes"/>
      <point x="180" y="0" type="line" smooth="yes"/>
      <point x="139" y="-80" type="line" smooth="yes"/>
      <point x="152" y="-99" type="line" smooth="yes"/>
      <point x="162" y="-98" type="line" smooth="yes"/>
      <point x="183" y="-96" type="line" smooth="yes"/>
      <point x="222" y="-103" type="line" smooth="yes"/>
      <point x="238" y="-130" type="line" smooth="yes"/>
      <point x="222" y="-160" type="line" smooth="yes"/>
      <point x="176" y="-169" type="line" smooth="yes"/>
      <point x="135" y="-162" type="line" smooth="yes"/>
      <point x="105" y="-148" type="line" smooth="yes"/>
    </contour>
  </outline>
</glyph>
<glyph name="ordmasculine" format="1">
  <advance width="414"/>
  <unicode hex="00BA"/>
  <outline>
    <contour>
      <point x="66" y="578" type="line" smooth="yes"/>
      <point x="87" y="434" type="line" smooth="yes"/>
      <point x="218" y="379" type="line" smooth="yes"/>
      <point x="343" y="432" type="line" smooth="yes"/>
      <point x="404" y="579" type="line" smooth="yes"/>
      <point x="406" y="592" type="line" smooth="yes"/>
      <point x="385" y="736" type="line" smooth="yes"/>
      <point x="254" y="791" type="line" smooth="yes"/>
      <point x="129" y="738" type="line" smooth="yes"/>
      <point x="68" y="591" type="line" smooth="yes"/>
    </contour>
    <contour>
      <point x="26" y="212" type="line" smooth="yes"/>
      <point x="349" y="212" type="line" smooth="yes"/>
      <point x="357" y="269" type="line" smooth="yes"/>
      <point x="34" y="269" type="line" smooth="yes"/>
    </contour>
    <contour>
      <point x="132" y="591" type="line" smooth="yes"/>
      <point x="172" y="699" type="line" smooth="yes"/>
      <point x="252" y="735" type="line" smooth="yes"/>
      <point x="331" y="697" type="line" smooth="yes"/>
      <point x="342" y="592" type="line" smooth="yes"/>
      <point x="340" y="579" type="line" smooth="yes"/>
      <point x="300" y="471" type="line" smooth="yes"/>
      <point x="220" y="435" type="line" smooth="yes"/>
      <point x="141" y="473" type="line" smooth="yes"/>
      <point x="130" y="578" type="line" smooth="yes"/>
    </contour>
  </outline>
</glyph>
<glyph name="threequarters" format="1">
  <advance width="800"/>
  <unicode hex="00BE"/>
  <outline>
    <contour>
      <point x="666" y="297" type="line" smooth="yes"/>
      <point x="660" y="255" type="line" smooth="yes"/>
      <point x="645" y="144" type="line" smooth="yes"/>
      <point x="584" y="144" type="line" smooth="yes"/>
      <point x="548" y="143" type="line" smooth="yes"/>
    </contour>
    <contour>
      <point x="682" y="0" type="line" smooth="yes"/>
      <point x="694" y="95" type="line" smooth="yes"/>
      <point x="748" y="95" type="line" smooth="yes"/>
      <point x="755" y="144" type="line" smooth="yes"/>
      <point x="701" y="144" type="line" smooth="yes"/>
      <point x="733" y="390" type="line" smooth="yes"/>
      <point x="677" y="390" type="line" smooth="yes"/>
      <point x="482" y="135" type="line" smooth="yes"/>
      <point x="477" y="95" type="line" smooth="yes"/>
      <point x="639" y="95" type="line" smooth="yes"/>
      <point x="626" y="0" type="line" smooth="yes"/>
    </contour>
    <contour>
      <point x="99" y="0" type="line" smooth="yes"/>
      <point x="777" y="780" type="line" smooth="yes"/>
      <point x="707" y="780" type="line" smooth="yes"/>
      <point x="29" y="0" type="line" smooth="yes"/>
    </contour>
    <contour>
      <point x="97" y="515" type="line" smooth="yes"/>
      <point x="40" y="515" type="line" smooth="yes"/>
      <point x="39" y="507" type="line" smooth="yes"/>
      <point x="59" y="416" type="line" smooth="yes"/>
      <point x="157" y="383" type="line" smooth="yes"/>
      <point x="250" y="414" type="line" smooth="yes"/>
      <point x="291" y="491" type="line" smooth="yes"/>
      <point x="292" y="499" type="line" smooth="yes"/>
      <point x="284" y="557" type="line" smooth="yes"/>
      <point x="245" y="589" type="line" smooth="yes"/>
      <point x="291" y="616" type="line" smooth="yes"/>
      <point x="314" y="672" type="line" smooth="yes"/>
      <point x="315" y="680" type="line" smooth="yes"/>
      <point x="291" y="755" type="line" smooth="yes"/>
      <point x="197" y="786" type="line" smooth="yes"/>
      <point x="103" y="755" type="line" smooth="yes"/>
      <point x="64" y="672" type="line" smooth="yes"/>
      <point x="61" y="650" type="line" smooth="yes"/>
      <point x="117" y="650" type="line" smooth="yes"/>
      <point x="143" y="717" type="line" smooth="yes"/>
      <point x="194" y="736" type="line" smooth="yes"/>
      <point x="200" y="736" type="line" smooth="yes"/>
      <point x="245" y="722" type="line" smooth="yes"/>
      <point x="258" y="676" type="line" smooth="yes"/>
      <point x="257" y="668" type="line" smooth="yes"/>
      <point x="235" y="627" type="line" smooth="yes"/>
      <point x="185" y="614" type="line" smooth="yes"/>
      <point x="131" y="614" type="line" smooth="yes"/>
      <point x="125" y="564" type="line" smooth="yes"/>
      <point x="180" y="564" type="line" smooth="yes"/>
      <point x="225" y="548" type="line" smooth="yes"/>
      <point x="236" y="500" type="line" smooth="yes"/>
      <point x="235" y="492" type="line" smooth="yes"/>
      <point x="209" y="446" type="line" smooth="yes"/>
      <point x="161" y="433" type="line" smooth="yes"/>
      <point x="154" y="433" type="line" smooth="yes"/>
      <point x="106" y="451" type="line" smooth="yes"/>
    </contour>
  </outline>
</glyph>
<glyph name="questiondown" format="1">
  <advance width="455"/>
  <unicode hex="00BF"/>
  <outline>
    <contour>
      <point x="193" y="440" type="line" smooth="yes"/>
      <point x="283" y="440" type="line" smooth="yes"/>
      <point x="295" y="530" type="line" smooth="yes"/>
      <point x="205" y="530" type="line" smooth="yes"/>
    </contour>
    <contour>
      <point x="155" y="-146" type="line" smooth="yes"/>
      <point x="72" y="-120" type="line" smooth="yes"/>
      <point x="46" y="-45" type="line" smooth="yes"/>
      <point x="141" y="132" type="line" smooth="yes"/>
      <point x="247" y="341" type="line" smooth="yes"/>
      <point x="201" y="341" type="line" smooth="yes"/>
      <point x="74" y="151" type="line" smooth="yes"/>
      <point x="-27" y="-50" type="line" smooth="yes"/>
      <point x="15" y="-167" type="line" smooth="yes"/>
      <point x="154" y="-211" type="line" smooth="yes"/>
      <point x="316" y="-146" type="line" smooth="yes"/>
      <point x="385" y="46" type="line" smooth="yes"/>
      <point x="387" y="60" type="line" smooth="yes"/>
      <point x="315" y="60" type="line" smooth="yes"/>
      <point x="266" y="-94" type="line" smooth="yes"/>
    </contour>
  </outline>
</glyph>
<glyph name="Agrave" format="1">
  <advance width="611"/>
  <unicode hex="00C0"/>
  <outline>
    <contour>
      <point x="351" y="709" type="line" smooth="yes"/>
      <point x="417" y="265" type="line" smooth="yes"/>
      <point x="168" y="265" type="line" smooth="yes"/>
    </contour>
    <contour>
      <point x="309" y="788" type="line" smooth="yes"/>
      <point x="-20" y="0" type="line" smooth="yes"/>
      <point x="59" y="0" type="line" smooth="yes"/>
      <point x="141" y="200" type="line" smooth="yes"/>
      <point x="427" y="200" type="line" smooth="yes"/>
      <point x="457" y="0" type="line" smooth="yes"/>
      <point x="533" y="0" type="line" smooth="yes"/>
      <point x="411" y="788" type="line" smooth="yes"/>
    </contour>
    <contour>
      <point x="283" y="950" type="line" smooth="yes"/>
      <point x="330" y="840" type="line" smooth="yes"/>
      <point x="402" y="840" type="line" smooth="yes"/>
      <point x="357" y="950" type="line" smooth="yes"/>
    </contour>
  </outline>
</glyph>
<glyph name="Acircumflex" format="1">
  <advance width="611"/>
  <unicode hex="00C2"/>
  <outline>
    <contour>
      <point x="351" y="709" type="line" smooth="yes"/>
      <point x="417" y="265" type="line" smooth="yes"/>
      <point x="168" y="265" type="line" smooth="yes"/>
    </contour>
    <contour>
      <point x="309" y="788" type="line" smooth="yes"/>
      <point x="-20" y="0" type="line" smooth="yes"/>
      <point x="59" y="0" type="line" smooth="yes"/>
      <point x="141" y="200" type="line" smooth="yes"/>
      <point x="427" y="200" type="line" smooth="yes"/>
      <point x="457" y="0" type="line" smooth="yes"/>
      <point x="533" y="0" type="line" smooth="yes"/>
      <point x="411" y="788" type="line" smooth="yes"/>
    </contour>
    <contour>
      <point x="504" y="840" type="line" smooth="yes"/>
      <point x="413" y="950" type="line" smooth="yes"/>
      <point x="349" y="950" type="line" smooth="yes"/>
      <point x="228" y="840" type="line" smooth="yes"/>
      <point x="302" y="840" type="line" smooth="yes"/>
      <point x="380" y="909" type="line" smooth="yes"/>
      <point x="437" y="840" type="line" smooth="yes"/>
    </contour>
  </outline>
</glyph>
<glyph name="Atilde" format="1">
  <advance width="611"/>
  <unicode hex="00C3"/>
  <outline>
    <contour>
      <point x="351" y="709" type="line" smooth="yes"/>
      <point x="417" y="265" type="line" smooth="yes"/>
      <point x="168" y="265" type="line" smooth="yes"/>
    </contour>
    <contour>
      <point x="309" y="788" type="line" smooth="yes"/>
      <point x="-20" y="0" type="line" smooth="yes"/>
      <point x="59" y="0" type="line" smooth="yes"/>
      <point x="141" y="200" type="line" smooth="yes"/>
      <point x="427" y="200" type="line" smooth="yes"/>
      <point x="457" y="0" type="line" smooth="yes"/>
      <point x="533" y="0" type="line" smooth="yes"/>
      <point x="411" y="788" type="line" smooth="yes"/>
    </contour>
    <contour>
      <point x="482" y="936" type="line" smooth="yes"/>
      <point x="467" y="900" type="line" smooth="yes"/>
      <point x="437" y="889" type="line" smooth="yes"/>
      <point x="381" y="918" type="line" smooth="yes"/>
      <point x="309" y="947" type="line" smooth="yes"/>
      <point x="248" y="925" type="line" smooth="yes"/>
      <point x="216" y="854" type="line" smooth="yes"/>
      <point x="264" y="854" type="line" smooth="yes"/>
      <point x="279" y="890" type="line" smooth="yes"/>
      <point x="309" y="901" type="line" smooth="yes"/>
      <point x="366" y="872" type="line" smooth="yes"/>
      <point x="437" y="843" type="line" smooth="yes"/>
      <point x="498" y="865" type="line" smooth="yes"/>
      <point x="530" y="936" type="line" smooth="yes"/>
    </contour>
  </outline>
</glyph>
<glyph name="Aring" format="1">
  <advance width="611"/>
  <unicode hex="00C5"/>
  <outline>
    <contour>
      <point x="361" y="811" type="line" smooth="yes"/>
      <point x="325" y="825" type="line" smooth="yes"/>
      <point x="313" y="860" type="line" smooth="yes"/>
      <point x="333" y="908" type="line" smooth="yes"/>
      <point x="378" y="923" type="line" smooth="yes"/>
      <point x="414" y="909" type="line" smooth="yes"/>
      <point x="426" y="874" type="line" smooth="yes"/>
      <point x="406" y="826" type="line" smooth="yes"/>
    </contour>
    <contour>
      <point x="351" y="709" type="line" smooth="yes"/>
      <point x="417" y="265" type="line" smooth="yes"/>
      <point x="168" y="265" type="line" smooth="yes"/>
    </contour>
    <contour>
      <point x="465" y="874" type="line" smooth="yes"/>
      <point x="442" y="936" type="line" smooth="yes"/>
      <point x="378" y="961" type="line" smooth="yes"/>
      <point x="305" y="932" type="line" smooth="yes"/>
      <point x="274" y="860" type="line" smooth="yes"/>
      <point x="283" y="818" type="line" smooth="yes"/>
      <point x="309" y="787" type="line" smooth="yes"/>
      <point x="-20" y="0" type="line" smooth="yes"/>
      <point x="59" y="0" type="line" smooth="yes"/>
      <point x="141" y="200" type="line" smooth="yes"/>
      <point x="427" y="200" type="line" smooth="yes"/>
      <point x="457" y="0" type="line" smooth="yes"/>
      <point x="533" y="0" type="line" smooth="yes"/>
      <point x="411" y="785" type="line" smooth="yes"/>
      <point x="450" y="821" type="line" smooth="yes"/>
    </contour>
  </outline>
</glyph>
<glyph name="AE" format="1">
  <advance width="837"/>
  <unicode hex="00C6"/>
  <outline>
    <contour>
      <point x="393" y="703" type="line" smooth="yes"/>
      <point x="396" y="272" type="line" smooth="yes"/>
      <point x="182" y="272" type="line" smooth="yes"/>
    </contour>
    <contour>
      <point x="362" y="780" type="line" smooth="yes"/>
      <point x="-29" y="0" type="line" smooth="yes"/>
      <point x="48" y="0" type="line" smooth="yes"/>
      <point x="150" y="208" type="line" smooth="yes"/>
      <point x="397" y="208" type="line" smooth="yes"/>
      <point x="399" y="0" type="line" smooth="yes"/>
      <point x="748" y="0" type="line" smooth="yes"/>
      <point x="756" y="65" type="line" smooth="yes"/>
      <point x="472" y="65" type="line" smooth="yes"/>
      <point x="469" y="366" type="line" smooth="yes"/>
      <point x="745" y="366" type="line" smooth="yes"/>
      <point x="753" y="430" type="line" smooth="yes"/>
      <point x="468" y="430" type="line" smooth="yes"/>
      <point x="465" y="715" type="line" smooth="yes"/>
      <point x="842" y="715" type="line" smooth="yes"/>
      <point x="850" y="780" type="line" smooth="yes"/>
    </contour>
  </outline>
</glyph>
<glyph name="Ccedilla" format="1">
  <advance width="613"/>
  <unicode hex="00C7"/>
  <outline>
    <contour>
      <point x="135" y="410" type="line" smooth="yes"/>
      <point x="213" y="651" type="line" smooth="yes"/>
      <point x="367" y="726" type="line" smooth="yes"/>
      <point x="374" y="726" type="line" smooth="yes"/>
      <point x="494" y="671" type="line" smooth="yes"/>
      <point x="510" y="496" type="line" smooth="yes"/>
      <point x="584" y="496" type="line" smooth="yes"/>
      <point x="588" y="525" type="line" smooth="yes"/>
      <point x="552" y="724" type="line" smooth="yes"/>
      <point x="373" y="791" type="line" smooth="yes"/>
      <point x="163" y="702" type="line" smooth="yes"/>
      <point x="61" y="410" type="line" smooth="yes"/>
      <point x="56" y="370" type="line" smooth="yes"/>
      <point x="83" y="86" type="line" smooth="yes"/>
      <point x="256" y="-10" type="line" smooth="yes"/>
      <point x="221" y="-80" type="line" smooth="yes"/>
      <point x="234" y="-99" type="line" smooth="yes"/>
      <point x="244" y="-98" type="line" smooth="yes"/>
      <point x="265" y="-96" type="line" smooth="yes"/>
      <point x="304" y="-103" type="line" smooth="yes"/>
      <point x="320" y="-130" type="line" smooth="yes"/>
      <point x="304" y="-160" type="line" smooth="yes"/>
      <point x="258" y="-169" type="line" smooth="yes"/>
      <point x="217" y="-162" type="line" smooth="yes"/>
      <point x="187" y="-148" type="line" smooth="yes"/>
      <point x="167" y="-184" type="line" smooth="yes"/>
      <point x="206" y="-203" type="line" smooth="yes"/>
      <point x="259" y="-211" type="line" smooth="yes"/>
      <point x="336" y="-191" type="line" smooth="yes"/>
      <point x="367" y="-127" type="line" smooth="yes"/>
      <point x="340" y="-73" type="line" smooth="yes"/>
      <point x="281" y="-58" type="line" smooth="yes"/>
      <point x="277" y="-58" type="line" smooth="yes"/>
      <point x="302" y="-10" type="line" smooth="yes"/>
      <point x="474" y="60" type="line" smooth="yes"/>
      <point x="550" y="240" type="line" smooth="yes"/>
      <point x="552" y="254" type="line" smooth="yes"/>
      <point x="478" y="254" type="line" smooth="yes"/>
      <point x="420" y="106" type="line" smooth="yes"/>
      <point x="286" y="54" type="line" smooth="yes"/>
      <point x="279" y="54" type="line" smooth="yes"/>
      <point x="145" y="129" type="line" smooth="yes"/>
      <point x="130" y="370" type="line" smooth="yes"/>
    </contour>
  </outline>
</glyph>
<glyph name="Egrave" format="1">
  <advance width="549"/>
  <unicode hex="00C8"/>
  <outline>
    <contour>
      <point x="127" y="780" type="line" smooth="yes"/>
      <point x="25" y="0" type="line" smooth="yes"/>
      <point x="460" y="0" type="line" smooth="yes"/>
      <point x="468" y="65" type="line" smooth="yes"/>
      <point x="105" y="65" type="line" smooth="yes"/>
      <point x="144" y="366" type="line" smooth="yes"/>
      <point x="457" y="366" type="line" smooth="yes"/>
      <point x="466" y="430" type="line" smooth="yes"/>
      <point x="153" y="430" type="line" smooth="yes"/>
      <point x="190" y="715" type="line" smooth="yes"/>
      <point x="554" y="715" type="line" smooth="yes"/>
      <point x="562" y="780" type="line" smooth="yes"/>
    </contour>
    <contour>
      <point x="277" y="950" type="line" smooth="yes"/>
      <point x="324" y="840" type="line" smooth="yes"/>
      <point x="396" y="840" type="line" smooth="yes"/>
      <point x="351" y="950" type="line" smooth="yes"/>
    </contour>
  </outline>
</glyph>
<glyph name="Ecircumflex" format="1">
  <advance width="549"/>
  <unicode hex="00CA"/>
  <outline>
    <contour>
      <point x="127" y="780" type="line" smooth="yes"/>
      <point x="25" y="0" type="line" smooth="yes"/>
      <point x="460" y="0" type="line" smooth="yes"/>
      <point x="468" y="65" type="line" smooth="yes"/>
      <point x="105" y="65" type="line" smooth="yes"/>
      <point x="144" y="366" type="line" smooth="yes"/>
      <point x="457" y="366" type="line" smooth="yes"/>
      <point x="466" y="430" type="line" smooth="yes"/>
      <point x="153" y="430" type="line" smooth="yes"/>
      <point x="190" y="715" type="line" smooth="yes"/>
      <point x="554" y="715" type="line" smooth="yes"/>
      <point x="562" y="780" type="line" smooth="yes"/>
    </contour>
    <contour>
      <point x="498" y="840" type="line" smooth="yes"/>
      <point x="407" y="950" type="line" smooth="yes"/>
      <point x="343" y="950" type="line" smooth="yes"/>
      <point x="222" y="840" type="line" smooth="yes"/>
      <point x="296" y="840" type="line" smooth="yes"/>
      <point x="374" y="909" type="line" smooth="yes"/>
      <point x="431" y="840" type="line" smooth="yes"/>
    </contour>
  </outline>
</glyph>
<glyph name="Eth" format="1">
  <advance width="692"/>
  <unicode hex="00D0"/>
  <outline>
    <contour>
      <point x="165" y="65" type="line" smooth="yes"/>
      <point x="205" y="366" type="line" smooth="yes"/>
      <point x="418" y="366" type="line" smooth="yes"/>
      <point x="427" y="430" type="line" smooth="yes"/>
      <point x="213" y="430" type="line" smooth="yes"/>
      <point x="251" y="715" type="line" smooth="yes"/>
      <point x="377" y="715" type="line" smooth="yes"/>
      <point x="540" y="646" type="line" smooth="yes"/>
      <point x="572" y="410" type="line" smooth="yes"/>
      <point x="567" y="370" type="line" smooth="yes"/>
      <point x="475" y="137" type="line" smooth="yes"/>
      <point x="291" y="65" type="line" smooth="yes"/>
    </contour>
    <contour>
      <point x="646" y="410" type="line" smooth="yes"/>
      <point x="599" y="696" type="line" smooth="yes"/>
      <point x="384" y="780" type="line" smooth="yes"/>
      <point x="187" y="780" type="line" smooth="yes"/>
      <point x="141" y="430" type="line" smooth="yes"/>
      <point x="26" y="430" type="line" smooth="yes"/>
      <point x="17" y="366" type="line" smooth="yes"/>
      <point x="133" y="366" type="line" smooth="yes"/>
      <point x="85" y="0" type="line" smooth="yes"/>
      <point x="289" y="0" type="line" smooth="yes"/>
      <point x="524" y="86" type="line" smooth="yes"/>
      <point x="641" y="370" type="line" smooth="yes"/>
    </contour>
  </outline>
</glyph>
<glyph name="Ocircumflex" format="1">
  <advance width="641"/>
  <unicode hex="00D4"/>
  <outline>
    <contour>
      <point x="278" y="54" type="line" smooth="yes"/>
      <point x="144" y="129" type="line" smooth="yes"/>
      <point x="130" y="370" type="line" smooth="yes"/>
      <point x="135" y="410" type="line" smooth="yes"/>
      <point x="212" y="651" type="line" smooth="yes"/>
      <point x="367" y="726" type="line" smooth="yes"/>
      <point x="374" y="726" type="line" smooth="yes"/>
      <point x="508" y="651" type="line" smooth="yes"/>
      <point x="522" y="410" type="line" smooth="yes"/>
      <point x="517" y="370" type="line" smooth="yes"/>
      <point x="440" y="129" type="line" smooth="yes"/>
      <point x="285" y="54" type="line" smooth="yes"/>
    </contour>
    <contour>
      <point x="372" y="791" type="line" smooth="yes"/>
      <point x="163" y="702" type="line" smooth="yes"/>
      <point x="61" y="410" type="line" smooth="yes"/>
      <point x="56" y="370" type="line" smooth="yes"/>
      <point x="89" y="78" type="line" smooth="yes"/>
      <point x="280" y="-11" type="line" smooth="yes"/>
      <point x="490" y="78" type="line" smooth="yes"/>
      <point x="591" y="370" type="line" smooth="yes"/>
      <point x="596" y="410" type="line" smooth="yes"/>
      <point x="564" y="702" type="line" smooth="yes"/>
    </contour>
    <contour>
      <point x="523" y="840" type="line" smooth="yes"/>
      <point x="432" y="950" type="line" smooth="yes"/>
      <point x="368" y="950" type="line" smooth="yes"/>
      <point x="247" y="840" type="line" smooth="yes"/>
      <point x="321" y="840" type="line" smooth="yes"/>
      <point x="399" y="909" type="line" smooth="yes"/>
      <point x="456" y="840" type="line" smooth="yes"/>
    </contour>
  </outline>
</glyph>
<glyph name="Otilde" format="1">
  <advance width="641"/>
  <unicode hex="00D5"/>
  <outline>
    <contour>
      <point x="278" y="54" type="line" smooth="yes"/>
      <point x="144" y="129" type="line" smooth="yes"/>
      <point x="130" y="370" type="line" smooth="yes"/>
      <point x="135" y="410" type="line" smooth="yes"/>
      <point x="212" y="651" type="line" smooth="yes"/>
      <point x="367" y="726" type="line" smooth="yes"/>
      <point x="374" y="726" type="line" smooth="yes"/>
      <point x="508" y="651" type="line" smooth="yes"/>
      <point x="522" y="410" type="line" smooth="yes"/>
      <point x="517" y="370" type="line" smooth="yes"/>
      <point x="440" y="129" type="line" smooth="yes"/>
      <point x="285" y="54" type="line" smooth="yes"/>
    </contour>
    <contour>
      <point x="372" y="791" type="line" smooth="yes"/>
      <point x="163" y="702" type="line" smooth="yes"/>
      <point x="61" y="410" type="line" smooth="yes"/>
      <point x="56" y="370" type="line" smooth="yes"/>
      <point x="89" y="78" type="line" smooth="yes"/>
      <point x="280" y="-11" type="line" smooth="yes"/>
      <point x="490" y="78" type="line" smooth="yes"/>
      <point x="591" y="370" type="line" smooth="yes"/>
      <point x="596" y="410" type="line" smooth="yes"/>
      <point x="564" y="702" type="line" smooth="yes"/>
    </contour>
    <contour>
      <point x="501" y="936" type="line" smooth="yes"/>
      <point x="486" y="900" type="line" smooth="yes"/>
      <point x="456" y="889" type="line" smooth="yes"/>
      <point x="400" y="918" type="line" smooth="yes"/>
      <point x="328" y="947" type="line" smooth="yes"/>
      <point x="267" y="925" type="line" smooth="yes"/>
      <point x="235" y="854" type="line" smooth="yes"/>
      <point x="283" y="854" type="line" smooth="yes"/>
      <point x="298" y="890" type="line" smooth="yes"/>
      <point x="328" y="901" type="line" smooth="yes"/>
      <point x="385" y="872" type="line" smooth="yes"/>
      <point x="456" y="843" type="line" smooth="yes"/>
      <point x="517" y="865" type="line" smooth="yes"/>
      <point x="549" y="936" type="line" smooth="yes"/>
    </contour>
  </outline>
</glyph>
<glyph name="Odieresis" format="1">
  <advance width="641"/>
  <unicode hex="00D6"/>
  <outline>
    <contour>
      <point x="278" y="54" type="line" smooth="yes"/>
      <point x="144" y="129" type="line" smooth="yes"/>
      <point x="130" y="370" type="line" smooth="yes"/>
      <point x="135" y="410" type="line" smooth="yes"/>
      <point x="212" y="651" type="line" smooth="yes"/>
      <point x="367" y="726" type="line" smooth="yes"/>
      <point x="374" y="726" type="line" smooth="yes"/>
      <point x="508" y="651" type="line" smooth="yes"/>
      <point x="522" y="410" type="line" smooth="yes"/>
      <point x="517" y="370" type="line" smooth="yes"/>
      <point x="440" y="129" type="line" smooth="yes"/>
      <point x="285" y="54" type="line" smooth="yes"/>
    </contour>
    <contour>
      <point x="372" y="791" type="line" smooth="yes"/>
      <point x="163" y="702" type="line" smooth="yes"/>
      <point x="61" y="410" type="line" smooth="yes"/>
      <point x="56" y="370" type="line" smooth="yes"/>
      <point x="89" y="78" type="line" smooth="yes"/>
      <point x="280" y="-11" type="line" smooth="yes"/>
      <point x="490" y="78" type="line" smooth="yes"/>
      <point x="591" y="370" type="line" smooth="yes"/>
      <point x="596" y="410" type="line" smooth="yes"/>
      <point x="564" y="702" type="line" smooth="yes"/>
    </contour>
    <contour>
      <point x="514" y="930" type="line" smooth="yes"/>
      <point x="435" y="930" type="line" smooth="yes"/>
      <point x="426" y="860" type="line" smooth="yes"/>
      <point x="505" y="860" type="line" smooth="yes"/>
    </contour>
    <contour>
      <point x="358" y="930" type="line" smooth="yes"/>
      <point x="279" y="930" type="line" smooth="yes"/>
      <point x="270" y="860" type="line" smooth="yes"/>
      <point x="349" y="860" type="line" smooth="yes"/>
    </contour>
  </outline>
</glyph>
<glyph name="multiply" format="1">
  <advance width="600"/>
  <unicode hex="00D7"/>
  <outline>
    <contour>
      <point x="49" y="126" type="line" smooth="yes"/>
      <point x="295" y="342" type="line" smooth="yes"/>
      <point x="483" y="126" type="line" smooth="yes"/>
      <point x="537" y="173" type="line" smooth="yes"/>
      <point x="349" y="390" type="line" smooth="yes"/>
      <point x="594" y="607" type="line" smooth="yes"/>
      <point x="552" y="654" type="line" smooth="yes"/>
      <point x="308" y="438" type="line" smooth="yes"/>
      <point x="119" y="654" type="line" smooth="yes"/>
      <point x="66" y="607" type="line" smooth="yes"/>
      <point x="254" y="390" type="line" smooth="yes"/>
      <point x="8" y="173" type="line" smooth="yes"/>
    </contour>
  </outline>
</glyph>
<glyph name="Oslash" format="1">
  <advance width="638"/>
  <unicode hex="00D8"/>
  <outline>
    <contour>
      <point x="521" y="611" type="line" smooth="yes"/>
      <point x="530" y="524" type="line" smooth="yes"/>
      <point x="522" y="410" type="line" smooth="yes"/>
      <point x="517" y="370" type="line" smooth="yes"/>
      <point x="440" y="129" type="line" smooth="yes"/>
      <point x="285" y="54" type="line" smooth="yes"/>
      <point x="278" y="54" type="line" smooth="yes"/>
      <point x="205" y="67" type="line" smooth="yes"/>
      <point x="155" y="109" type="line" smooth="yes"/>
    </contour>
    <contour>
      <point x="131" y="169" type="line" smooth="yes"/>
      <point x="122" y="256" type="line" smooth="yes"/>
      <point x="130" y="370" type="line" smooth="yes"/>
      <point x="135" y="410" type="line" smooth="yes"/>
      <point x="212" y="651" type="line" smooth="yes"/>
      <point x="367" y="726" type="line" smooth="yes"/>
      <point x="374" y="726" type="line" smooth="yes"/>
      <point x="448" y="713" type="line" smooth="yes"/>
      <point x="497" y="671" type="line" smooth="yes"/>
    </contour>
    <contour>
      <point x="56" y="370" type="line" smooth="yes"/>
      <point x="50" y="211" type="line" smooth="yes"/>
      <point x="78" y="97" type="line" smooth="yes"/>
      <point x="7" y="0" type="line" smooth="yes"/>
      <point x="75" y="0" type="line" smooth="yes"/>
      <point x="111" y="49" type="line" smooth="yes"/>
      <point x="182" y="4" type="line" smooth="yes"/>
      <point x="280" y="-11" type="line" smooth="yes"/>
      <point x="490" y="78" type="line" smooth="yes"/>
      <point x="591" y="370" type="line" smooth="yes"/>
      <point x="596" y="410" type="line" smooth="yes"/>
      <point x="602" y="569" type="line" smooth="yes"/>
      <point x="574" y="683" type="line" smooth="yes"/>
      <point x="645" y="780" type="line" smooth="yes"/>
      <point x="577" y="780" type="line" smooth="yes"/>
      <point x="541" y="731" type="line" smooth="yes"/>
      <point x="470" y="776" type="line" smooth="yes"/>
      <point x="372" y="791" type="line" smooth="yes"/>
      <point x="163" y="702" type="line" smooth="yes"/>
      <point x="61" y="410" type="line" smooth="yes"/>
    </contour>
  </outline>
</glyph>
<glyph name="Thorn" format="1">
  <advance width="569"/>
  <unicode hex="00DE"/>
  <outline>
    <contour>
      <point x="199" y="780" type="line" smooth="yes"/>
      <point x="127" y="780" type="line" smooth="yes"/>
      <point x="25" y="0" type="line" smooth="yes"/>
      <point x="97" y="0" type="line" smooth="yes"/>
      <point x="118" y="159" type="line" smooth="yes"/>
      <point x="265" y="159" type="line" smooth="yes"/>
      <point x="429" y="201" type="line" smooth="yes"/>
      <point x="530" y="376" type="line" smooth="yes"/>
      <point x="533" y="396" type="line" smooth="yes"/>
      <point x="479" y="577" type="line" smooth="yes"/>
      <point x="321" y="622" type="line" smooth="yes"/>
      <point x="178" y="622" type="line" smooth="yes"/>
    </contour>
    <contour>
      <point x="127" y="224" type="line" smooth="yes"/>
      <point x="170" y="557" type="line" smooth="yes"/>
      <point x="315" y="557" type="line" smooth="yes"/>
      <point x="419" y="526" type="line" smooth="yes"/>
      <point x="459" y="395" type="line" smooth="yes"/>
      <point x="457" y="380" type="line" smooth="yes"/>
      <point x="385" y="252" type="line" smooth="yes"/>
      <point x="276" y="224" type="line" smooth="yes"/>
    </contour>
  </outline>
</glyph>
<glyph name="germandbls" format="1">
  <advance width="569"/>
  <unicode hex="00DF"/>
  <outline>
    <contour>
      <point x="321" y="52" type="line" smooth="yes"/>
      <point x="240" y="83" type="line" smooth="yes"/>
      <point x="234" y="162" type="line" smooth="yes"/>
      <point x="168" y="162" type="line" smooth="yes"/>
      <point x="166" y="149" type="line" smooth="yes"/>
      <point x="187" y="37" type="line" smooth="yes"/>
      <point x="320" y="-11" type="line" smooth="yes"/>
      <point x="465" y="43" type="line" smooth="yes"/>
      <point x="514" y="156" type="line" smooth="yes"/>
      <point x="515" y="164" type="line" smooth="yes"/>
      <point x="491" y="269" type="line" smooth="yes"/>
      <point x="389" y="364" type="line" smooth="yes"/>
      <point x="348" y="394" type="line" smooth="yes"/>
      <point x="460" y="488" type="line" smooth="yes"/>
      <point x="505" y="601" type="line" smooth="yes"/>
      <point x="506" y="609" type="line" smooth="yes"/>
      <point x="474" y="754" type="line" smooth="yes"/>
      <point x="320" y="811" type="line" smooth="yes"/>
      <point x="163" y="757" type="line" smooth="yes"/>
      <point x="96" y="609" type="line" smooth="yes"/>
      <point x="16" y="0" type="line" smooth="yes"/>
      <point x="86" y="0" type="line" smooth="yes"/>
      <point x="165" y="604" type="line" smooth="yes"/>
      <point x="211" y="709" type="line" smooth="yes"/>
      <point x="320" y="746" type="line" smooth="yes"/>
      <point x="410" y="715" type="line" smooth="yes"/>
      <point x="437" y="633" type="line" smooth="yes"/>
      <point x="397" y="510" type="line" smooth="yes"/>
      <point x="267" y="415" type="line" smooth="yes"/>
      <point x="261" y="370" type="line" smooth="yes"/>
      <point x="331" y="319" type="line" smooth="yes"/>
      <point x="420" y="244" type="line" smooth="yes"/>
      <point x="446" y="176" type="line" smooth="yes"/>
      <point x="418" y="90" type="line" smooth="yes"/>
    </contour>
  </outline>
</glyph>
<glyph name="agrave" format="1">
  <advance width="508"/>
  <unicode hex="00E0"/>
  <outline>
    <contour>
      <point x="174" y="50" type="line" smooth="yes"/>
      <point x="101" y="78" type="line" smooth="yes"/>
      <point x="85" y="141" type="line" smooth="yes"/>
      <point x="87" y="155" type="line" smooth="yes"/>
      <point x="124" y="220" type="line" smooth="yes"/>
      <point x="209" y="251" type="line" smooth="yes"/>
      <point x="365" y="276" type="line" smooth="yes"/>
      <point x="347" y="136" type="line" smooth="yes"/>
      <point x="289" y="82" type="line" smooth="yes"/>
    </contour>
    <contour>
      <point x="347" y="0" type="line" smooth="yes"/>
      <point x="405" y="0" type="line" smooth="yes"/>
      <point x="418" y="150" type="line" smooth="yes"/>
      <point x="444" y="344" type="line" smooth="yes"/>
      <point x="419" y="487" type="line" smooth="yes"/>
      <point x="268" y="541" type="line" smooth="yes"/>
      <point x="115" y="485" type="line" smooth="yes"/>
      <point x="64" y="368" type="line" smooth="yes"/>
      <point x="62" y="355" type="line" smooth="yes"/>
      <point x="129" y="355" type="line" smooth="yes"/>
      <point x="163" y="444" type="line" smooth="yes"/>
      <point x="266" y="482" type="line" smooth="yes"/>
      <point x="361" y="449" type="line" smooth="yes"/>
      <point x="375" y="353" type="line" smooth="yes"/>
      <point x="372" y="331" type="line" smooth="yes"/>
      <point x="208" y="305" type="line" smooth="yes"/>
      <point x="79" y="264" type="line" smooth="yes"/>
      <point x="15" y="151" type="line" smooth="yes"/>
      <point x="13" y="135" type="line" smooth="yes"/>
      <point x="44" y="30" type="line" smooth="yes"/>
      <point x="158" y="-11" type="line" smooth="yes"/>
      <point x="272" y="15" type="line" smooth="yes"/>
      <point x="347" y="74" type="line" smooth="yes"/>
    </contour>
    <contour>
      <point x="179" y="780" type="line" smooth="yes"/>
      <point x="251" y="614" type="line" smooth="yes"/>
      <point x="323" y="614" type="line" smooth="yes"/>
      <point x="255" y="780" type="line" smooth="yes"/>
    </contour>
  </outline>
</glyph>
<glyph name="aring" format="1">
  <advance width="508"/>
  <unicode hex="00E5"/>
  <outline>
    <contour>
      <point x="174" y="50" type="line" smooth="yes"/>
      <point x="101" y="78" type="line" smooth="yes"/>
      <point x="85" y="141" type="line" smooth="yes"/>
      <point x="87" y="155" type="line" smooth="yes"/>
      <point x="124" y="220" type="line" smooth="yes"/>
      <point x="209" y="251" type="line" smooth="yes"/>
      <point x="365" y="276" type="line" smooth="yes"/>
      <point x="347" y="136" type="line" smooth="yes"/>
      <point x="289" y="82" type="line" smooth="yes"/>
    </contour>
    <contour>
      <point x="347" y="0" type="line" smooth="yes"/>
      <point x="405" y="0" type="line" smooth="yes"/>
      <point x="418" y="150" type="line" smooth="yes"/>
      <point x="444" y="344" type="line" smooth="yes"/>
      <point x="419" y="487" type="line" smooth="yes"/>
      <point x="268" y="541" type="line" smooth="yes"/>
      <point x="115" y="485" type="line" smooth="yes"/>
      <point x="64" y="368" type="line" smooth="yes"/>
      <point x="62" y="355" type="line" smooth="yes"/>
      <point x="129" y="355" type="line" smooth="yes"/>
      <point x="163" y="444" type="line" smooth="yes"/>
      <point x="266" y="482" type="line" smooth="yes"/>
      <point x="361" y="449" type="line" smooth="yes"/>
      <point x="375" y="353" type="line" smooth="yes"/>
      <point x="372" y="331" type="line" smooth="yes"/>
      <point x="208" y="305" type="line" smooth="yes"/>
      <point x="79" y="264" type="line" smooth="yes"/>
      <point x="15" y="151" type="line" smooth="yes"/>
      <point x="13" y="135" type="line" smooth="yes"/>
      <point x="44" y="30" type="line" smooth="yes"/>
      <point x="158" y="-11" type="line" smooth="yes"/>
      <point x="272" y="15" type="line" smooth="yes"/>
      <point x="347" y="74" type="line" smooth="yes"/>
    </contour>
    <contour>
      <point x="290" y="603" type="line" smooth="yes"/>
      <point x="363" y="632" type="line" smooth="yes"/>
      <point x="394" y="704" type="line" smooth="yes"/>
      <point x="371" y="766" type="line" smooth="yes"/>
      <point x="307" y="791" type="line" smooth="yes"/>
      <point x="234" y="762" type="line" smooth="yes"/>
      <point x="203" y="690" type="line" smooth="yes"/>
      <point x="226" y="628" type="line" smooth="yes"/>
    </contour>
    <contour>
      <point x="290" y="641" type="line" smooth="yes"/>
      <point x="254" y="655" type="line" smooth="yes"/>
      <point x="242" y="690" type="line" smooth="yes"/>
      <point x="262" y="738" type="line" smooth="yes"/>
      <point x="307" y="753" type="line" smooth="yes"/>
      <point x="343" y="739" type="line" smooth="yes"/>
      <point x="355" y="704" type="line" smooth="yes"/>
      <point x="335" y="656" type="line" smooth="yes"/>
    </contour>
  </outline>
</glyph>
<glyph name="ae" format="1">
  <advance width="866"/>
  <unicode hex="00E6"/>
  <outline>
    <contour>
      <point x="618" y="478" type="line" smooth="yes"/>
      <point x="725" y="430" type="line" smooth="yes"/>
      <point x="743" y="294" type="line" smooth="yes"/>
      <point x="439" y="294" type="line" smooth="yes"/>
      <point x="498" y="427" type="line" smooth="yes"/>
    </contour>
    <contour>
      <point x="174" y="50" type="line" smooth="yes"/>
      <point x="101" y="78" type="line" smooth="yes"/>
      <point x="85" y="141" type="line" smooth="yes"/>
      <point x="87" y="155" type="line" smooth="yes"/>
      <point x="124" y="220" type="line" smooth="yes"/>
      <point x="209" y="251" type="line" smooth="yes"/>
      <point x="366" y="276" type="line" smooth="yes"/>
      <point x="363" y="255" type="line" smooth="yes"/>
      <point x="359" y="203" type="line" smooth="yes"/>
      <point x="362" y="154" type="line" smooth="yes"/>
      <point x="291" y="86" type="line" smooth="yes"/>
    </contour>
    <contour>
      <point x="806" y="236" type="line" smooth="yes"/>
      <point x="811" y="275" type="line" smooth="yes"/>
      <point x="782" y="466" type="line" smooth="yes"/>
      <point x="618" y="541" type="line" smooth="yes"/>
      <point x="508" y="515" type="line" smooth="yes"/>
      <point x="432" y="444" type="line" smooth="yes"/>
      <point x="383" y="515" type="line" smooth="yes"/>
      <point x="268" y="541" type="line" smooth="yes"/>
      <point x="115" y="485" type="line" smooth="yes"/>
      <point x="64" y="368" type="line" smooth="yes"/>
      <point x="62" y="355" type="line" smooth="yes"/>
      <point x="129" y="355" type="line" smooth="yes"/>
      <point x="163" y="444" type="line" smooth="yes"/>
      <point x="266" y="482" type="line" smooth="yes"/>
      <point x="361" y="449" type="line" smooth="yes"/>
      <point x="375" y="353" type="line" smooth="yes"/>
      <point x="372" y="331" type="line" smooth="yes"/>
      <point x="208" y="305" type="line" smooth="yes"/>
      <point x="79" y="264" type="line" smooth="yes"/>
      <point x="15" y="151" type="line" smooth="yes"/>
      <point x="13" y="135" type="line" smooth="yes"/>
      <point x="44" y="30" type="line" smooth="yes"/>
      <point x="158" y="-11" type="line" smooth="yes"/>
      <point x="278" y="17" type="line" smooth="yes"/>
      <point x="380" y="91" type="line" smooth="yes"/>
      <point x="448" y="17" type="line" smooth="yes"/>
      <point x="572" y="-11" type="line" smooth="yes"/>
      <point x="732" y="44" type="line" smooth="yes"/>
      <point x="795" y="157" type="line" smooth="yes"/>
      <point x="797" y="170" type="line" smooth="yes"/>
      <point x="730" y="170" type="line" smooth="yes"/>
      <point x="689" y="90" type="line" smooth="yes"/>
      <point x="574" y="52" type="line" smooth="yes"/>
      <point x="455" y="101" type="line" smooth="yes"/>
      <point x="432" y="236" type="line" smooth="yes"/>
    </contour>
  </outline>
</glyph>
<glyph name="ccedilla" format="1">
  <advance width="519"/>
  <unicode hex="00E7"/>
  <outline>
    <contour>
      <point x="108" y="279" type="line" smooth="yes"/>
      <point x="164" y="425" type="line" smooth="yes"/>
      <point x="280" y="478" type="line" smooth="yes"/>
      <point x="382" y="437" type="line" smooth="yes"/>
      <point x="401" y="336" type="line" smooth="yes"/>
      <point x="468" y="336" type="line" smooth="yes"/>
      <point x="470" y="349" type="line" smooth="yes"/>
      <point x="440" y="477" type="line" smooth="yes"/>
      <point x="280" y="541" type="line" smooth="yes"/>
      <point x="110" y="466" type="line" smooth="yes"/>
      <point x="37" y="277" type="line" smooth="yes"/>
      <point x="34" y="255" type="line" smooth="yes"/>
      <point x="61" y="75" type="line" smooth="yes"/>
      <point x="205" y="-9" type="line" smooth="yes"/>
      <point x="169" y="-80" type="line" smooth="yes"/>
      <point x="182" y="-99" type="line" smooth="yes"/>
      <point x="192" y="-98" type="line" smooth="yes"/>
      <point x="213" y="-96" type="line" smooth="yes"/>
      <point x="252" y="-103" type="line" smooth="yes"/>
      <point x="268" y="-130" type="line" smooth="yes"/>
      <point x="252" y="-160" type="line" smooth="yes"/>
      <point x="206" y="-169" type="line" smooth="yes"/>
      <point x="165" y="-162" type="line" smooth="yes"/>
      <point x="135" y="-148" type="line" smooth="yes"/>
      <point x="115" y="-184" type="line" smooth="yes"/>
      <point x="154" y="-203" type="line" smooth="yes"/>
      <point x="207" y="-211" type="line" smooth="yes"/>
      <point x="284" y="-191" type="line" smooth="yes"/>
      <point x="315" y="-127" type="line" smooth="yes"/>
      <point x="288" y="-73" type="line" smooth="yes"/>
      <point x="229" y="-58" type="line" smooth="yes"/>
      <point x="225" y="-58" type="line" smooth="yes"/>
      <point x="250" y="-10" type="line" smooth="yes"/>
      <point x="393" y="49" type="line" smooth="yes"/>
      <point x="446" y="171" type="line" smooth="yes"/>
      <point x="448" y="184" type="line" smooth="yes"/>
      <point x="380" y="184" type="line" smooth="yes"/>
      <point x="340" y="91" type="line" smooth="yes"/>
      <point x="234" y="52" type="line" smooth="yes"/>
      <point x="124" y="107" type="line" smooth="yes"/>
      <point x="105" y="257" type="line" smooth="yes"/>
    </contour>
  </outline>
</glyph>
<glyph name="eacute" format="1">
  <advance width="539"/>
  <unicode hex="00E9"/>
  <outline>
    <contour>
      <point x="289" y="478" type="line" smooth="yes"/>
      <point x="396" y="430" type="line" smooth="yes"/>
      <point x="414" y="294" type="line" smooth="yes"/>
      <point x="110" y="294" type="line" smooth="yes"/>
      <point x="169" y="427" type="line" smooth="yes"/>
    </contour>
    <contour>
      <point x="477" y="236" type="line" smooth="yes"/>
      <point x="482" y="275" type="line" smooth="yes"/>
      <point x="453" y="466" type="line" smooth="yes"/>
      <point x="289" y="541" type="line" smooth="yes"/>
      <point x="115" y="466" type="line" smooth="yes"/>
      <point x="37" y="277" type="line" smooth="yes"/>
      <point x="34" y="255" type="line" smooth="yes"/>
      <point x="65" y="67" type="line" smooth="yes"/>
      <point x="243" y="-11" type="line" smooth="yes"/>
      <point x="403" y="44" type="line" smooth="yes"/>
      <point x="466" y="157" type="line" smooth="yes"/>
      <point x="468" y="170" type="line" smooth="yes"/>
      <point x="401" y="170" type="line" smooth="yes"/>
      <point x="360" y="90" type="line" smooth="yes"/>
      <point x="245" y="52" type="line" smooth="yes"/>
      <point x="126" y="101" type="line" smooth="yes"/>
      <point x="103" y="236" type="line" smooth="yes"/>
    </contour>
    <contour>
      <point x="380" y="780" type="line" smooth="yes"/>
      <point x="268" y="614" type="line" smooth="yes"/>
      <point x="340" y="614" type="line" smooth="yes"/>
      <point x="456" y="780" type="line" smooth="yes"/>
    </contour>
  </outline>
</glyph>
<glyph name="edieresis" format="1">
  <advance width="539"/>
  <unicode hex="00EB"/>
  <outline>
    <contour>
      <point x="289" y="478" type="line" smooth="yes"/>
      <point x="396" y="430" type="line" smooth="yes"/>
      <point x="414" y="294" type="line" smooth="yes"/>
      <point x="110" y="294" type="line" smooth="yes"/>
      <point x="169" y="427" type="line" smooth="yes"/>
    </contour>
    <contour>
      <point x="477" y="236" type="line" smooth="yes"/>
      <point x="482" y="275" type="line" smooth="yes"/>
      <point x="453" y="466" type="line" smooth="yes"/>
      <point x="289" y="541" type="line" smooth="yes"/>
      <point x="115" y="466" type="line" smooth="yes"/>
      <point x="37" y="277" type="line" smooth="yes"/>
      <point x="34" y="255" type="line" smooth="yes"/>
      <point x="65" y="67" type="line" smooth="yes"/>
      <point x="243" y="-11" type="line" smooth="yes"/>
      <point x="403" y="44" type="line" smooth="yes"/>
      <point x="466" y="157" type="line" smooth="yes"/>
      <point x="468" y="170" type="line" smooth="yes"/>
      <point x="401" y="170" type="line" smooth="yes"/>
      <point x="360" y="90" type="line" smooth="yes"/>
      <point x="245" y="52" type="line" smooth="yes"/>
      <point x="126" y="101" type="line" smooth="yes"/>
      <point x="103" y="236" type="line" smooth="yes"/>
    </contour>
    <contour>
      <point x="450" y="745" type="line" smooth="yes"/>
      <point x="360" y="745" type="line" smooth="yes"/>
      <point x="348" y="655" type="line" smooth="yes"/>
      <point x="438" y="655" type="line" smooth="yes"/>
    </contour>
    <contour>
      <point x="283" y="745" type="line" smooth="yes"/>
      <point x="193" y="745" type="line" smooth="yes"/>
      <point x="181" y="655" type="line" smooth="yes"/>
      <point x="271" y="655" type="line" smooth="yes"/>
    </contour>
  </outline>
</glyph>
<glyph name="ntilde" format="1">
  <advance width="528"/>
  <unicode hex="00F1"/>
  <outline>
    <contour>
      <point x="416" y="0" type="line" smooth="yes"/>
      <point x="465" y="371" type="line" smooth="yes"/>
      <point x="438" y="494" type="line" smooth="yes"/>
      <point x="314" y="541" type="line" smooth="yes"/>
      <point x="212" y="518" type="line" smooth="yes"/>
      <point x="140" y="456" type="line" smooth="yes"/>
      <point x="140" y="530" type="line" smooth="yes"/>
      <point x="80" y="530" type="line" smooth="yes"/>
      <point x="67" y="386" type="line" smooth="yes"/>
      <point x="16" y="0" type="line" smooth="yes"/>
      <point x="86" y="0" type="line" smooth="yes"/>
      <point x="138" y="395" type="line" smooth="yes"/>
      <point x="194" y="449" type="line" smooth="yes"/>
      <point x="290" y="478" type="line" smooth="yes"/>
      <point x="374" y="450" type="line" smooth="yes"/>
      <point x="394" y="361" type="line" smooth="yes"/>
      <point x="346" y="0" type="line" smooth="yes"/>
    </contour>
    <contour>
      <point x="419" y="746" type="line" smooth="yes"/>
      <point x="404" y="710" type="line" smooth="yes"/>
      <point x="377" y="699" type="line" smooth="yes"/>
      <point x="316" y="728" type="line" smooth="yes"/>
      <point x="242" y="757" type="line" smooth="yes"/>
      <point x="180" y="732" type="line" smooth="yes"/>
      <point x="148" y="654" type="line" smooth="yes"/>
      <point x="201" y="654" type="line" smooth="yes"/>
      <point x="216" y="690" type="line" smooth="yes"/>
      <point x="242" y="701" type="line" smooth="yes"/>
      <point x="303" y="672" type="line" smooth="yes"/>
      <point x="377" y="643" type="line" smooth="yes"/>
      <point x="439" y="668" type="line" smooth="yes"/>
      <point x="472" y="746" type="line" smooth="yes"/>
    </contour>
  </outline>
</glyph>
<glyph name="otilde" format="1">
  <advance width="540"/>
  <unicode hex="00F5"/>
  <outline>
    <contour>
      <point x="232" y="-11" type="line" smooth="yes"/>
      <point x="404" y="64" type="line" smooth="yes"/>
      <point x="479" y="253" type="line" smooth="yes"/>
      <point x="482" y="275" type="line" smooth="yes"/>
      <point x="450" y="464" type="line" smooth="yes"/>
      <point x="283" y="541" type="line" smooth="yes"/>
      <point x="112" y="466" type="line" smooth="yes"/>
      <point x="37" y="277" type="line" smooth="yes"/>
      <point x="34" y="255" type="line" smooth="yes"/>
      <point x="66" y="66" type="line" smooth="yes"/>
    </contour>
    <contour>
      <point x="232" y="52" type="line" smooth="yes"/>
      <point x="123" y="107" type="line" smooth="yes"/>
      <point x="105" y="257" type="line" smooth="yes"/>
      <point x="108" y="279" type="line" smooth="yes"/>
      <point x="165" y="425" type="line" smooth="yes"/>
      <point x="283" y="478" type="line" smooth="yes"/>
      <point x="393" y="423" type="line" smooth="yes"/>
      <point x="411" y="273" type="line" smooth="yes"/>
      <point x="408" y="251" type="line" smooth="yes"/>
      <point x="351" y="105" type="line" smooth="yes"/>
    </contour>
    <contour>
      <point x="424" y="746" type="line" smooth="yes"/>
      <point x="409" y="710" type="line" smooth="yes"/>
      <point x="382" y="699" type="line" smooth="yes"/>
      <point x="321" y="728" type="line" smooth="yes"/>
      <point x="247" y="757" type="line" smooth="yes"/>
      <point x="185" y="732" type="line" smooth="yes"/>
      <point x="153" y="654" type="line" smooth="yes"/>
      <point x="206" y="654" type="line" smooth="yes"/>
      <point x="221" y="690" type="line" smooth="yes"/>
      <point x="247" y="701" type="line" smooth="yes"/>
      <point x="308" y="672" type="line" smooth="yes"/>
      <point x="382" y="643" type="line" smooth="yes"/>
      <point x="444" y="668" type="line" smooth="yes"/>
      <point x="477" y="746" type="line" smooth="yes"/>
    </contour>
  </outline>
</glyph>
<glyph name="oslash" format="1">
  <advance width="544"/>
  <unicode hex="00F8"/>
  <outline>
    <contour>
      <point x="112" y="132" type="line" smooth="yes"/>
      <point x="102" y="188" type="line" smooth="yes"/>
      <point x="105" y="257" type="line" smooth="yes"/>
      <point x="108" y="279" type="line" smooth="yes"/>
      <point x="165" y="425" type="line" smooth="yes"/>
      <point x="283" y="478" type="line" smooth="yes"/>
      <point x="337" y="469" type="line" smooth="yes"/>
      <point x="377" y="443" type="line" smooth="yes"/>
    </contour>
    <contour>
      <point x="34" y="255" type="line" smooth="yes"/>
      <point x="34" y="155" type="line" smooth="yes"/>
      <point x="62" y="73" type="line" smooth="yes"/>
      <point x="0" y="0" type="line" smooth="yes"/>
      <point x="65" y="0" type="line" smooth="yes"/>
      <point x="95" y="35" type="line" smooth="yes"/>
      <point x="154" y="1" type="line" smooth="yes"/>
      <point x="233" y="-11" type="line" smooth="yes"/>
      <point x="404" y="64" type="line" smooth="yes"/>
      <point x="479" y="253" type="line" smooth="yes"/>
      <point x="482" y="275" type="line" smooth="yes"/>
      <point x="482" y="375" type="line" smooth="yes"/>
      <point x="454" y="457" type="line" smooth="yes"/>
      <point x="516" y="530" type="line" smooth="yes"/>
      <point x="451" y="530" type="line" smooth="yes"/>
      <point x="421" y="495" type="line" smooth="yes"/>
      <point x="362" y="529" type="line" smooth="yes"/>
      <point x="283" y="541" type="line" smooth="yes"/>
      <point x="112" y="466" type="line" smooth="yes"/>
      <point x="37" y="277" type="line" smooth="yes"/>
    </contour>
    <contour>
      <point x="404" y="398" type="line" smooth="yes"/>
      <point x="414" y="342" type="line" smooth="yes"/>
      <point x="411" y="273" type="line" smooth="yes"/>
      <point x="408" y="251" type="line" smooth="yes"/>
      <point x="351" y="105" type="line" smooth="yes"/>
      <point x="233" y="52" type="line" smooth="yes"/>
      <point x="179" y="61" type="line" smooth="yes"/>
      <point x="139" y="87" type="line" smooth="yes"/>
    </contour>
  </outline>
</glyph>
<glyph name="udieresis" format="1">
  <advance width="528"/>
  <unicode hex="00FC"/>
  <outline>
    <contour>
      <point x="82" y="530" type="line" smooth="yes"/>
      <point x="33" y="159" type="line" smooth="yes"/>
      <point x="61" y="37" type="line" smooth="yes"/>
      <point x="184" y="-11" type="line" smooth="yes"/>
      <point x="286" y="12" type="line" smooth="yes"/>
      <point x="358" y="74" type="line" smooth="yes"/>
      <point x="358" y="0" type="line" smooth="yes"/>
      <point x="418" y="0" type="line" smooth="yes"/>
      <point x="431" y="144" type="line" smooth="yes"/>
      <point x="482" y="530" type="line" smooth="yes"/>
      <point x="412" y="530" type="line" smooth="yes"/>
      <point x="360" y="135" type="line" smooth="yes"/>
      <point x="304" y="81" type="line" smooth="yes"/>
      <point x="208" y="52" type="line" smooth="yes"/>
      <point x="124" y="81" type="line" smooth="yes"/>
      <point x="104" y="169" type="line" smooth="yes"/>
      <point x="152" y="530" type="line" smooth="yes"/>
    </contour>
    <contour>
      <point x="438" y="745" type="line" smooth="yes"/>
      <point x="348" y="745" type="line" smooth="yes"/>
      <point x="336" y="655" type="line" smooth="yes"/>
      <point x="426" y="655" type="line" smooth="yes"/>
    </contour>
    <contour>
      <point x="271" y="745" type="line" smooth="yes"/>
      <point x="181" y="745" type="line" smooth="yes"/>
      <point x="169" y="655" type="line" smooth="yes"/>
      <point x="259" y="655" type="line" smooth="yes"/>
    </contour>
  </outline>
</glyph>
<glyph name="thorn" format="1">
  <advance width="532"/>
  <unicode hex="00FE"/>
  <outline>
    <contour>
      <point x="231" y="52" type="line" smooth="yes"/>
      <point x="148" y="81" type="line" smooth="yes"/>
      <point x="105" y="139" type="line" smooth="yes"/>
      <point x="139" y="402" type="line" smooth="yes"/>
      <point x="197" y="455" type="line" smooth="yes"/>
      <point x="282" y="478" type="line" smooth="yes"/>
      <point x="388" y="423" type="line" smooth="yes"/>
      <point x="406" y="273" type="line" smooth="yes"/>
      <point x="403" y="251" type="line" smooth="yes"/>
      <point x="348" y="105" type="line" smooth="yes"/>
    </contour>
    <contour>
      <point x="122" y="800" type="line" smooth="yes"/>
      <point x="-10" y="-200" type="line" smooth="yes"/>
      <point x="60" y="-200" type="line" smooth="yes"/>
      <point x="95" y="65" type="line" smooth="yes"/>
      <point x="143" y="17" type="line" smooth="yes"/>
      <point x="240" y="-11" type="line" smooth="yes"/>
      <point x="403" y="63" type="line" smooth="yes"/>
      <point x="474" y="253" type="line" smooth="yes"/>
      <point x="477" y="275" type="line" smooth="yes"/>
      <point x="450" y="465" type="line" smooth="yes"/>
      <point x="299" y="541" type="line" smooth="yes"/>
      <point x="211" y="522" type="line" smooth="yes"/>
      <point x="149" y="474" type="line" smooth="yes"/>
      <point x="192" y="800" type="line" smooth="yes"/>
    </contour>
  </outline>
</glyph>
<glyph name="abreve" format="1">
  <advance width="512"/>
  <unicode hex="0103"/>
  <outline>
    <contour>
      <point x="174" y="50" type="line" smooth="yes"/>
      <point x="101" y="78" type="line" smooth="yes"/>
      <point x="85" y="141" type="line" smooth="yes"/>
      <point x="87" y="155" type="line" smooth="yes"/>
      <point x="124" y="220" type="line" smooth="yes"/>
      <point x="209" y="251" type="line" smooth="yes"/>
      <point x="365" y="276" type="line" smooth="yes"/>
      <point x="347" y="136" type="line" smooth="yes"/>
      <point x="289" y="82" type="line" smooth="yes"/>
    </contour>
    <contour>
      <point x="347" y="0" type="line" smooth="yes"/>
      <point x="405" y="0" type="line" smooth="yes"/>
      <point x="418" y="150" type="line" smooth="yes"/>
      <point x="444" y="344" type="line" smooth="yes"/>
      <point x="419" y="487" type="line" smooth="yes"/>
      <point x="268" y="541" type="line" smooth="yes"/>
      <point x="115" y="485" type="line" smooth="yes"/>
      <point x="64" y="368" type="line" smooth="yes"/>
      <point x="62" y="355" type="line" smooth="yes"/>
      <point x="129" y="355" type="line" smooth="yes"/>
      <point x="163" y="444" type="line" smooth="yes"/>
      <point x="266" y="482" type="line" smooth="yes"/>
      <point x="361" y="449" type="line" smooth="yes"/>
      <point x="375" y="353" type="line" smooth="yes"/>
      <point x="372" y="331" type="line" smooth="yes"/>
      <point x="208" y="305" type="line" smooth="yes"/>
      <point x="79" y="264" type="line" smooth="yes"/>
      <point x="15" y="151" type="line" smooth="yes"/>
      <point x="13" y="135" type="line" smooth="yes"/>
      <point x="44" y="30" type="line" smooth="yes"/>
      <point x="158" y="-11" type="line" smooth="yes"/>
      <point x="272" y="15" type="line" smooth="yes"/>
      <point x="347" y="74" type="line" smooth="yes"/>
    </contour>
    <contour>
      <point x="290" y="603" type="line" smooth="yes"/>
      <point x="418" y="653" type="line" smooth="yes"/>
      <point x="470" y="780" type="line" smooth="yes"/>
      <point x="412" y="780" type="line" smooth="yes"/>
      <point x="375" y="692" type="line" smooth="yes"/>
      <point x="290" y="658" type="line" smooth="yes"/>
      <point x="215" y="692" type="line" smooth="yes"/>
      <point x="202" y="780" type="line" smooth="yes"/>
      <point x="148" y="780" type="line" smooth="yes"/>
      <point x="171" y="653" type="line" smooth="yes"/>
    </contour>
  </outline>
</glyph>
<glyph name="Aogonek" format="1">
  <advance width="611"/>
  <unicode hex="0104"/>
  <outline>
    <contour>
      <point x="351" y="709" type="line" smooth="yes"/>
      <point x="417" y="265" type="line" smooth="yes"/>
      <point x="168" y="265" type="line" smooth="yes"/>
    </contour>
    <contour>
      <point x="309" y="788" type="line" smooth="yes"/>
      <point x="-20" y="0" type="line" smooth="yes"/>
      <point x="59" y="0" type="line" smooth="yes"/>
      <point x="141" y="200" type="line" smooth="yes"/>
      <point x="427" y="200" type="line" smooth="yes"/>
      <point x="456" y="4" type="line" smooth="yes"/>
      <point x="400" y="-51" type="line" smooth="yes"/>
      <point x="376" y="-129" type="line" smooth="yes"/>
      <point x="403" y="-191" type="line" smooth="yes"/>
      <point x="477" y="-211" type="line" smooth="yes"/>
      <point x="522" y="-206" type="line" smooth="yes"/>
      <point x="562" y="-191" type="line" smooth="yes"/>
      <point x="550" y="-145" type="line" smooth="yes"/>
      <point x="523" y="-155" type="line" smooth="yes"/>
      <point x="492" y="-158" type="line" smooth="yes"/>
      <point x="449" y="-147" type="line" smooth="yes"/>
      <point x="433" y="-113" type="line" smooth="yes"/>
      <point x="467" y="-42" type="line" smooth="yes"/>
      <point x="533" y="0" type="line" smooth="yes"/>
      <point x="411" y="788" type="line" smooth="yes"/>
    </contour>
  </outline>
</glyph>
<glyph name="aogonek" format="1">
  <advance width="508"/>
  <unicode hex="0105"/>
  <outline>
    <contour>
      <point x="174" y="50" type="line" smooth="yes"/>
      <point x="101" y="78" type="line" smooth="yes"/>
      <point x="85" y="141" type="line" smooth="yes"/>
      <point x="87" y="155" type="line" smooth="yes"/>
      <point x="124" y="220" type="line" smooth="yes"/>
      <point x="209" y="251" type="line" smooth="yes"/>
      <point x="365" y="276" type="line" smooth="yes"/>
      <point x="347" y="136" type="line" smooth="yes"/>
      <point x="289" y="82" type="line" smooth="yes"/>
    </contour>
    <contour>
      <point x="405" y="0" type="line" smooth="yes"/>
      <point x="418" y="150" type="line" smooth="yes"/>
      <point x="444" y="344" type="line" smooth="yes"/>
      <point x="419" y="487" type="line" smooth="yes"/>
      <point x="268" y="541" type="line" smooth="yes"/>
      <point x="115" y="485" type="line" smooth="yes"/>
      <point x="64" y="368" type="line" smooth="yes"/>
      <point x="62" y="355" type="line" smooth="yes"/>
      <point x="129" y="355" type="line" smooth="yes"/>
      <point x="163" y="444" type="line" smooth="yes"/>
      <point x="266" y="482" type="line" smooth="yes"/>
      <point x="361" y="449" type="line" smooth="yes"/>
      <point x="375" y="353" type="line" smooth="yes"/>
      <point x="372" y="331" type="line" smooth="yes"/>
      <point x="208" y="305" type="line" smooth="yes"/>
      <point x="79" y="264" type="line" smooth="yes"/>
      <point x="15" y="151" type="line" smooth="yes"/>
      <point x="13" y="135" type="line" smooth="yes"/>
      <point x="44" y="30" type="line" smooth="yes"/>
      <point x="158" y="-11" type="line" smooth="yes"/>
      <point x="272" y="15" type="line" smooth="yes"/>
      <point x="347" y="74" type="line" smooth="yes"/>
      <point x="347" y="16" type="line" smooth="yes"/>
      <point x="278" y="-42" type="line" smooth="yes"/>
      <point x="248" y="-129" type="line" smooth="yes"/>
      <point x="275" y="-191" type="line" smooth="yes"/>
      <point x="349" y="-211" type="line" smooth="yes"/>
      <point x="394" y="-206" type="line" smooth="yes"/>
      <point x="434" y="-191" type="line" smooth="yes"/>
      <point x="422" y="-145" type="line" smooth="yes"/>
      <point x="395" y="-155" type="line" smooth="yes"/>
      <point x="364" y="-158" type="line" smooth="yes"/>
      <point x="321" y="-147" type="line" smooth="yes"/>
      <point x="305" y="-113" type="line" smooth="yes"/>
      <point x="339" y="-42" type="line" smooth="yes"/>
    </contour>
  </outline>
</glyph>
<glyph name="ccircumflex" format="1">
  <advance width="519"/>
  <unicode hex="0109"/>
  <outline>
    <contour>
      <point x="108" y="279" type="line" smooth="yes"/>
      <point x="164" y="425" type="line" smooth="yes"/>
      <point x="280" y="478" type="line" smooth="yes"/>
      <point x="382" y="437" type="line" smooth="yes"/>
      <point x="401" y="336" type="line" smooth="yes"/>
      <point x="468" y="336" type="line" smooth="yes"/>
      <point x="470" y="349" type="line" smooth="yes"/>
      <point x="440" y="477" type="line" smooth="yes"/>
      <point x="280" y="541" type="line" smooth="yes"/>
      <point x="110" y="466" type="line" smooth="yes"/>
      <point x="37" y="277" type="line" smooth="yes"/>
      <point x="34" y="255" type="line" smooth="yes"/>
      <point x="68" y="66" type="line" smooth="yes"/>
      <point x="234" y="-11" type="line" smooth="yes"/>
      <point x="390" y="46" type="line" smooth="yes"/>
      <point x="446" y="171" type="line" smooth="yes"/>
      <point x="448" y="184" type="line" smooth="yes"/>
      <point x="380" y="184" type="line" smooth="yes"/>
      <point x="340" y="91" type="line" smooth="yes"/>
      <point x="234" y="52" type="line" smooth="yes"/>
      <point x="124" y="107" type="line" smooth="yes"/>
      <point x="105" y="257" type="line" smooth="yes"/>
    </contour>
    <contour>
      <point x="212" y="614" type="line" smooth="yes"/>
      <point x="319" y="727" type="line" smooth="yes"/>
      <point x="397" y="614" type="line" smooth="yes"/>
      <point x="463" y="614" type="line" smooth="yes"/>
      <point x="354" y="780" type="line" smooth="yes"/>
      <point x="292" y="780" type="line" smooth="yes"/>
      <point x="139" y="614" type="line" smooth="yes"/>
    </contour>
  </outline>
</glyph>
<glyph name="Cdotaccent" format="1">
  <advance width="613"/>
  <unicode hex="010A"/>
  <outline>
    <contour>
      <point x="135" y="410" type="line" smooth="yes"/>
      <point x="213" y="651" type="line" smooth="yes"/>
      <point x="367" y="726" type="line" smooth="yes"/>
      <point x="374" y="726" type="line" smooth="yes"/>
      <point x="494" y="671" type="line" smooth="yes"/>
      <point x="510" y="496" type="line" smooth="yes"/>
      <point x="584" y="496" type="line" smooth="yes"/>
      <point x="588" y="525" type="line" smooth="yes"/>
      <point x="552" y="724" type="line" smooth="yes"/>
      <point x="373" y="791" type="line" smooth="yes"/>
      <point x="163" y="702" type="line" smooth="yes"/>
      <point x="61" y="410" type="line" smooth="yes"/>
      <point x="56" y="370" type="line" smooth="yes"/>
      <point x="88" y="78" type="line" smooth="yes"/>
      <point x="279" y="-11" type="line" smooth="yes"/>
      <point x="468" y="53" type="line" smooth="yes"/>
      <point x="550" y="240" type="line" smooth="yes"/>
      <point x="552" y="254" type="line" smooth="yes"/>
      <point x="478" y="254" type="line" smooth="yes"/>
      <point x="420" y="106" type="line" smooth="yes"/>
      <point x="286" y="54" type="line" smooth="yes"/>
      <point x="279" y="54" type="line" smooth="yes"/>
      <point x="145" y="129" type="line" smooth="yes"/>
      <point x="130" y="370" type="line" smooth="yes"/>
    </contour>
    <contour>
      <point x="434" y="930" type="line" smooth="yes"/>
      <point x="355" y="930" type="line" smooth="yes"/>
      <point x="346" y="860" type="line" smooth="yes"/>
      <point x="425" y="860" type="line" smooth="yes"/>
    </contour>
  </outline>
</glyph>
<glyph name="Dcaron" format="1">
  <advance width="632"/>
  <unicode hex="010E"/>
  <outline>
    <contour>
      <point x="230" y="950" type="line" smooth="yes"/>
      <point x="321" y="840" type="line" smooth="yes"/>
      <point x="385" y="840" type="line" smooth="yes"/>
      <point x="506" y="950" type="line" smooth="yes"/>
      <point x="432" y="950" type="line" smooth="yes"/>
      <point x="354" y="881" type="line" smooth="yes"/>
      <point x="297" y="950" type="line" smooth="yes"/>
    </contour>
    <contour>
      <point x="105" y="65" type="line" smooth="yes"/>
      <point x="191" y="715" type="line" smooth="yes"/>
      <point x="317" y="715" type="line" smooth="yes"/>
      <point x="480" y="646" type="line" smooth="yes"/>
      <point x="512" y="410" type="line" smooth="yes"/>
      <point x="507" y="370" type="line" smooth="yes"/>
      <point x="415" y="137" type="line" smooth="yes"/>
      <point x="231" y="65" type="line" smooth="yes"/>
    </contour>
    <contour>
      <point x="586" y="410" type="line" smooth="yes"/>
      <point x="539" y="696" type="line" smooth="yes"/>
      <point x="324" y="780" type="line" smooth="yes"/>
      <point x="127" y="780" type="line" smooth="yes"/>
      <point x="25" y="0" type="line" smooth="yes"/>
      <point x="229" y="0" type="line" smooth="yes"/>
      <point x="464" y="86" type="line" smooth="yes"/>
      <point x="581" y="370" type="line" smooth="yes"/>
    </contour>
  </outline>
</glyph>
<glyph name="ebreve" format="1">
  <advance width="544"/>
  <unicode hex="0115"/>
  <outline>
    <contour>
      <point x="289" y="478" type="line" smooth="yes"/>
      <point x="396" y="430" type="line" smooth="yes"/>
      <point x="414" y="294" type="line" smooth="yes"/>
      <point x="110" y="294" type="line" smooth="yes"/>
      <point x="169" y="427" type="line" smooth="yes"/>
    </contour>
    <contour>
      <point x="477" y="236" type="line" smooth="yes"/>
      <point x="482" y="275" type="line" smooth="yes"/>
      <point x="453" y="466" type="line" smooth="yes"/>
      <point x="289" y="541" type="line" smooth="yes"/>
      <point x="115" y="466" type="line" smooth="yes"/>
      <point x="37" y="277" type="line" smooth="yes"/>
      <point x="34" y="255" type="line" smooth="yes"/>
      <point x="65" y="67" type="line" smooth="yes"/>
      <point x="243" y="-11" type="line" smooth="yes"/>
      <point x="403" y="44" type="line" smooth="yes"/>
      <point x="466" y="157" type="line" smooth="yes"/>
      <point x="468" y="170" type="line" smooth="yes"/>
      <point x="401" y="170" type="line" smooth="yes"/>
      <point x="360" y="90" type="line" smooth="yes"/>
      <point x="245" y="52" type="line" smooth="yes"/>
      <point x="126" y="101" type="line" smooth="yes"/>
      <point x="103" y="236" type="line" smooth="yes"/>
    </contour>
    <contour>
      <point x="307" y="603" type="line" smooth="yes"/>
      <point x="435" y="653" type="line" smooth="yes"/>
      <point x="487" y="780" type="line" smooth="yes"/>
      <point x="429" y="780" type="line" smooth="yes"/>
      <point x="392" y="692" type="line" smooth="yes"/>
      <point x="307" y="658" type="line" smooth="yes"/>
      <point x="232" y="692" type="line" smooth="yes"/>
      <point x="219" y="780" type="line" smooth="yes"/>
      <point x="165" y="780" type="line" smooth="yes"/>
      <point x="188" y="653" type="line" smooth="yes"/>
    </contour>
  </outline>
</glyph>
<glyph name="Edotaccent" format="1">
  <advance width="549"/>
  <unicode hex="0116"/>
  <outline>
    <contour>
      <point x="127" y="780" type="line" smooth="yes"/>
      <point x="25" y="0" type="line" smooth="yes"/>
      <point x="460" y="0" type="line" smooth="yes"/>
      <point x="468" y="65" type="line" smooth="yes"/>
      <point x="105" y="65" type="line" smooth="yes"/>
      <point x="144" y="366" type="line" smooth="yes"/>
      <point x="457" y="366" type="line" smooth="yes"/>
      <point x="466" y="430" type="line" smooth="yes"/>
      <point x="153" y="430" type="line" smooth="yes"/>
      <point x="190" y="715" type="line" smooth="yes"/>
      <point x="554" y="715" type="line" smooth="yes"/>
      <point x="562" y="780" type="line" smooth="yes"/>
    </contour>
    <contour>
      <point x="411" y="930" type="line" smooth="yes"/>
      <point x="332" y="930" type="line" smooth="yes"/>
      <point x="323" y="860" type="line" smooth="yes"/>
      <point x="402" y="860" type="line" smooth="yes"/>
    </contour>
  </outline>
</glyph>
<glyph name="Eogonek" format="1">
  <advance width="549"/>
  <unicode hex="0118"/>
  <outline>
    <contour>
      <point x="127" y="780" type="line" smooth="yes"/>
      <point x="25" y="0" type="line" smooth="yes"/>
      <point x="377" y="0" type="line" smooth="yes"/>
      <point x="324" y="-54" type="line" smooth="yes"/>
      <point x="303" y="-129" type="line" smooth="yes"/>
      <point x="330" y="-191" type="line" smooth="yes"/>
      <point x="404" y="-211" type="line" smooth="yes"/>
      <point x="449" y="-206" type="line" smooth="yes"/>
      <point x="489" y="-191" type="line" smooth="yes"/>
      <point x="477" y="-145" type="line" smooth="yes"/>
      <point x="450" y="-155" type="line" smooth="yes"/>
      <point x="419" y="-158" type="line" smooth="yes"/>
      <point x="376" y="-147" type="line" smooth="yes"/>
      <point x="360" y="-113" type="line" smooth="yes"/>
      <point x="394" y="-42" type="line" smooth="yes"/>
      <point x="460" y="0" type="line" smooth="yes"/>
      <point x="468" y="65" type="line" smooth="yes"/>
      <point x="105" y="65" type="line" smooth="yes"/>
      <point x="144" y="366" type="line" smooth="yes"/>
      <point x="457" y="366" type="line" smooth="yes"/>
      <point x="466" y="430" type="line" smooth="yes"/>
      <point x="153" y="430" type="line" smooth="yes"/>
      <point x="190" y="715" type="line" smooth="yes"/>
      <point x="554" y="715" type="line" smooth="yes"/>
      <point x="562" y="780" type="line" smooth="yes"/>
    </contour>
  </outline>
</glyph>
<glyph name="eogonek" format="1">
  <advance width="539"/>
  <unicode hex="0119"/>
  <outline>
    <contour>
      <point x="289" y="478" type="line" smooth="yes"/>
      <point x="396" y="430" type="line" smooth="yes"/>
      <point x="414" y="294" type="line" smooth="yes"/>
      <point x="110" y="294" type="line" smooth="yes"/>
      <point x="169" y="427" type="line" smooth="yes"/>
    </contour>
    <contour>
      <point x="477" y="236" type="line" smooth="yes"/>
      <point x="482" y="275" type="line" smooth="yes"/>
      <point x="453" y="466" type="line" smooth="yes"/>
      <point x="289" y="541" type="line" smooth="yes"/>
      <point x="115" y="466" type="line" smooth="yes"/>
      <point x="37" y="277" type="line" smooth="yes"/>
      <point x="34" y="255" type="line" smooth="yes"/>
      <point x="61" y="72" type="line" smooth="yes"/>
      <point x="225" y="-10" type="line" smooth="yes"/>
      <point x="182" y="-61" type="line" smooth="yes"/>
      <point x="165" y="-129" type="line" smooth="yes"/>
      <point x="192" y="-191" type="line" smooth="yes"/>
      <point x="266" y="-211" type="line" smooth="yes"/>
      <point x="311" y="-206" type="line" smooth="yes"/>
      <point x="351" y="-191" type="line" smooth="yes"/>
      <point x="339" y="-145" type="line" smooth="yes"/>
      <point x="312" y="-155" type="line" smooth="yes"/>
      <point x="281" y="-158" type="line" smooth="yes"/>
      <point x="238" y="-147" type="line" smooth="yes"/>
      <point x="222" y="-113" type="line" smooth="yes"/>
      <point x="256" y="-42" type="line" smooth="yes"/>
      <point x="322" y="0" type="line" smooth="yes"/>
      <point x="423" y="65" type="line" smooth="yes"/>
      <point x="466" y="157" type="line" smooth="yes"/>
      <point x="468" y="170" type="line" smooth="yes"/>
      <point x="401" y="170" type="line" smooth="yes"/>
      <point x="360" y="90" type="line" smooth="yes"/>
      <point x="245" y="52" type="line" smooth="yes"/>
      <point x="126" y="101" type="line" smooth="yes"/>
      <point x="103" y="236" type="line" smooth="yes"/>
    </contour>
  </outline>
</glyph>
<glyph name="Ecaron" format="1">
  <advance width="549"/>
  <unicode hex="011A"/>
  <outline>
    <contour>
      <point x="127" y="780" type="line" smooth="yes"/>
      <point x="25" y="0" type="line" smooth="yes"/>
      <point x="460" y="0" type="line" smooth="yes"/>
      <point x="468" y="65" type="line" smooth="yes"/>
      <point x="105" y="65" type="line" smooth="yes"/>
      <point x="144" y="366" type="line" smooth="yes"/>
      <point x="457" y="366" type="line" smooth="yes"/>
      <point x="466" y="430" type="line" smooth="yes"/>
      <point x="153" y="430" type="line" smooth="yes"/>
      <point x="190" y="715" type="line" smooth="yes"/>
      <point x="554" y="715" type="line" smooth="yes"/>
      <point x="562" y="780" type="line" smooth="yes"/>
    </contour>
    <contour>
      <point x="237" y="950" type="line" smooth="yes"/>
      <point x="328" y="840" type="line" smooth="yes"/>
      <point x="392" y="840" type="line" smooth="yes"/>
      <point x="513" y="950" type="line" smooth="yes"/>
      <point x="439" y="950" type="line" smooth="yes"/>
      <point x="361" y="881" type="line" smooth="yes"/>
      <point x="304" y="950" type="line" smooth="yes"/>
    </contour>
  </outline>
</glyph>
<glyph name="ecaron" format="1">
  <advance width="544"/>
  <unicode hex="011B"/>
  <outline>
    <contour>
      <point x="289" y="478" type="line" smooth="yes"/>
      <point x="396" y="430" type="line" smooth="yes"/>
      <point x="414" y="294" type="line" smooth="yes"/>
      <point x="110" y="294" type="line" smooth="yes"/>
      <point x="169" y="427" type="line" smooth="yes"/>
    </contour>
    <contour>
      <point x="477" y="236" type="line" smooth="yes"/>
      <point x="482" y="275" type="line" smooth="yes"/>
      <point x="453" y="466" type="line" smooth="yes"/>
      <point x="289" y="541" type="line" smooth="yes"/>
      <point x="115" y="466" type="line" smooth="yes"/>
      <point x="37" y="277" type="line" smooth="yes"/>
      <point x="34" y="255" type="line" smooth="yes"/>
      <point x="65" y="67" type="line" smooth="yes"/>
      <point x="243" y="-11" type="line" smooth="yes"/>
      <point x="403" y="44" type="line" smooth="yes"/>
      <point x="466" y="157" type="line" smooth="yes"/>
      <point x="468" y="170" type="line" smooth="yes"/>
      <point x="401" y="170" type="line" smooth="yes"/>
      <point x="360" y="90" type="line" smooth="yes"/>
      <point x="245" y="52" type="line" smooth="yes"/>
      <point x="126" y="101" type="line" smooth="yes"/>
      <point x="103" y="236" type="line" smooth="yes"/>
    </contour>
    <contour>
      <point x="164" y="780" type="line" smooth="yes"/>
      <point x="273" y="614" type="line" smooth="yes"/>
      <point x="335" y="614" type="line" smooth="yes"/>
      <point x="488" y="780" type="line" smooth="yes"/>
      <point x="415" y="780" type="line" smooth="yes"/>
      <point x="308" y="667" type="line" smooth="yes"/>
      <point x="230" y="780" type="line" smooth="yes"/>
    </contour>
  </outline>
</glyph>
<glyph name="gbreve" format="1">
  <advance width="537"/>
  <unicode hex="011F"/>
  <outline>
    <contour>
      <point x="375" y="167" type="line" smooth="yes"/>
      <point x="317" y="113" type="line" smooth="yes"/>
      <point x="232" y="90" type="line" smooth="yes"/>
      <point x="125" y="140" type="line" smooth="yes"/>
      <point x="106" y="277" type="line" smooth="yes"/>
      <point x="109" y="299" type="line" smooth="yes"/>
      <point x="163" y="432" type="line" smooth="yes"/>
      <point x="279" y="478" type="line" smooth="yes"/>
      <point x="362" y="449" type="line" smooth="yes"/>
      <point x="405" y="392" type="line" smooth="yes"/>
    </contour>
    <contour>
      <point x="353" y="-3" type="line" smooth="yes"/>
      <point x="310" y="-111" type="line" smooth="yes"/>
      <point x="195" y="-148" type="line" smooth="yes"/>
      <point x="93" y="-112" type="line" smooth="yes"/>
      <point x="75" y="0" type="line" smooth="yes"/>
      <point x="10" y="0" type="line" smooth="yes"/>
      <point x="8" y="-13" type="line" smooth="yes"/>
      <point x="37" y="-153" type="line" smooth="yes"/>
      <point x="195" y="-211" type="line" smooth="yes"/>
      <point x="358" y="-154" type="line" smooth="yes"/>
      <point x="422" y="-8" type="line" smooth="yes"/>
      <point x="473" y="380" type="line" smooth="yes"/>
      <point x="498" y="530" type="line" smooth="yes"/>
      <point x="440" y="530" type="line" smooth="yes"/>
      <point x="421" y="453" type="line" smooth="yes"/>
      <point x="369" y="512" type="line" smooth="yes"/>
      <point x="269" y="541" type="line" smooth="yes"/>
      <point x="107" y="473" type="line" smooth="yes"/>
      <point x="38" y="297" type="line" smooth="yes"/>
      <point x="35" y="275" type="line" smooth="yes"/>
      <point x="62" y="100" type="line" smooth="yes"/>
      <point x="214" y="27" type="line" smooth="yes"/>
      <point x="303" y="46" type="line" smooth="yes"/>
      <point x="365" y="94" type="line" smooth="yes"/>
    </contour>
    <contour>
      <point x="289" y="603" type="line" smooth="yes"/>
      <point x="417" y="653" type="line" smooth="yes"/>
      <point x="469" y="780" type="line" smooth="yes"/>
      <point x="411" y="780" type="line" smooth="yes"/>
      <point x="374" y="692" type="line" smooth="yes"/>
      <point x="289" y="658" type="line" smooth="yes"/>
      <point x="214" y="692" type="line" smooth="yes"/>
      <point x="201" y="780" type="line" smooth="yes"/>
      <point x="147" y="780" type="line" smooth="yes"/>
      <point x="170" y="653" type="line" smooth="yes"/>
    </contour>
  </outline>
</glyph>
<glyph name="gdotaccent" format="1">
  <advance width="537"/>
  <unicode hex="0121"/>
  <outline>
    <contour>
      <point x="375" y="167" type="line" smooth="yes"/>
      <point x="317" y="113" type="line" smooth="yes"/>
      <point x="232" y="90" type="line" smooth="yes"/>
      <point x="125" y="140" type="line" smooth="yes"/>
      <point x="106" y="277" type="line" smooth="yes"/>
      <point x="109" y="299" type="line" smooth="yes"/>
      <point x="163" y="432" type="line" smooth="yes"/>
      <point x="279" y="478" type="line" smooth="yes"/>
      <point x="362" y="449" type="line" smooth="yes"/>
      <point x="405" y="392" type="line" smooth="yes"/>
    </contour>
    <contour>
      <point x="353" y="-3" type="line" smooth="yes"/>
      <point x="310" y="-111" type="line" smooth="yes"/>
      <point x="195" y="-148" type="line" smooth="yes"/>
      <point x="93" y="-112" type="line" smooth="yes"/>
      <point x="75" y="0" type="line" smooth="yes"/>
      <point x="10" y="0" type="line" smooth="yes"/>
      <point x="8" y="-13" type="line" smooth="yes"/>
      <point x="37" y="-153" type="line" smooth="yes"/>
      <point x="195" y="-211" type="line" smooth="yes"/>
      <point x="358" y="-154" type="line" smooth="yes"/>
      <point x="422" y="-8" type="line" smooth="yes"/>
      <point x="473" y="380" type="line" smooth="yes"/>
      <point x="498" y="530" type="line" smooth="yes"/>
      <point x="440" y="530" type="line" smooth="yes"/>
      <point x="421" y="453" type="line" smooth="yes"/>
      <point x="369" y="512" type="line" smooth="yes"/>
      <point x="269" y="541" type="line" smooth="yes"/>
      <point x="107" y="473" type="line" smooth="yes"/>
      <point x="38" y="297" type="line" smooth="yes"/>
      <point x="35" y="275" type="line" smooth="yes"/>
      <point x="62" y="100" type="line" smooth="yes"/>
      <point x="214" y="27" type="line" smooth="yes"/>
      <point x="303" y="46" type="line" smooth="yes"/>
      <point x="365" y="94" type="line" smooth="yes"/>
    </contour>
    <contour>
      <point x="348" y="745" type="line" smooth="yes"/>
      <point x="258" y="745" type="line" smooth="yes"/>
      <point x="246" y="655" type="line" smooth="yes"/>
      <point x="336" y="655" type="line" smooth="yes"/>
    </contour>
  </outline>
</glyph>
<glyph name="Gcommaaccent" format="1">
  <advance width="643"/>
  <unicode hex="0122"/>
  <outline>
    <contour>
      <point x="293" y="-11" type="line" smooth="yes"/>
      <point x="445" y="18" type="line" smooth="yes"/>
      <point x="539" y="79" type="line" smooth="yes"/>
      <point x="579" y="384" type="line" smooth="yes"/>
      <point x="373" y="384" type="line" smooth="yes"/>
      <point x="365" y="320" type="line" smooth="yes"/>
      <point x="499" y="320" type="line" smooth="yes"/>
      <point x="472" y="114" type="line" smooth="yes"/>
      <point x="405" y="73" type="line" smooth="yes"/>
      <point x="302" y="54" type="line" smooth="yes"/>
      <point x="295" y="54" type="line" smooth="yes"/>
      <point x="153" y="129" type="line" smooth="yes"/>
      <point x="130" y="370" type="line" smooth="yes"/>
      <point x="135" y="410" type="line" smooth="yes"/>
      <point x="215" y="651" type="line" smooth="yes"/>
      <point x="372" y="726" type="line" smooth="yes"/>
      <point x="379" y="726" type="line" smooth="yes"/>
      <point x="501" y="671" type="line" smooth="yes"/>
      <point x="520" y="496" type="line" smooth="yes"/>
      <point x="594" y="496" type="line" smooth="yes"/>
      <point x="598" y="525" type="line" smooth="yes"/>
      <point x="559" y="724" type="line" smooth="yes"/>
      <point x="378" y="791" type="line" smooth="yes"/>
      <point x="165" y="702" type="line" smooth="yes"/>
      <point x="61" y="410" type="line" smooth="yes"/>
      <point x="56" y="370" type="line" smooth="yes"/>
      <point x="95" y="78" type="line" smooth="yes"/>
    </contour>
    <contour>
      <point x="324" y="-56" type="line" smooth="yes"/>
      <point x="243" y="-56" type="line" smooth="yes"/>
      <point x="234" y="-124" type="line" smooth="yes"/>
      <point x="276" y="-124" type="line" smooth="yes"/>
      <point x="248" y="-165" type="line" smooth="yes"/>
      <point x="203" y="-178" type="line" smooth="yes"/>
      <point x="198" y="-214" type="line" smooth="yes"/>
      <point x="279" y="-186" type="line" smooth="yes"/>
      <point x="317" y="-107" type="line" smooth="yes"/>
    </contour>
  </outline>
</glyph>
<glyph name="hcircumflex" format="1">
  <advance width="525"/>
  <unicode hex="0125"/>
  <outline>
    <contour>
      <point x="300" y="840" type="line" smooth="yes"/>
      <point x="209" y="950" type="line" smooth="yes"/>
      <point x="145" y="950" type="line" smooth="yes"/>
      <point x="24" y="840" type="line" smooth="yes"/>
      <point x="98" y="840" type="line" smooth="yes"/>
      <point x="176" y="909" type="line" smooth="yes"/>
      <point x="233" y="840" type="line" smooth="yes"/>
    </contour>
    <contour>
      <point x="191" y="800" type="line" smooth="yes"/>
      <point x="121" y="800" type="line" smooth="yes"/>
      <point x="16" y="0" type="line" smooth="yes"/>
      <point x="86" y="0" type="line" smooth="yes"/>
      <point x="138" y="395" type="line" smooth="yes"/>
      <point x="194" y="449" type="line" smooth="yes"/>
      <point x="290" y="478" type="line" smooth="yes"/>
      <point x="374" y="450" type="line" smooth="yes"/>
      <point x="394" y="361" type="line" smooth="yes"/>
      <point x="346" y="0" type="line" smooth="yes"/>
      <point x="416" y="0" type="line" smooth="yes"/>
      <point x="465" y="371" type="line" smooth="yes"/>
      <point x="438" y="494" type="line" smooth="yes"/>
      <point x="314" y="541" type="line" smooth="yes"/>
      <point x="215" y="519" type="line" smooth="yes"/>
      <point x="147" y="465" type="line" smooth="yes"/>
    </contour>
  </outline>
</glyph>
<glyph name="hbar" format="1">
  <advance width="525"/>
  <unicode hex="0127"/>
  <outline>
    <contour>
      <point x="303" y="633" type="line" smooth="yes"/>
      <point x="312" y="697" type="line" smooth="yes"/>
      <point x="177" y="697" type="line" smooth="yes"/>
      <point x="191" y="800" type="line" smooth="yes"/>
      <point x="121" y="800" type="line" smooth="yes"/>
      <point x="107" y="697" type="line" smooth="yes"/>
      <point x="16" y="697" type="line" smooth="yes"/>
      <point x="7" y="633" type="line" smooth="yes"/>
      <point x="99" y="633" type="line" smooth="yes"/>
      <point x="16" y="0" type="line" smooth="yes"/>
      <point x="86" y="0" type="line" smooth="yes"/>
      <point x="138" y="395" type="line" smooth="yes"/>
      <point x="194" y="449" type="line" smooth="yes"/>
      <point x="290" y="478" type="line" smooth="yes"/>
      <point x="374" y="450" type="line" smooth="yes"/>
      <point x="394" y="361" type="line" smooth="yes"/>
      <point x="346" y="0" type="line" smooth="yes"/>
      <point x="416" y="0" type="line" smooth="yes"/>
      <point x="465" y="371" type="line" smooth="yes"/>
      <point x="438" y="494" type="line" smooth="yes"/>
      <point x="314" y="541" type="line" smooth="yes"/>
      <point x="215" y="519" type="line" smooth="yes"/>
      <point x="147" y="465" type="line" smooth="yes"/>
      <point x="169" y="633" type="line" smooth="yes"/>
    </contour>
  </outline>
</glyph>
<glyph name="Itilde" format="1">
  <advance width="229"/>
  <unicode hex="0128"/>
  <outline>
    <contour>
      <point x="204" y="780" type="line" smooth="yes"/>
      <point x="132" y="780" type="line" smooth="yes"/>
      <point x="30" y="0" type="line" smooth="yes"/>
      <point x="102" y="0" type="line" smooth="yes"/>
    </contour>
    <contour>
      <point x="292" y="936" type="line" smooth="yes"/>
      <point x="277" y="900" type="line" smooth="yes"/>
      <point x="247" y="889" type="line" smooth="yes"/>
      <point x="191" y="918" type="line" smooth="yes"/>
      <point x="119" y="947" type="line" smooth="yes"/>
      <point x="58" y="925" type="line" smooth="yes"/>
      <point x="26" y="854" type="line" smooth="yes"/>
      <point x="74" y="854" type="line" smooth="yes"/>
      <point x="89" y="890" type="line" smooth="yes"/>
      <point x="119" y="901" type="line" smooth="yes"/>
      <point x="176" y="872" type="line" smooth="yes"/>
      <point x="247" y="843" type="line" smooth="yes"/>
      <point x="308" y="865" type="line" smooth="yes"/>
      <point x="340" y="936" type="line" smooth="yes"/>
    </contour>
  </outline>
</glyph>
<glyph name="Imacron" format="1">
  <advance width="229"/>
  <unicode hex="012A"/>
  <outline>
    <contour>
      <point x="204" y="780" type="line" smooth="yes"/>
      <point x="132" y="780" type="line" smooth="yes"/>
      <point x="30" y="0" type="line" smooth="yes"/>
      <point x="102" y="0" type="line" smooth="yes"/>
    </contour>
    <contour>
      <point x="67" y="868" type="line" smooth="yes"/>
      <point x="293" y="868" type="line" smooth="yes"/>
      <point x="300" y="922" type="line" smooth="yes"/>
      <point x="74" y="922" type="line" smooth="yes"/>
    </contour>
  </outline>
</glyph>
<glyph name="ibreve" format="1">
  <advance width="216"/>
  <unicode hex="012D"/>
  <outline>
    <contour>
      <point x="24" y="0" type="line" smooth="yes"/>
      <point x="94" y="0" type="line" smooth="yes"/>
      <point x="163" y="530" type="line" smooth="yes"/>
      <point x="93" y="530" type="line" smooth="yes"/>
    </contour>
    <contour>
      <point x="142" y="603" type="line" smooth="yes"/>
      <point x="270" y="653" type="line" smooth="yes"/>
      <point x="322" y="780" type="line" smooth="yes"/>
      <point x="264" y="780" type="line" smooth="yes"/>
      <point x="227" y="692" type="line" smooth="yes"/>
      <point x="142" y="658" type="line" smooth="yes"/>
      <point x="67" y="692" type="line" smooth="yes"/>
      <point x="54" y="780" type="line" smooth="yes"/>
      <point x="0" y="780" type="line" smooth="yes"/>
      <point x="23" y="653" type="line" smooth="yes"/>
    </contour>
  </outline>
</glyph>
<glyph name="Iogonek" format="1">
  <advance width="229"/>
  <unicode hex="012E"/>
  <outline>
    <contour>
      <point x="204" y="780" type="line" smooth="yes"/>
      <point x="132" y="780" type="line" smooth="yes"/>
      <point x="31" y="8" type="line" smooth="yes"/>
      <point x="-30" y="-48" type="line" smooth="yes"/>
      <point x="-55" y="-129" type="line" smooth="yes"/>
      <point x="-28" y="-191" type="line" smooth="yes"/>
      <point x="46" y="-211" type="line" smooth="yes"/>
      <point x="91" y="-206" type="line" smooth="yes"/>
      <point x="131" y="-191" type="line" smooth="yes"/>
      <point x="119" y="-145" type="line" smooth="yes"/>
      <point x="92" y="-155" type="line" smooth="yes"/>
      <point x="61" y="-158" type="line" smooth="yes"/>
      <point x="18" y="-147" type="line" smooth="yes"/>
      <point x="2" y="-113" type="line" smooth="yes"/>
      <point x="36" y="-42" type="line" smooth="yes"/>
      <point x="102" y="0" type="line" smooth="yes"/>
    </contour>
  </outline>
</glyph>
<glyph name="iogonek" format="1">
  <advance width="216"/>
  <unicode hex="012F"/>
  <outline>
    <contour>
      <point x="202" y="745" type="line" smooth="yes"/>
      <point x="112" y="745" type="line" smooth="yes"/>
      <point x="100" y="655" type="line" smooth="yes"/>
      <point x="190" y="655" type="line" smooth="yes"/>
    </contour>
    <contour>
      <point x="94" y="0" type="line" smooth="yes"/>
      <point x="163" y="530" type="line" smooth="yes"/>
      <point x="93" y="530" type="line" smooth="yes"/>
      <point x="25" y="9" type="line" smooth="yes"/>
      <point x="-37" y="-47" type="line" smooth="yes"/>
      <point x="-63" y="-129" type="line" smooth="yes"/>
      <point x="-36" y="-191" type="line" smooth="yes"/>
      <point x="38" y="-211" type="line" smooth="yes"/>
      <point x="83" y="-206" type="line" smooth="yes"/>
      <point x="123" y="-191" type="line" smooth="yes"/>
      <point x="111" y="-145" type="line" smooth="yes"/>
      <point x="84" y="-155" type="line" smooth="yes"/>
      <point x="53" y="-158" type="line" smooth="yes"/>
      <point x="10" y="-147" type="line" smooth="yes"/>
      <point x="-6" y="-113" type="line" smooth="yes"/>
      <point x="28" y="-42" type="line" smooth="yes"/>
    </contour>
  </outline>
</glyph>
<glyph name="ij" format="1">
  <advance width="383"/>
  <unicode hex="0133"/>
  <outline>
    <contour>
      <point x="369" y="745" type="line" smooth="yes"/>
      <point x="279" y="745" type="line" smooth="yes"/>
      <point x="267" y="655" type="line" smooth="yes"/>
      <point x="357" y="655" type="line" smooth="yes"/>
    </contour>
    <contour>
      <point x="185" y="-49" type="line" smooth="yes"/>
      <point x="149" y="-127" type="line" smooth="yes"/>
      <point x="75" y="-148" type="line" smooth="yes"/>
      <point x="40" y="-145" type="line" smooth="yes"/>
      <point x="15" y="-138" type="line" smooth="yes"/>
      <point x="7" y="-199" type="line" smooth="yes"/>
      <point x="32" y="-207" type="line" smooth="yes"/>
      <point x="79" y="-211" type="line" smooth="yes"/>
      <point x="196" y="-177" type="line" smooth="yes"/>
      <point x="253" y="-63" type="line" smooth="yes"/>
      <point x="330" y="530" type="line" smooth="yes"/>
      <point x="260" y="530" type="line" smooth="yes"/>
    </contour>
    <contour>
      <point x="202" y="745" type="line" smooth="yes"/>
      <point x="112" y="745" type="line" smooth="yes"/>
      <point x="100" y="655" type="line" smooth="yes"/>
      <point x="190" y="655" type="line" smooth="yes"/>
    </contour>
    <contour>
      <point x="24" y="0" type="line" smooth="yes"/>
      <point x="94" y="0" type="line" smooth="yes"/>
      <point x="163" y="530" type="line" smooth="yes"/>
      <point x="93" y="530" type="line" smooth="yes"/>
    </contour>
  </outline>
</glyph>
<glyph name="Jcircumflex" format="1">
  <advance width="495"/>
  <unicode hex="0134"/>
  <outline>
    <contour>
      <point x="407" y="780" type="line" smooth="yes"/>
      <point x="338" y="252" type="line" smooth="yes"/>
      <point x="289" y="100" type="line" smooth="yes"/>
      <point x="185" y="54" type="line" smooth="yes"/>
      <point x="90" y="100" type="line" smooth="yes"/>
      <point x="81" y="254" type="line" smooth="yes"/>
      <point x="13" y="254" type="line" smooth="yes"/>
      <point x="11" y="240" type="line" smooth="yes"/>
      <point x="32" y="57" type="line" smooth="yes"/>
      <point x="187" y="-11" type="line" smooth="yes"/>
      <point x="342" y="54" type="line" smooth="yes"/>
      <point x="408" y="240" type="line" smooth="yes"/>
      <point x="479" y="780" type="line" smooth="yes"/>
    </contour>
    <contour>
      <point x="589" y="840" type="line" smooth="yes"/>
      <point x="498" y="950" type="line" smooth="yes"/>
      <point x="434" y="950" type="line" smooth="yes"/>
      <point x="313" y="840" type="line" smooth="yes"/>
      <point x="387" y="840" type="line" smooth="yes"/>
      <point x="465" y="909" type="line" smooth="yes"/>
      <point x="522" y="840" type="line" smooth="yes"/>
    </contour>
  </outline>
</glyph>
<glyph name="kcommaaccent" format="1">
  <advance width="501"/>
  <unicode hex="0137"/>
  <outline>
    <contour>
      <point x="239" y="-56" type="line" smooth="yes"/>
      <point x="158" y="-56" type="line" smooth="yes"/>
      <point x="149" y="-124" type="line" smooth="yes"/>
      <point x="191" y="-124" type="line" smooth="yes"/>
      <point x="163" y="-165" type="line" smooth="yes"/>
      <point x="118" y="-178" type="line" smooth="yes"/>
      <point x="113" y="-214" type="line" smooth="yes"/>
      <point x="194" y="-186" type="line" smooth="yes"/>
      <point x="232" y="-107" type="line" smooth="yes"/>
    </contour>
    <contour>
      <point x="16" y="0" type="line" smooth="yes"/>
      <point x="86" y="0" type="line" smooth="yes"/>
      <point x="106" y="158" type="line" smooth="yes"/>
      <point x="232" y="280" type="line" smooth="yes"/>
      <point x="349" y="0" type="line" smooth="yes"/>
      <point x="425" y="0" type="line" smooth="yes"/>
      <point x="285" y="330" type="line" smooth="yes"/>
      <point x="494" y="530" type="line" smooth="yes"/>
      <point x="405" y="530" type="line" smooth="yes"/>
      <point x="119" y="254" type="line" smooth="yes"/>
      <point x="191" y="800" type="line" smooth="yes"/>
      <point x="121" y="800" type="line" smooth="yes"/>
    </contour>
  </outline>
</glyph>
<glyph name="lcommaaccent" format="1">
  <advance width="217"/>
  <unicode hex="013C"/>
  <outline>
    <contour>
      <point x="93" y="-56" type="line" smooth="yes"/>
      <point x="12" y="-56" type="line" smooth="yes"/>
      <point x="3" y="-124" type="line" smooth="yes"/>
      <point x="45" y="-124" type="line" smooth="yes"/>
      <point x="17" y="-165" type="line" smooth="yes"/>
      <point x="-28" y="-178" type="line" smooth="yes"/>
      <point x="-33" y="-214" type="line" smooth="yes"/>
      <point x="48" y="-186" type="line" smooth="yes"/>
      <point x="86" y="-107" type="line" smooth="yes"/>
    </contour>
    <contour>
      <point x="24" y="0" type="line" smooth="yes"/>
      <point x="94" y="0" type="line" smooth="yes"/>
      <point x="199" y="800" type="line" smooth="yes"/>
      <point x="129" y="800" type="line" smooth="yes"/>
    </contour>
  </outline>
</glyph>
<glyph name="lcaron" format="1">
  <advance width="217"/>
  <unicode hex="013E"/>
  <outline>
    <contour>
      <point x="273" y="800" type="line" smooth="yes"/>
      <point x="248" y="614" type="line" smooth="yes"/>
      <point x="288" y="614" type="line" smooth="yes"/>
      <point x="330" y="800" type="line" smooth="yes"/>
    </contour>
    <contour>
      <point x="24" y="0" type="line" smooth="yes"/>
      <point x="94" y="0" type="line" smooth="yes"/>
      <point x="199" y="800" type="line" smooth="yes"/>
      <point x="129" y="800" type="line" smooth="yes"/>
    </contour>
  </outline>
</glyph>
<glyph name="ldot" format="1">
  <advance width="335"/>
  <unicode hex="0140"/>
  <outline>
    <contour>
      <point x="324" y="395" type="line" smooth="yes"/>
      <point x="234" y="395" type="line" smooth="yes"/>
      <point x="222" y="305" type="line" smooth="yes"/>
      <point x="312" y="305" type="line" smooth="yes"/>
    </contour>
    <contour>
      <point x="24" y="0" type="line" smooth="yes"/>
      <point x="94" y="0" type="line" smooth="yes"/>
      <point x="199" y="800" type="line" smooth="yes"/>
      <point x="129" y="800" type="line" smooth="yes"/>
    </contour>
  </outline>
</glyph>
<glyph name="Lslash" format="1">
  <advance width="551"/>
  <unicode hex="0141"/>
  <outline>
    <contour>
      <point x="3" y="265" type="line" smooth="yes"/>
      <point x="127" y="325" type="line" smooth="yes"/>
      <point x="85" y="0" type="line" smooth="yes"/>
      <point x="487" y="0" type="line" smooth="yes"/>
      <point x="495" y="65" type="line" smooth="yes"/>
      <point x="165" y="65" type="line" smooth="yes"/>
      <point x="204" y="362" type="line" smooth="yes"/>
      <point x="436" y="475" type="line" smooth="yes"/>
      <point x="445" y="542" type="line" smooth="yes"/>
      <point x="213" y="429" type="line" smooth="yes"/>
      <point x="259" y="780" type="line" smooth="yes"/>
      <point x="187" y="780" type="line" smooth="yes"/>
      <point x="136" y="392" type="line" smooth="yes"/>
      <point x="12" y="332" type="line" smooth="yes"/>
    </contour>
  </outline>
</glyph>
<glyph name="Ncommaaccent" format="1">
  <advance width="659"/>
  <unicode hex="0145"/>
  <outline>
    <contour>
      <point x="313" y="-56" type="line" smooth="yes"/>
      <point x="232" y="-56" type="line" smooth="yes"/>
      <point x="223" y="-124" type="line" smooth="yes"/>
      <point x="265" y="-124" type="line" smooth="yes"/>
      <point x="237" y="-165" type="line" smooth="yes"/>
      <point x="192" y="-178" type="line" smooth="yes"/>
      <point x="187" y="-214" type="line" smooth="yes"/>
      <point x="268" y="-186" type="line" smooth="yes"/>
      <point x="306" y="-107" type="line" smooth="yes"/>
    </contour>
    <contour>
      <point x="638" y="780" type="line" smooth="yes"/>
      <point x="568" y="780" type="line" smooth="yes"/>
      <point x="506" y="305" type="line" smooth="yes"/>
      <point x="485" y="122" type="line" smooth="yes"/>
      <point x="203" y="780" type="line" smooth="yes"/>
      <point x="127" y="780" type="line" smooth="yes"/>
      <point x="25" y="0" type="line" smooth="yes"/>
      <point x="95" y="0" type="line" smooth="yes"/>
      <point x="157" y="475" type="line" smooth="yes"/>
      <point x="178" y="658" type="line" smooth="yes"/>
      <point x="460" y="0" type="line" smooth="yes"/>
      <point x="536" y="0" type="line" smooth="yes"/>
    </contour>
  </outline>
</glyph>
<glyph name="ncommaaccent" format="1">
  <advance width="525"/>
  <unicode hex="0146"/>
  <outline>
    <contour>
      <point x="416" y="0" type="line" smooth="yes"/>
      <point x="465" y="371" type="line" smooth="yes"/>
      <point x="438" y="494" type="line" smooth="yes"/>
      <point x="314" y="541" type="line" smooth="yes"/>
      <point x="212" y="518" type="line" smooth="yes"/>
      <point x="140" y="456" type="line" smooth="yes"/>
      <point x="140" y="530" type="line" smooth="yes"/>
      <point x="80" y="530" type="line" smooth="yes"/>
      <point x="67" y="386" type="line" smooth="yes"/>
      <point x="16" y="0" type="line" smooth="yes"/>
      <point x="86" y="0" type="line" smooth="yes"/>
      <point x="138" y="395" type="line" smooth="yes"/>
      <point x="194" y="449" type="line" smooth="yes"/>
      <point x="290" y="478" type="line" smooth="yes"/>
      <point x="374" y="450" type="line" smooth="yes"/>
      <point x="394" y="361" type="line" smooth="yes"/>
      <point x="346" y="0" type="line" smooth="yes"/>
    </contour>
    <contour>
      <point x="251" y="-56" type="line" smooth="yes"/>
      <point x="170" y="-56" type="line" smooth="yes"/>
      <point x="161" y="-124" type="line" smooth="yes"/>
      <point x="203" y="-124" type="line" smooth="yes"/>
      <point x="175" y="-165" type="line" smooth="yes"/>
      <point x="130" y="-178" type="line" smooth="yes"/>
      <point x="125" y="-214" type="line" smooth="yes"/>
      <point x="206" y="-186" type="line" smooth="yes"/>
      <point x="244" y="-107" type="line" smooth="yes"/>
    </contour>
  </outline>
</glyph>
<glyph name="Ncaron" format="1">
  <advance width="659"/>
  <unicode hex="0147"/>
  <outline>
    <contour>
      <point x="638" y="780" type="line" smooth="yes"/>
      <point x="568" y="780" type="line" smooth="yes"/>
      <point x="506" y="305" type="line" smooth="yes"/>
      <point x="485" y="122" type="line" smooth="yes"/>
      <point x="203" y="780" type="line" smooth="yes"/>
      <point x="127" y="780" type="line" smooth="yes"/>
      <point x="25" y="0" type="line" smooth="yes"/>
      <point x="95" y="0" type="line" smooth="yes"/>
      <point x="157" y="475" type="line" smooth="yes"/>
      <point x="178" y="658" type="line" smooth="yes"/>
      <point x="460" y="0" type="line" smooth="yes"/>
      <point x="536" y="0" type="line" smooth="yes"/>
    </contour>
    <contour>
      <point x="267" y="950" type="line" smooth="yes"/>
      <point x="358" y="840" type="line" smooth="yes"/>
      <point x="422" y="840" type="line" smooth="yes"/>
      <point x="543" y="950" type="line" smooth="yes"/>
      <point x="469" y="950" type="line" smooth="yes"/>
      <point x="391" y="881" type="line" smooth="yes"/>
      <point x="334" y="950" type="line" smooth="yes"/>
    </contour>
  </outline>
</glyph>
<glyph name="eng" format="1">
  <advance width="525"/>
  <unicode hex="014B"/>
  <outline>
    <contour>
      <point x="465" y="371" type="line" smooth="yes"/>
      <point x="438" y="494" type="line" smooth="yes"/>
      <point x="314" y="541" type="line" smooth="yes"/>
      <point x="212" y="518" type="line" smooth="yes"/>
      <point x="140" y="456" type="line" smooth="yes"/>
      <point x="140" y="530" type="line" smooth="yes"/>
      <point x="80" y="530" type="line" smooth="yes"/>
      <point x="67" y="386" type="line" smooth="yes"/>
      <point x="16" y="0" type="line" smooth="yes"/>
      <point x="86" y="0" type="line" smooth="yes"/>
      <point x="138" y="395" type="line" smooth="yes"/>
      <point x="194" y="449" type="line" smooth="yes"/>
      <point x="290" y="478" type="line" smooth="yes"/>
      <point x="374" y="450" type="line" smooth="yes"/>
      <point x="394" y="361" type="line" smooth="yes"/>
      <point x="340" y="-49" type="line" smooth="yes"/>
      <point x="304" y="-127" type="line" smooth="yes"/>
      <point x="230" y="-148" type="line" smooth="yes"/>
      <point x="195" y="-145" type="line" smooth="yes"/>
      <point x="170" y="-138" type="line" smooth="yes"/>
      <point x="162" y="-199" type="line" smooth="yes"/>
      <point x="187" y="-207" type="line" smooth="yes"/>
      <point x="234" y="-211" type="line" smooth="yes"/>
      <point x="351" y="-177" type="line" smooth="yes"/>
      <point x="408" y="-63" type="line" smooth="yes"/>
    </contour>
  </outline>
</glyph>
<glyph name="Omacron" format="1">
  <advance width="641"/>
  <unicode hex="014C"/>
  <outline>
    <contour>
      <point x="278" y="54" type="line" smooth="yes"/>
      <point x="144" y="129" type="line" smooth="yes"/>
      <point x="130" y="370" type="line" smooth="yes"/>
      <point x="135" y="410" type="line" smooth="yes"/>
      <point x="212" y="651" type="line" smooth="yes"/>
      <point x="367" y="726" type="line" smooth="yes"/>
      <point x="374" y="726" type="line" smooth="yes"/>
      <point x="508" y="651" type="line" smooth="yes"/>
      <point x="522" y="410" type="line" smooth="yes"/>
      <point x="517" y="370" type="line" smooth="yes"/>
      <point x="440" y="129" type="line" smooth="yes"/>
      <point x="285" y="54" type="line" smooth="yes"/>
    </contour>
    <contour>
      <point x="372" y="791" type="line" smooth="yes"/>
      <point x="163" y="702" type="line" smooth="yes"/>
      <point x="61" y="410" type="line" smooth="yes"/>
      <point x="56" y="370" type="line" smooth="yes"/>
      <point x="89" y="78" type="line" smooth="yes"/>
      <point x="280" y="-11" type="line" smooth="yes"/>
      <point x="490" y="78" type="line" smooth="yes"/>
      <point x="591" y="370" type="line" smooth="yes"/>
      <point x="596" y="410" type="line" smooth="yes"/>
      <point x="564" y="702" type="line" smooth="yes"/>
    </contour>
    <contour>
      <point x="276" y="868" type="line" smooth="yes"/>
      <point x="502" y="868" type="line" smooth="yes"/>
      <point x="509" y="922" type="line" smooth="yes"/>
      <point x="283" y="922" type="line" smooth="yes"/>
    </contour>
  </outline>
</glyph>
<glyph name="OE" format="1">
  <advance width="940"/>
  <unicode hex="0152"/>
  <outline>
    <contour>
      <point x="56" y="370" type="line" smooth="yes"/>
      <point x="103" y="84" type="line" smooth="yes"/>
      <point x="318" y="0" type="line" smooth="yes"/>
      <point x="851" y="0" type="line" smooth="yes"/>
      <point x="859" y="65" type="line" smooth="yes"/>
      <point x="496" y="65" type="line" smooth="yes"/>
      <point x="535" y="366" type="line" smooth="yes"/>
      <point x="848" y="366" type="line" smooth="yes"/>
      <point x="856" y="430" type="line" smooth="yes"/>
      <point x="544" y="430" type="line" smooth="yes"/>
      <point x="581" y="715" type="line" smooth="yes"/>
      <point x="945" y="715" type="line" smooth="yes"/>
      <point x="953" y="780" type="line" smooth="yes"/>
      <point x="413" y="780" type="line" smooth="yes"/>
      <point x="178" y="694" type="line" smooth="yes"/>
      <point x="61" y="410" type="line" smooth="yes"/>
    </contour>
    <contour>
      <point x="510" y="715" type="line" smooth="yes"/>
      <point x="424" y="65" type="line" smooth="yes"/>
      <point x="325" y="65" type="line" smooth="yes"/>
      <point x="162" y="134" type="line" smooth="yes"/>
      <point x="130" y="370" type="line" smooth="yes"/>
      <point x="135" y="410" type="line" smooth="yes"/>
      <point x="227" y="643" type="line" smooth="yes"/>
      <point x="411" y="715" type="line" smooth="yes"/>
    </contour>
  </outline>
</glyph>
<glyph name="oe" format="1">
  <advance width="883"/>
  <unicode hex="0153"/>
  <outline>
    <contour>
      <point x="664" y="478" type="line" smooth="yes"/>
      <point x="771" y="430" type="line" smooth="yes"/>
      <point x="789" y="294" type="line" smooth="yes"/>
      <point x="485" y="294" type="line" smooth="yes"/>
      <point x="544" y="427" type="line" smooth="yes"/>
    </contour>
    <contour>
      <point x="232" y="52" type="line" smooth="yes"/>
      <point x="123" y="107" type="line" smooth="yes"/>
      <point x="105" y="257" type="line" smooth="yes"/>
      <point x="108" y="279" type="line" smooth="yes"/>
      <point x="165" y="425" type="line" smooth="yes"/>
      <point x="283" y="478" type="line" smooth="yes"/>
      <point x="393" y="423" type="line" smooth="yes"/>
      <point x="411" y="273" type="line" smooth="yes"/>
      <point x="408" y="251" type="line" smooth="yes"/>
      <point x="351" y="105" type="line" smooth="yes"/>
    </contour>
    <contour>
      <point x="852" y="236" type="line" smooth="yes"/>
      <point x="857" y="275" type="line" smooth="yes"/>
      <point x="828" y="466" type="line" smooth="yes"/>
      <point x="664" y="541" type="line" smooth="yes"/>
      <point x="542" y="508" type="line" smooth="yes"/>
      <point x="464" y="420" type="line" smooth="yes"/>
      <point x="403" y="508" type="line" smooth="yes"/>
      <point x="283" y="541" type="line" smooth="yes"/>
      <point x="112" y="466" type="line" smooth="yes"/>
      <point x="37" y="277" type="line" smooth="yes"/>
      <point x="34" y="255" type="line" smooth="yes"/>
      <point x="66" y="66" type="line" smooth="yes"/>
      <point x="232" y="-11" type="line" smooth="yes"/>
      <point x="351" y="21" type="line" smooth="yes"/>
      <point x="426" y="106" type="line" smooth="yes"/>
      <point x="489" y="21" type="line" smooth="yes"/>
      <point x="618" y="-11" type="line" smooth="yes"/>
      <point x="778" y="44" type="line" smooth="yes"/>
      <point x="841" y="157" type="line" smooth="yes"/>
      <point x="843" y="170" type="line" smooth="yes"/>
      <point x="776" y="170" type="line" smooth="yes"/>
      <point x="735" y="90" type="line" smooth="yes"/>
      <point x="620" y="52" type="line" smooth="yes"/>
      <point x="501" y="101" type="line" smooth="yes"/>
      <point x="478" y="236" type="line" smooth="yes"/>
    </contour>
  </outline>
</glyph>
<glyph name="racute" format="1">
  <advance width="333"/>
  <unicode hex="0155"/>
  <outline>
    <contour>
      <point x="297" y="541" type="line" smooth="yes"/>
      <point x="204" y="518" type="line" smooth="yes"/>
      <point x="140" y="461" type="line" smooth="yes"/>
      <point x="140" y="530" type="line" smooth="yes"/>
      <point x="80" y="530" type="line" smooth="yes"/>
      <point x="67" y="386" type="line" smooth="yes"/>
      <point x="16" y="0" type="line" smooth="yes"/>
      <point x="86" y="0" type="line" smooth="yes"/>
      <point x="137" y="387" type="line" smooth="yes"/>
      <point x="192" y="443" type="line" smooth="yes"/>
      <point x="289" y="471" type="line" smooth="yes"/>
      <point x="303" y="471" type="line" smooth="yes"/>
      <point x="311" y="540" type="line" smooth="yes"/>
      <point x="307" y="541" type="line" smooth="yes"/>
    </contour>
    <contour>
      <point x="285" y="780" type="line" smooth="yes"/>
      <point x="173" y="614" type="line" smooth="yes"/>
      <point x="245" y="614" type="line" smooth="yes"/>
      <point x="361" y="780" type="line" smooth="yes"/>
    </contour>
  </outline>
</glyph>
<glyph name="rcommaaccent" format="1">
  <advance width="333"/>
  <unicode hex="0157"/>
  <outline>
    <contour>
      <point x="297" y="541" type="line" smooth="yes"/>
      <point x="204" y="518" type="line" smooth="yes"/>
      <point x="140" y="461" type="line" smooth="yes"/>
      <point x="140" y="530" type="line" smooth="yes"/>
      <point x="80" y="530" type="line" smooth="yes"/>
      <point x="67" y="386" type="line" smooth="yes"/>
      <point x="16" y="0" type="line" smooth="yes"/>
      <point x="86" y="0" type="line" smooth="yes"/>
      <point x="137" y="387" type="line" smooth="yes"/>
      <point x="192" y="443" type="line" smooth="yes"/>
      <point x="289" y="471" type="line" smooth="yes"/>
      <point x="303" y="471" type="line" smooth="yes"/>
      <point x="311" y="540" type="line" smooth="yes"/>
      <point x="307" y="541" type="line" smooth="yes"/>
    </contour>
    <contour>
      <point x="86" y="-56" type="line" smooth="yes"/>
      <point x="5" y="-56" type="line" smooth="yes"/>
      <point x="-4" y="-124" type="line" smooth="yes"/>
      <point x="38" y="-124" type="line" smooth="yes"/>
      <point x="10" y="-165" type="line" smooth="yes"/>
      <point x="-35" y="-178" type="line" smooth="yes"/>
      <point x="-40" y="-214" type="line" smooth="yes"/>
      <point x="41" y="-186" type="line" smooth="yes"/>
      <point x="79" y="-107" type="line" smooth="yes"/>
    </contour>
  </outline>
</glyph>
<glyph name="rcaron" format="1">
  <advance width="333"/>
  <unicode hex="0159"/>
  <outline>
    <contour>
      <point x="297" y="541" type="line" smooth="yes"/>
      <point x="204" y="518" type="line" smooth="yes"/>
      <point x="140" y="461" type="line" smooth="yes"/>
      <point x="140" y="530" type="line" smooth="yes"/>
      <point x="80" y="530" type="line" smooth="yes"/>
      <point x="67" y="386" type="line" smooth="yes"/>
      <point x="16" y="0" type="line" smooth="yes"/>
      <point x="86" y="0" type="line" smooth="yes"/>
      <point x="137" y="387" type="line" smooth="yes"/>
      <point x="192" y="443" type="line" smooth="yes"/>
      <point x="289" y="471" type="line" smooth="yes"/>
      <point x="303" y="471" type="line" smooth="yes"/>
      <point x="311" y="540" type="line" smooth="yes"/>
      <point x="307" y="541" type="line" smooth="yes"/>
    </contour>
    <contour>
      <point x="69" y="780" type="line" smooth="yes"/>
      <point x="178" y="614" type="line" smooth="yes"/>
      <point x="240" y="614" type="line" smooth="yes"/>
      <point x="393" y="780" type="line" smooth="yes"/>
      <point x="320" y="780" type="line" smooth="yes"/>
      <point x="213" y="667" type="line" smooth="yes"/>
      <point x="135" y="780" type="line" smooth="yes"/>
    </contour>
  </outline>
</glyph>
<glyph name="Scedilla" format="1">
  <advance width="596"/>
  <unicode hex="015E"/>
  <outline>
    <contour>
      <point x="286" y="371" type="line" smooth="yes"/>
      <point x="427" y="314" type="line" smooth="yes"/>
      <point x="460" y="205" type="line" smooth="yes"/>
      <point x="458" y="190" type="line" smooth="yes"/>
      <point x="396" y="87" type="line" smooth="yes"/>
      <point x="264" y="54" type="line" smooth="yes"/>
      <point x="254" y="54" type="line" smooth="yes"/>
      <point x="129" y="100" type="line" smooth="yes"/>
      <point x="102" y="254" type="line" smooth="yes"/>
      <point x="30" y="254" type="line" smooth="yes"/>
      <point x="28" y="240" type="line" smooth="yes"/>
      <point x="65" y="62" type="line" smooth="yes"/>
      <point x="227" y="-10" type="line" smooth="yes"/>
      <point x="191" y="-80" type="line" smooth="yes"/>
      <point x="204" y="-99" type="line" smooth="yes"/>
      <point x="214" y="-98" type="line" smooth="yes"/>
      <point x="235" y="-96" type="line" smooth="yes"/>
      <point x="274" y="-103" type="line" smooth="yes"/>
      <point x="290" y="-130" type="line" smooth="yes"/>
      <point x="274" y="-160" type="line" smooth="yes"/>
      <point x="228" y="-169" type="line" smooth="yes"/>
      <point x="187" y="-162" type="line" smooth="yes"/>
      <point x="157" y="-148" type="line" smooth="yes"/>
      <point x="137" y="-184" type="line" smooth="yes"/>
      <point x="176" y="-203" type="line" smooth="yes"/>
      <point x="229" y="-211" type="line" smooth="yes"/>
      <point x="306" y="-191" type="line" smooth="yes"/>
      <point x="337" y="-127" type="line" smooth="yes"/>
      <point x="310" y="-73" type="line" smooth="yes"/>
      <point x="251" y="-58" type="line" smooth="yes"/>
      <point x="247" y="-58" type="line" smooth="yes"/>
      <point x="272" y="-11" type="line" smooth="yes"/>
      <point x="448" y="41" type="line" smooth="yes"/>
      <point x="531" y="188" type="line" smooth="yes"/>
      <point x="534" y="208" type="line" smooth="yes"/>
      <point x="497" y="352" type="line" smooth="yes"/>
      <point x="324" y="430" type="line" smooth="yes"/>
      <point x="183" y="488" type="line" smooth="yes"/>
      <point x="155" y="588" type="line" smooth="yes"/>
      <point x="157" y="603" type="line" smooth="yes"/>
      <point x="214" y="696" type="line" smooth="yes"/>
      <point x="333" y="726" type="line" smooth="yes"/>
      <point x="343" y="726" type="line" smooth="yes"/>
      <point x="469" y="677" type="line" smooth="yes"/>
      <point x="492" y="516" type="line" smooth="yes"/>
      <point x="564" y="516" type="line" smooth="yes"/>
      <point x="566" y="530" type="line" smooth="yes"/>
      <point x="531" y="723" type="line" smooth="yes"/>
      <point x="342" y="791" type="line" smooth="yes"/>
      <point x="168" y="747" type="line" smooth="yes"/>
      <point x="84" y="605" type="line" smooth="yes"/>
      <point x="81" y="585" type="line" smooth="yes"/>
      <point x="114" y="451" type="line" smooth="yes"/>
    </contour>
  </outline>
</glyph>
<glyph name="scedilla" format="1">
  <advance width="519"/>
  <unicode hex="015F"/>
  <outline>
    <contour>
      <point x="222" y="52" type="line" smooth="yes"/>
      <point x="118" y="82" type="line" smooth="yes"/>
      <point x="99" y="162" type="line" smooth="yes"/>
      <point x="30" y="162" type="line" smooth="yes"/>
      <point x="28" y="149" type="line" smooth="yes"/>
      <point x="55" y="43" type="line" smooth="yes"/>
      <point x="192" y="-10" type="line" smooth="yes"/>
      <point x="156" y="-80" type="line" smooth="yes"/>
      <point x="169" y="-99" type="line" smooth="yes"/>
      <point x="179" y="-98" type="line" smooth="yes"/>
      <point x="200" y="-96" type="line" smooth="yes"/>
      <point x="239" y="-103" type="line" smooth="yes"/>
      <point x="255" y="-130" type="line" smooth="yes"/>
      <point x="239" y="-160" type="line" smooth="yes"/>
      <point x="193" y="-169" type="line" smooth="yes"/>
      <point x="152" y="-162" type="line" smooth="yes"/>
      <point x="122" y="-148" type="line" smooth="yes"/>
      <point x="102" y="-184" type="line" smooth="yes"/>
      <point x="141" y="-203" type="line" smooth="yes"/>
      <point x="194" y="-211" type="line" smooth="yes"/>
      <point x="271" y="-191" type="line" smooth="yes"/>
      <point x="302" y="-127" type="line" smooth="yes"/>
      <point x="275" y="-73" type="line" smooth="yes"/>
      <point x="216" y="-58" type="line" smooth="yes"/>
      <point x="212" y="-58" type="line" smooth="yes"/>
      <point x="237" y="-10" type="line" smooth="yes"/>
      <point x="375" y="33" type="line" smooth="yes"/>
      <point x="432" y="135" type="line" smooth="yes"/>
      <point x="433" y="143" type="line" smooth="yes"/>
      <point x="399" y="251" type="line" smooth="yes"/>
      <point x="266" y="299" type="line" smooth="yes"/>
      <point x="164" y="325" type="line" smooth="yes"/>
      <point x="135" y="378" type="line" smooth="yes"/>
      <point x="171" y="455" type="line" smooth="yes"/>
      <point x="270" y="478" type="line" smooth="yes"/>
      <point x="370" y="447" type="line" smooth="yes"/>
      <point x="388" y="359" type="line" smooth="yes"/>
      <point x="456" y="359" type="line" smooth="yes"/>
      <point x="458" y="372" type="line" smooth="yes"/>
      <point x="426" y="493" type="line" smooth="yes"/>
      <point x="270" y="541" type="line" smooth="yes"/>
      <point x="127" y="504" type="line" smooth="yes"/>
      <point x="66" y="401" type="line" smooth="yes"/>
      <point x="65" y="393" type="line" smooth="yes"/>
      <point x="96" y="294" type="line" smooth="yes"/>
      <point x="234" y="243" type="line" smooth="yes"/>
      <point x="332" y="216" type="line" smooth="yes"/>
      <point x="363" y="158" type="line" smooth="yes"/>
      <point x="328" y="78" type="line" smooth="yes"/>
    </contour>
  </outline>
</glyph>
<glyph name="Scaron" format="1">
  <advance width="596"/>
  <unicode hex="0160"/>
  <outline>
    <contour>
      <point x="286" y="371" type="line" smooth="yes"/>
      <point x="427" y="314" type="line" smooth="yes"/>
      <point x="460" y="205" type="line" smooth="yes"/>
      <point x="458" y="190" type="line" smooth="yes"/>
      <point x="396" y="87" type="line" smooth="yes"/>
      <point x="264" y="54" type="line" smooth="yes"/>
      <point x="254" y="54" type="line" smooth="yes"/>
      <point x="129" y="100" type="line" smooth="yes"/>
      <point x="102" y="254" type="line" smooth="yes"/>
      <point x="30" y="254" type="line" smooth="yes"/>
      <point x="28" y="240" type="line" smooth="yes"/>
      <point x="72" y="55" type="line" smooth="yes"/>
      <point x="256" y="-11" type="line" smooth="yes"/>
      <point x="444" y="38" type="line" smooth="yes"/>
      <point x="531" y="188" type="line" smooth="yes"/>
      <point x="534" y="208" type="line" smooth="yes"/>
      <point x="497" y="352" type="line" smooth="yes"/>
      <point x="324" y="430" type="line" smooth="yes"/>
      <point x="183" y="488" type="line" smooth="yes"/>
      <point x="155" y="588" type="line" smooth="yes"/>
      <point x="157" y="603" type="line" smooth="yes"/>
      <point x="214" y="696" type="line" smooth="yes"/>
      <point x="333" y="726" type="line" smooth="yes"/>
      <point x="343" y="726" type="line" smooth="yes"/>
      <point x="469" y="677" type="line" smooth="yes"/>
      <point x="492" y="516" type="line" smooth="yes"/>
      <point x="564" y="516" type="line" smooth="yes"/>
      <point x="566" y="530" type="line" smooth="yes"/>
      <point x="531" y="723" type="line" smooth="yes"/>
      <point x="342" y="791" type="line" smooth="yes"/>
      <point x="168" y="747" type="line" smooth="yes"/>
      <point x="84" y="605" type="line" smooth="yes"/>
      <point x="81" y="585" type="line" smooth="yes"/>
      <point x="114" y="451" type="line" smooth="yes"/>
    </contour>
    <contour>
      <point x="238" y="950" type="line" smooth="yes"/>
      <point x="329" y="840" type="line" smooth="yes"/>
      <point x="393" y="840" type="line" smooth="yes"/>
      <point x="514" y="950" type="line" smooth="yes"/>
      <point x="440" y="950" type="line" smooth="yes"/>
      <point x="362" y="881" type="line" smooth="yes"/>
      <point x="305" y="950" type="line" smooth="yes"/>
    </contour>
  </outline>
</glyph>
<glyph name="scaron" format="1">
  <advance width="522"/>
  <unicode hex="0161"/>
  <outline>
    <contour>
      <point x="222" y="52" type="line" smooth="yes"/>
      <point x="118" y="82" type="line" smooth="yes"/>
      <point x="99" y="162" type="line" smooth="yes"/>
      <point x="30" y="162" type="line" smooth="yes"/>
      <point x="28" y="149" type="line" smooth="yes"/>
      <point x="61" y="37" type="line" smooth="yes"/>
      <point x="222" y="-11" type="line" smooth="yes"/>
      <point x="371" y="30" type="line" smooth="yes"/>
      <point x="432" y="135" type="line" smooth="yes"/>
      <point x="433" y="143" type="line" smooth="yes"/>
      <point x="399" y="251" type="line" smooth="yes"/>
      <point x="266" y="299" type="line" smooth="yes"/>
      <point x="164" y="325" type="line" smooth="yes"/>
      <point x="135" y="378" type="line" smooth="yes"/>
      <point x="171" y="455" type="line" smooth="yes"/>
      <point x="270" y="478" type="line" smooth="yes"/>
      <point x="370" y="447" type="line" smooth="yes"/>
      <point x="388" y="359" type="line" smooth="yes"/>
      <point x="456" y="359" type="line" smooth="yes"/>
      <point x="458" y="372" type="line" smooth="yes"/>
      <point x="426" y="493" type="line" smooth="yes"/>
      <point x="270" y="541" type="line" smooth="yes"/>
      <point x="127" y="504" type="line" smooth="yes"/>
      <point x="66" y="401" type="line" smooth="yes"/>
      <point x="65" y="393" type="line" smooth="yes"/>
      <point x="96" y="294" type="line" smooth="yes"/>
      <point x="234" y="243" type="line" smooth="yes"/>
      <point x="332" y="216" type="line" smooth="yes"/>
      <point x="363" y="158" type="line" smooth="yes"/>
      <point x="328" y="78" type="line" smooth="yes"/>
    </contour>
    <contour>
      <point x="152" y="780" type="line" smooth="yes"/>
      <point x="261" y="614" type="line" smooth="yes"/>
      <point x="323" y="614" type="line" smooth="yes"/>
      <point x="476" y="780" type="line" smooth="yes"/>
      <point x="403" y="780" type="line" smooth="yes"/>
      <point x="296" y="667" type="line" smooth="yes"/>
      <point x="218" y="780" type="line" smooth="yes"/>
    </contour>
  </outline>
</glyph>
<glyph name="tcommaaccent" format="1">
  <advance width="400"/>
  <unicode hex="0163"/>
  <outline>
    <contour>
      <point x="205" y="530" type="line" smooth="yes"/>
      <point x="225" y="680" type="line" smooth="yes"/>
      <point x="155" y="680" type="line" smooth="yes"/>
      <point x="135" y="530" type="line" smooth="yes"/>
      <point x="51" y="530" type="line" smooth="yes"/>
      <point x="43" y="467" type="line" smooth="yes"/>
      <point x="127" y="467" type="line" smooth="yes"/>
      <point x="85" y="148" type="line" smooth="yes"/>
      <point x="113" y="26" type="line" smooth="yes"/>
      <point x="225" y="-11" type="line" smooth="yes"/>
      <point x="270" y="-7" type="line" smooth="yes"/>
      <point x="294" y="0" type="line" smooth="yes"/>
      <point x="302" y="61" type="line" smooth="yes"/>
      <point x="277" y="55" type="line" smooth="yes"/>
      <point x="235" y="52" type="line" smooth="yes"/>
      <point x="172" y="72" type="line" smooth="yes"/>
      <point x="156" y="155" type="line" smooth="yes"/>
      <point x="197" y="467" type="line" smooth="yes"/>
      <point x="365" y="467" type="line" smooth="yes"/>
      <point x="373" y="530" type="line" smooth="yes"/>
    </contour>
    <contour>
      <point x="216" y="-56" type="line" smooth="yes"/>
      <point x="135" y="-56" type="line" smooth="yes"/>
      <point x="126" y="-124" type="line" smooth="yes"/>
      <point x="168" y="-124" type="line" smooth="yes"/>
      <point x="140" y="-165" type="line" smooth="yes"/>
      <point x="95" y="-178" type="line" smooth="yes"/>
      <point x="90" y="-214" type="line" smooth="yes"/>
      <point x="171" y="-186" type="line" smooth="yes"/>
      <point x="209" y="-107" type="line" smooth="yes"/>
    </contour>
  </outline>
</glyph>
<glyph name="Tbar" format="1">
  <advance width="515"/>
  <unicode hex="0166"/>
  <outline>
    <contour>
      <point x="417" y="366" type="line" smooth="yes"/>
      <point x="426" y="430" type="line" smooth="yes"/>
      <point x="300" y="430" type="line" smooth="yes"/>
      <point x="338" y="715" type="line" smooth="yes"/>
      <point x="537" y="715" type="line" smooth="yes"/>
      <point x="545" y="780" type="line" smooth="yes"/>
      <point x="76" y="780" type="line" smooth="yes"/>
      <point x="68" y="715" type="line" smooth="yes"/>
      <point x="266" y="715" type="line" smooth="yes"/>
      <point x="228" y="430" type="line" smooth="yes"/>
      <point x="103" y="430" type="line" smooth="yes"/>
      <point x="94" y="366" type="line" smooth="yes"/>
      <point x="220" y="366" type="line" smooth="yes"/>
      <point x="172" y="0" type="line" smooth="yes"/>
      <point x="244" y="0" type="line" smooth="yes"/>
      <point x="292" y="366" type="line" smooth="yes"/>
    </contour>
  </outline>
</glyph>
<glyph name="Utilde" format="1">
  <advance width="639"/>
  <unicode hex="0168"/>
  <outline>
    <contour>
      <point x="272" y="-11" type="line" smooth="yes"/>
      <point x="465" y="46" type="line" smooth="yes"/>
      <point x="552" y="242" type="line" smooth="yes"/>
      <point x="623" y="780" type="line" smooth="yes"/>
      <point x="551" y="780" type="line" smooth="yes"/>
      <point x="481" y="247" type="line" smooth="yes"/>
      <point x="415" y="96" type="line" smooth="yes"/>
      <point x="274" y="54" type="line" smooth="yes"/>
      <point x="147" y="96" type="line" smooth="yes"/>
      <point x="124" y="247" type="line" smooth="yes"/>
      <point x="194" y="780" type="line" smooth="yes"/>
      <point x="122" y="780" type="line" smooth="yes"/>
      <point x="51" y="242" type="line" smooth="yes"/>
      <point x="90" y="45" type="line" smooth="yes"/>
    </contour>
    <contour>
      <point x="496" y="936" type="line" smooth="yes"/>
      <point x="481" y="900" type="line" smooth="yes"/>
      <point x="451" y="889" type="line" smooth="yes"/>
      <point x="395" y="918" type="line" smooth="yes"/>
      <point x="323" y="947" type="line" smooth="yes"/>
      <point x="262" y="925" type="line" smooth="yes"/>
      <point x="230" y="854" type="line" smooth="yes"/>
      <point x="278" y="854" type="line" smooth="yes"/>
      <point x="293" y="890" type="line" smooth="yes"/>
      <point x="323" y="901" type="line" smooth="yes"/>
      <point x="380" y="872" type="line" smooth="yes"/>
      <point x="451" y="843" type="line" smooth="yes"/>
      <point x="512" y="865" type="line" smooth="yes"/>
      <point x="544" y="936" type="line" smooth="yes"/>
    </contour>
  </outline>
</glyph>
<glyph name="utilde" format="1">
  <advance width="528"/>
  <unicode hex="0169"/>
  <outline>
    <contour>
      <point x="82" y="530" type="line" smooth="yes"/>
      <point x="33" y="159" type="line" smooth="yes"/>
      <point x="61" y="37" type="line" smooth="yes"/>
      <point x="184" y="-11" type="line" smooth="yes"/>
      <point x="286" y="12" type="line" smooth="yes"/>
      <point x="358" y="74" type="line" smooth="yes"/>
      <point x="358" y="0" type="line" smooth="yes"/>
      <point x="418" y="0" type="line" smooth="yes"/>
      <point x="431" y="144" type="line" smooth="yes"/>
      <point x="482" y="530" type="line" smooth="yes"/>
      <point x="412" y="530" type="line" smooth="yes"/>
      <point x="360" y="135" type="line" smooth="yes"/>
      <point x="304" y="81" type="line" smooth="yes"/>
      <point x="208" y="52" type="line" smooth="yes"/>
      <point x="124" y="81" type="line" smooth="yes"/>
      <point x="104" y="169" type="line" smooth="yes"/>
      <point x="152" y="530" type="line" smooth="yes"/>
    </contour>
    <contour>
      <point x="413" y="746" type="line" smooth="yes"/>
      <point x="398" y="710" type="line" smooth="yes"/>
      <point x="371" y="699" type="line" smooth="yes"/>
      <point x="310" y="728" type="line" smooth="yes"/>
      <point x="236" y="757" type="line" smooth="yes"/>
      <point x="174" y="732" type="line" smooth="yes"/>
      <point x="142" y="654" type="line" smooth="yes"/>
      <point x="195" y="654" type="line" smooth="yes"/>
      <point x="210" y="690" type="line" smooth="yes"/>
      <point x="236" y="701" type="line" smooth="yes"/>
      <point x="297" y="672" type="line" smooth="yes"/>
      <point x="371" y="643" type="line" smooth="yes"/>
      <point x="433" y="668" type="line" smooth="yes"/>
      <point x="466" y="746" type="line" smooth="yes"/>
    </contour>
  </outline>
</glyph>
